%TF.GenerationSoftware,KiCad,Pcbnew,9.99.0-2510-g416e54f0d5*%
%TF.CreationDate,2026-02-07T10:38:21-05:00*%
%TF.ProjectId,gh80-3003,67683830-2d33-4303-9033-2e6b69636164,rev?*%
%TF.SameCoordinates,Original*%
%TF.FileFunction,Legend,Top*%
%TF.FilePolarity,Positive*%
%FSLAX46Y46*%
G04 Gerber Fmt 4.6, Leading zero omitted, Abs format (unit mm)*
G04 Created by KiCad (PCBNEW 9.99.0-2510-g416e54f0d5) date 2026-02-07 10:38:21*
%MOMM*%
%LPD*%
G01*
G04 APERTURE LIST*
%ADD10C,0.300000*%
%ADD11C,0.200000*%
%ADD12C,0.150000*%
%ADD13C,0.100000*%
%ADD14C,0.120000*%
%ADD15C,0.000000*%
%ADD16C,6.500000*%
%ADD17C,3.600000*%
%ADD18C,6.200000*%
%ADD19C,4.000000*%
%ADD20C,1.750000*%
%ADD21C,3.987800*%
%ADD22R,1.800000X1.800000*%
%ADD23C,1.800000*%
%ADD24R,1.778000X1.778000*%
%ADD25C,1.778000*%
%ADD26C,3.048000*%
%ADD27C,3.000000*%
%ADD28R,1.700000X1.700000*%
%ADD29C,1.700000*%
%ADD30C,0.500000*%
%ADD31C,0.650000*%
%ADD32R,0.600000X1.450000*%
%ADD33R,0.300000X1.450000*%
%ADD34O,1.000000X2.100000*%
%ADD35O,1.000000X1.600000*%
%ADD36O,1.700000X1.700000*%
G04 APERTURE END LIST*
D10*
X155155046Y125797773D02*
X155369332Y125726344D01*
X155369332Y125726344D02*
X155726474Y125726344D01*
X155726474Y125726344D02*
X155869332Y125797773D01*
X155869332Y125797773D02*
X155940760Y125869201D01*
X155940760Y125869201D02*
X156012189Y126012058D01*
X156012189Y126012058D02*
X156012189Y126154915D01*
X156012189Y126154915D02*
X155940760Y126297773D01*
X155940760Y126297773D02*
X155869332Y126369201D01*
X155869332Y126369201D02*
X155726474Y126440630D01*
X155726474Y126440630D02*
X155440760Y126512058D01*
X155440760Y126512058D02*
X155297903Y126583487D01*
X155297903Y126583487D02*
X155226474Y126654915D01*
X155226474Y126654915D02*
X155155046Y126797773D01*
X155155046Y126797773D02*
X155155046Y126940630D01*
X155155046Y126940630D02*
X155226474Y127083487D01*
X155226474Y127083487D02*
X155297903Y127154915D01*
X155297903Y127154915D02*
X155440760Y127226344D01*
X155440760Y127226344D02*
X155797903Y127226344D01*
X155797903Y127226344D02*
X156012189Y127154915D01*
X157297903Y125797773D02*
X157155045Y125726344D01*
X157155045Y125726344D02*
X156869331Y125726344D01*
X156869331Y125726344D02*
X156726474Y125797773D01*
X156726474Y125797773D02*
X156655045Y125869201D01*
X156655045Y125869201D02*
X156583617Y126012058D01*
X156583617Y126012058D02*
X156583617Y126440630D01*
X156583617Y126440630D02*
X156655045Y126583487D01*
X156655045Y126583487D02*
X156726474Y126654915D01*
X156726474Y126654915D02*
X156869331Y126726344D01*
X156869331Y126726344D02*
X157155045Y126726344D01*
X157155045Y126726344D02*
X157297903Y126654915D01*
X157940759Y125726344D02*
X157940759Y126726344D01*
X157940759Y126440630D02*
X158012188Y126583487D01*
X158012188Y126583487D02*
X158083617Y126654915D01*
X158083617Y126654915D02*
X158226474Y126726344D01*
X158226474Y126726344D02*
X158369331Y126726344D01*
X159083616Y125726344D02*
X158940759Y125797773D01*
X158940759Y125797773D02*
X158869330Y125869201D01*
X158869330Y125869201D02*
X158797902Y126012058D01*
X158797902Y126012058D02*
X158797902Y126440630D01*
X158797902Y126440630D02*
X158869330Y126583487D01*
X158869330Y126583487D02*
X158940759Y126654915D01*
X158940759Y126654915D02*
X159083616Y126726344D01*
X159083616Y126726344D02*
X159297902Y126726344D01*
X159297902Y126726344D02*
X159440759Y126654915D01*
X159440759Y126654915D02*
X159512188Y126583487D01*
X159512188Y126583487D02*
X159583616Y126440630D01*
X159583616Y126440630D02*
X159583616Y126012058D01*
X159583616Y126012058D02*
X159512188Y125869201D01*
X159512188Y125869201D02*
X159440759Y125797773D01*
X159440759Y125797773D02*
X159297902Y125726344D01*
X159297902Y125726344D02*
X159083616Y125726344D01*
X160440759Y125726344D02*
X160297902Y125797773D01*
X160297902Y125797773D02*
X160226473Y125940630D01*
X160226473Y125940630D02*
X160226473Y127226344D01*
X161226473Y125726344D02*
X161083616Y125797773D01*
X161083616Y125797773D02*
X161012187Y125940630D01*
X161012187Y125940630D02*
X161012187Y127226344D01*
X104850983Y125726344D02*
X104850983Y127226344D01*
X104850983Y127226344D02*
X105708126Y125726344D01*
X105708126Y125726344D02*
X105708126Y127226344D01*
X107065270Y126726344D02*
X107065270Y125726344D01*
X106422412Y126726344D02*
X106422412Y125940630D01*
X106422412Y125940630D02*
X106493841Y125797773D01*
X106493841Y125797773D02*
X106636698Y125726344D01*
X106636698Y125726344D02*
X106850984Y125726344D01*
X106850984Y125726344D02*
X106993841Y125797773D01*
X106993841Y125797773D02*
X107065270Y125869201D01*
X107779555Y125726344D02*
X107779555Y126726344D01*
X107779555Y126583487D02*
X107850984Y126654915D01*
X107850984Y126654915D02*
X107993841Y126726344D01*
X107993841Y126726344D02*
X108208127Y126726344D01*
X108208127Y126726344D02*
X108350984Y126654915D01*
X108350984Y126654915D02*
X108422413Y126512058D01*
X108422413Y126512058D02*
X108422413Y125726344D01*
X108422413Y126512058D02*
X108493841Y126654915D01*
X108493841Y126654915D02*
X108636698Y126726344D01*
X108636698Y126726344D02*
X108850984Y126726344D01*
X108850984Y126726344D02*
X108993841Y126654915D01*
X108993841Y126654915D02*
X109065270Y126512058D01*
X109065270Y126512058D02*
X109065270Y125726344D01*
X131056585Y125869201D02*
X130985157Y125797773D01*
X130985157Y125797773D02*
X130770871Y125726344D01*
X130770871Y125726344D02*
X130628014Y125726344D01*
X130628014Y125726344D02*
X130413728Y125797773D01*
X130413728Y125797773D02*
X130270871Y125940630D01*
X130270871Y125940630D02*
X130199442Y126083487D01*
X130199442Y126083487D02*
X130128014Y126369201D01*
X130128014Y126369201D02*
X130128014Y126583487D01*
X130128014Y126583487D02*
X130199442Y126869201D01*
X130199442Y126869201D02*
X130270871Y127012058D01*
X130270871Y127012058D02*
X130413728Y127154915D01*
X130413728Y127154915D02*
X130628014Y127226344D01*
X130628014Y127226344D02*
X130770871Y127226344D01*
X130770871Y127226344D02*
X130985157Y127154915D01*
X130985157Y127154915D02*
X131056585Y127083487D01*
X132342300Y125726344D02*
X132342300Y126512058D01*
X132342300Y126512058D02*
X132270871Y126654915D01*
X132270871Y126654915D02*
X132128014Y126726344D01*
X132128014Y126726344D02*
X131842300Y126726344D01*
X131842300Y126726344D02*
X131699442Y126654915D01*
X132342300Y125797773D02*
X132199442Y125726344D01*
X132199442Y125726344D02*
X131842300Y125726344D01*
X131842300Y125726344D02*
X131699442Y125797773D01*
X131699442Y125797773D02*
X131628014Y125940630D01*
X131628014Y125940630D02*
X131628014Y126083487D01*
X131628014Y126083487D02*
X131699442Y126226344D01*
X131699442Y126226344D02*
X131842300Y126297773D01*
X131842300Y126297773D02*
X132199442Y126297773D01*
X132199442Y126297773D02*
X132342300Y126369201D01*
X133056585Y126726344D02*
X133056585Y125226344D01*
X133056585Y126654915D02*
X133199443Y126726344D01*
X133199443Y126726344D02*
X133485157Y126726344D01*
X133485157Y126726344D02*
X133628014Y126654915D01*
X133628014Y126654915D02*
X133699443Y126583487D01*
X133699443Y126583487D02*
X133770871Y126440630D01*
X133770871Y126440630D02*
X133770871Y126012058D01*
X133770871Y126012058D02*
X133699443Y125869201D01*
X133699443Y125869201D02*
X133628014Y125797773D01*
X133628014Y125797773D02*
X133485157Y125726344D01*
X133485157Y125726344D02*
X133199443Y125726344D01*
X133199443Y125726344D02*
X133056585Y125797773D01*
X134342300Y125797773D02*
X134485157Y125726344D01*
X134485157Y125726344D02*
X134770871Y125726344D01*
X134770871Y125726344D02*
X134913728Y125797773D01*
X134913728Y125797773D02*
X134985157Y125940630D01*
X134985157Y125940630D02*
X134985157Y126012058D01*
X134985157Y126012058D02*
X134913728Y126154915D01*
X134913728Y126154915D02*
X134770871Y126226344D01*
X134770871Y126226344D02*
X134556586Y126226344D01*
X134556586Y126226344D02*
X134413728Y126297773D01*
X134413728Y126297773D02*
X134342300Y126440630D01*
X134342300Y126440630D02*
X134342300Y126512058D01*
X134342300Y126512058D02*
X134413728Y126654915D01*
X134413728Y126654915D02*
X134556586Y126726344D01*
X134556586Y126726344D02*
X134770871Y126726344D01*
X134770871Y126726344D02*
X134913728Y126654915D01*
D11*
X118659673Y143362780D02*
X118659673Y144362780D01*
X118659673Y144362780D02*
X118897768Y144362780D01*
X118897768Y144362780D02*
X119040625Y144315161D01*
X119040625Y144315161D02*
X119135863Y144219923D01*
X119135863Y144219923D02*
X119183482Y144124685D01*
X119183482Y144124685D02*
X119231101Y143934209D01*
X119231101Y143934209D02*
X119231101Y143791352D01*
X119231101Y143791352D02*
X119183482Y143600876D01*
X119183482Y143600876D02*
X119135863Y143505638D01*
X119135863Y143505638D02*
X119040625Y143410400D01*
X119040625Y143410400D02*
X118897768Y143362780D01*
X118897768Y143362780D02*
X118659673Y143362780D01*
X119659673Y143743733D02*
X120421578Y143743733D01*
X-4176517Y108705161D02*
X-4271755Y108752780D01*
X-4271755Y108752780D02*
X-4414612Y108752780D01*
X-4414612Y108752780D02*
X-4557469Y108705161D01*
X-4557469Y108705161D02*
X-4652707Y108609923D01*
X-4652707Y108609923D02*
X-4700326Y108514685D01*
X-4700326Y108514685D02*
X-4747945Y108324209D01*
X-4747945Y108324209D02*
X-4747945Y108181352D01*
X-4747945Y108181352D02*
X-4700326Y107990876D01*
X-4700326Y107990876D02*
X-4652707Y107895638D01*
X-4652707Y107895638D02*
X-4557469Y107800400D01*
X-4557469Y107800400D02*
X-4414612Y107752780D01*
X-4414612Y107752780D02*
X-4319374Y107752780D01*
X-4319374Y107752780D02*
X-4176517Y107800400D01*
X-4176517Y107800400D02*
X-4128898Y107848019D01*
X-4128898Y107848019D02*
X-4128898Y108181352D01*
X-4128898Y108181352D02*
X-4319374Y108181352D01*
X-3700326Y107752780D02*
X-3700326Y108752780D01*
X-3700326Y108752780D02*
X-3319374Y108752780D01*
X-3319374Y108752780D02*
X-3224136Y108705161D01*
X-3224136Y108705161D02*
X-3176517Y108657542D01*
X-3176517Y108657542D02*
X-3128898Y108562304D01*
X-3128898Y108562304D02*
X-3128898Y108419447D01*
X-3128898Y108419447D02*
X-3176517Y108324209D01*
X-3176517Y108324209D02*
X-3224136Y108276590D01*
X-3224136Y108276590D02*
X-3319374Y108228971D01*
X-3319374Y108228971D02*
X-3700326Y108228971D01*
X-2747945Y108657542D02*
X-2700326Y108705161D01*
X-2700326Y108705161D02*
X-2605088Y108752780D01*
X-2605088Y108752780D02*
X-2366993Y108752780D01*
X-2366993Y108752780D02*
X-2271755Y108705161D01*
X-2271755Y108705161D02*
X-2224136Y108657542D01*
X-2224136Y108657542D02*
X-2176517Y108562304D01*
X-2176517Y108562304D02*
X-2176517Y108467066D01*
X-2176517Y108467066D02*
X-2224136Y108324209D01*
X-2224136Y108324209D02*
X-2795564Y107752780D01*
X-2795564Y107752780D02*
X-2176517Y107752780D01*
X-1843183Y108752780D02*
X-1224136Y108752780D01*
X-1224136Y108752780D02*
X-1557469Y108371828D01*
X-1557469Y108371828D02*
X-1414612Y108371828D01*
X-1414612Y108371828D02*
X-1319374Y108324209D01*
X-1319374Y108324209D02*
X-1271755Y108276590D01*
X-1271755Y108276590D02*
X-1224136Y108181352D01*
X-1224136Y108181352D02*
X-1224136Y107943257D01*
X-1224136Y107943257D02*
X-1271755Y107848019D01*
X-1271755Y107848019D02*
X-1319374Y107800400D01*
X-1319374Y107800400D02*
X-1414612Y107752780D01*
X-1414612Y107752780D02*
X-1700326Y107752780D01*
X-1700326Y107752780D02*
X-1795564Y107800400D01*
X-1795564Y107800400D02*
X-1843183Y107848019D01*
X1445863Y108692780D02*
X969673Y108692780D01*
X969673Y108692780D02*
X922054Y108216590D01*
X922054Y108216590D02*
X969673Y108264209D01*
X969673Y108264209D02*
X1064911Y108311828D01*
X1064911Y108311828D02*
X1303006Y108311828D01*
X1303006Y108311828D02*
X1398244Y108264209D01*
X1398244Y108264209D02*
X1445863Y108216590D01*
X1445863Y108216590D02*
X1493482Y108121352D01*
X1493482Y108121352D02*
X1493482Y107883257D01*
X1493482Y107883257D02*
X1445863Y107788019D01*
X1445863Y107788019D02*
X1398244Y107740400D01*
X1398244Y107740400D02*
X1303006Y107692780D01*
X1303006Y107692780D02*
X1064911Y107692780D01*
X1064911Y107692780D02*
X969673Y107740400D01*
X969673Y107740400D02*
X922054Y107788019D01*
X1826816Y108359447D02*
X2064911Y107692780D01*
X2064911Y107692780D02*
X2303006Y108359447D01*
X113689673Y143382780D02*
X113689673Y144382780D01*
X113689673Y144382780D02*
X113927768Y144382780D01*
X113927768Y144382780D02*
X114070625Y144335161D01*
X114070625Y144335161D02*
X114165863Y144239923D01*
X114165863Y144239923D02*
X114213482Y144144685D01*
X114213482Y144144685D02*
X114261101Y143954209D01*
X114261101Y143954209D02*
X114261101Y143811352D01*
X114261101Y143811352D02*
X114213482Y143620876D01*
X114213482Y143620876D02*
X114165863Y143525638D01*
X114165863Y143525638D02*
X114070625Y143430400D01*
X114070625Y143430400D02*
X113927768Y143382780D01*
X113927768Y143382780D02*
X113689673Y143382780D01*
X114689673Y143763733D02*
X115451578Y143763733D01*
X115070625Y143382780D02*
X115070625Y144144685D01*
D12*
X93846620Y148656901D02*
X93846620Y147942616D01*
X93846620Y147942616D02*
X93799001Y147799759D01*
X93799001Y147799759D02*
X93703763Y147704521D01*
X93703763Y147704521D02*
X93560906Y147656901D01*
X93560906Y147656901D02*
X93465668Y147656901D01*
X94846620Y147656901D02*
X94275192Y147656901D01*
X94560906Y147656901D02*
X94560906Y148656901D01*
X94560906Y148656901D02*
X94465668Y148514044D01*
X94465668Y148514044D02*
X94370430Y148418806D01*
X94370430Y148418806D02*
X94275192Y148371187D01*
D11*
X5513482Y108635161D02*
X5418244Y108682780D01*
X5418244Y108682780D02*
X5275387Y108682780D01*
X5275387Y108682780D02*
X5132530Y108635161D01*
X5132530Y108635161D02*
X5037292Y108539923D01*
X5037292Y108539923D02*
X4989673Y108444685D01*
X4989673Y108444685D02*
X4942054Y108254209D01*
X4942054Y108254209D02*
X4942054Y108111352D01*
X4942054Y108111352D02*
X4989673Y107920876D01*
X4989673Y107920876D02*
X5037292Y107825638D01*
X5037292Y107825638D02*
X5132530Y107730400D01*
X5132530Y107730400D02*
X5275387Y107682780D01*
X5275387Y107682780D02*
X5370625Y107682780D01*
X5370625Y107682780D02*
X5513482Y107730400D01*
X5513482Y107730400D02*
X5561101Y107778019D01*
X5561101Y107778019D02*
X5561101Y108111352D01*
X5561101Y108111352D02*
X5370625Y108111352D01*
X5989673Y107682780D02*
X5989673Y108682780D01*
X5989673Y108682780D02*
X6561101Y107682780D01*
X6561101Y107682780D02*
X6561101Y108682780D01*
X7037292Y107682780D02*
X7037292Y108682780D01*
X7037292Y108682780D02*
X7275387Y108682780D01*
X7275387Y108682780D02*
X7418244Y108635161D01*
X7418244Y108635161D02*
X7513482Y108539923D01*
X7513482Y108539923D02*
X7561101Y108444685D01*
X7561101Y108444685D02*
X7608720Y108254209D01*
X7608720Y108254209D02*
X7608720Y108111352D01*
X7608720Y108111352D02*
X7561101Y107920876D01*
X7561101Y107920876D02*
X7513482Y107825638D01*
X7513482Y107825638D02*
X7418244Y107730400D01*
X7418244Y107730400D02*
X7275387Y107682780D01*
X7275387Y107682780D02*
X7037292Y107682780D01*
X123485863Y144342780D02*
X123009673Y144342780D01*
X123009673Y144342780D02*
X122962054Y143866590D01*
X122962054Y143866590D02*
X123009673Y143914209D01*
X123009673Y143914209D02*
X123104911Y143961828D01*
X123104911Y143961828D02*
X123343006Y143961828D01*
X123343006Y143961828D02*
X123438244Y143914209D01*
X123438244Y143914209D02*
X123485863Y143866590D01*
X123485863Y143866590D02*
X123533482Y143771352D01*
X123533482Y143771352D02*
X123533482Y143533257D01*
X123533482Y143533257D02*
X123485863Y143438019D01*
X123485863Y143438019D02*
X123438244Y143390400D01*
X123438244Y143390400D02*
X123343006Y143342780D01*
X123343006Y143342780D02*
X123104911Y143342780D01*
X123104911Y143342780D02*
X123009673Y143390400D01*
X123009673Y143390400D02*
X122962054Y143438019D01*
X123866816Y144009447D02*
X124104911Y143342780D01*
X124104911Y143342780D02*
X124343006Y144009447D01*
D10*
X-191485489Y14539171D02*
X-191485489Y16039171D01*
X-191485489Y16039171D02*
X-190914060Y16039171D01*
X-190914060Y16039171D02*
X-190771203Y15967742D01*
X-190771203Y15967742D02*
X-190699774Y15896314D01*
X-190699774Y15896314D02*
X-190628346Y15753457D01*
X-190628346Y15753457D02*
X-190628346Y15539171D01*
X-190628346Y15539171D02*
X-190699774Y15396314D01*
X-190699774Y15396314D02*
X-190771203Y15324885D01*
X-190771203Y15324885D02*
X-190914060Y15253457D01*
X-190914060Y15253457D02*
X-191485489Y15253457D01*
X-189771203Y14539171D02*
X-189914060Y14610600D01*
X-189914060Y14610600D02*
X-189985489Y14682028D01*
X-189985489Y14682028D02*
X-190056917Y14824885D01*
X-190056917Y14824885D02*
X-190056917Y15253457D01*
X-190056917Y15253457D02*
X-189985489Y15396314D01*
X-189985489Y15396314D02*
X-189914060Y15467742D01*
X-189914060Y15467742D02*
X-189771203Y15539171D01*
X-189771203Y15539171D02*
X-189556917Y15539171D01*
X-189556917Y15539171D02*
X-189414060Y15467742D01*
X-189414060Y15467742D02*
X-189342632Y15396314D01*
X-189342632Y15396314D02*
X-189271203Y15253457D01*
X-189271203Y15253457D02*
X-189271203Y14824885D01*
X-189271203Y14824885D02*
X-189342632Y14682028D01*
X-189342632Y14682028D02*
X-189414060Y14610600D01*
X-189414060Y14610600D02*
X-189556917Y14539171D01*
X-189556917Y14539171D02*
X-189771203Y14539171D01*
X-188699774Y14610600D02*
X-188556917Y14539171D01*
X-188556917Y14539171D02*
X-188271203Y14539171D01*
X-188271203Y14539171D02*
X-188128346Y14610600D01*
X-188128346Y14610600D02*
X-188056917Y14753457D01*
X-188056917Y14753457D02*
X-188056917Y14824885D01*
X-188056917Y14824885D02*
X-188128346Y14967742D01*
X-188128346Y14967742D02*
X-188271203Y15039171D01*
X-188271203Y15039171D02*
X-188485489Y15039171D01*
X-188485489Y15039171D02*
X-188628346Y15110600D01*
X-188628346Y15110600D02*
X-188699774Y15253457D01*
X-188699774Y15253457D02*
X-188699774Y15324885D01*
X-188699774Y15324885D02*
X-188628346Y15467742D01*
X-188628346Y15467742D02*
X-188485489Y15539171D01*
X-188485489Y15539171D02*
X-188271203Y15539171D01*
X-188271203Y15539171D02*
X-188128346Y15467742D01*
X-187414060Y14539171D02*
X-187414060Y15539171D01*
X-187414060Y16039171D02*
X-187485488Y15967742D01*
X-187485488Y15967742D02*
X-187414060Y15896314D01*
X-187414060Y15896314D02*
X-187342631Y15967742D01*
X-187342631Y15967742D02*
X-187414060Y16039171D01*
X-187414060Y16039171D02*
X-187414060Y15896314D01*
X-186914059Y15539171D02*
X-186342631Y15539171D01*
X-186699774Y16039171D02*
X-186699774Y14753457D01*
X-186699774Y14753457D02*
X-186628345Y14610600D01*
X-186628345Y14610600D02*
X-186485488Y14539171D01*
X-186485488Y14539171D02*
X-186342631Y14539171D01*
X-185842631Y14539171D02*
X-185842631Y15539171D01*
X-185842631Y16039171D02*
X-185914059Y15967742D01*
X-185914059Y15967742D02*
X-185842631Y15896314D01*
X-185842631Y15896314D02*
X-185771202Y15967742D01*
X-185771202Y15967742D02*
X-185842631Y16039171D01*
X-185842631Y16039171D02*
X-185842631Y15896314D01*
X-184914059Y14539171D02*
X-185056916Y14610600D01*
X-185056916Y14610600D02*
X-185128345Y14682028D01*
X-185128345Y14682028D02*
X-185199773Y14824885D01*
X-185199773Y14824885D02*
X-185199773Y15253457D01*
X-185199773Y15253457D02*
X-185128345Y15396314D01*
X-185128345Y15396314D02*
X-185056916Y15467742D01*
X-185056916Y15467742D02*
X-184914059Y15539171D01*
X-184914059Y15539171D02*
X-184699773Y15539171D01*
X-184699773Y15539171D02*
X-184556916Y15467742D01*
X-184556916Y15467742D02*
X-184485488Y15396314D01*
X-184485488Y15396314D02*
X-184414059Y15253457D01*
X-184414059Y15253457D02*
X-184414059Y14824885D01*
X-184414059Y14824885D02*
X-184485488Y14682028D01*
X-184485488Y14682028D02*
X-184556916Y14610600D01*
X-184556916Y14610600D02*
X-184699773Y14539171D01*
X-184699773Y14539171D02*
X-184914059Y14539171D01*
X-183771202Y15539171D02*
X-183771202Y14539171D01*
X-183771202Y15396314D02*
X-183699773Y15467742D01*
X-183699773Y15467742D02*
X-183556916Y15539171D01*
X-183556916Y15539171D02*
X-183342630Y15539171D01*
X-183342630Y15539171D02*
X-183199773Y15467742D01*
X-183199773Y15467742D02*
X-183128345Y15324885D01*
X-183128345Y15324885D02*
X-183128345Y14539171D01*
X-182414059Y14539171D02*
X-182414059Y15539171D01*
X-182414059Y16039171D02*
X-182485487Y15967742D01*
X-182485487Y15967742D02*
X-182414059Y15896314D01*
X-182414059Y15896314D02*
X-182342630Y15967742D01*
X-182342630Y15967742D02*
X-182414059Y16039171D01*
X-182414059Y16039171D02*
X-182414059Y15896314D01*
X-181699773Y15539171D02*
X-181699773Y14539171D01*
X-181699773Y15396314D02*
X-181628344Y15467742D01*
X-181628344Y15467742D02*
X-181485487Y15539171D01*
X-181485487Y15539171D02*
X-181271201Y15539171D01*
X-181271201Y15539171D02*
X-181128344Y15467742D01*
X-181128344Y15467742D02*
X-181056916Y15324885D01*
X-181056916Y15324885D02*
X-181056916Y14539171D01*
X-179699773Y15539171D02*
X-179699773Y14324885D01*
X-179699773Y14324885D02*
X-179771201Y14182028D01*
X-179771201Y14182028D02*
X-179842630Y14110600D01*
X-179842630Y14110600D02*
X-179985487Y14039171D01*
X-179985487Y14039171D02*
X-180199773Y14039171D01*
X-180199773Y14039171D02*
X-180342630Y14110600D01*
X-179699773Y14610600D02*
X-179842630Y14539171D01*
X-179842630Y14539171D02*
X-180128344Y14539171D01*
X-180128344Y14539171D02*
X-180271201Y14610600D01*
X-180271201Y14610600D02*
X-180342630Y14682028D01*
X-180342630Y14682028D02*
X-180414058Y14824885D01*
X-180414058Y14824885D02*
X-180414058Y15253457D01*
X-180414058Y15253457D02*
X-180342630Y15396314D01*
X-180342630Y15396314D02*
X-180271201Y15467742D01*
X-180271201Y15467742D02*
X-180128344Y15539171D01*
X-180128344Y15539171D02*
X-179842630Y15539171D01*
X-179842630Y15539171D02*
X-179699773Y15467742D01*
X-176985487Y14539171D02*
X-177485487Y15253457D01*
X-177842630Y14539171D02*
X-177842630Y16039171D01*
X-177842630Y16039171D02*
X-177271201Y16039171D01*
X-177271201Y16039171D02*
X-177128344Y15967742D01*
X-177128344Y15967742D02*
X-177056915Y15896314D01*
X-177056915Y15896314D02*
X-176985487Y15753457D01*
X-176985487Y15753457D02*
X-176985487Y15539171D01*
X-176985487Y15539171D02*
X-177056915Y15396314D01*
X-177056915Y15396314D02*
X-177128344Y15324885D01*
X-177128344Y15324885D02*
X-177271201Y15253457D01*
X-177271201Y15253457D02*
X-177842630Y15253457D01*
X-175771201Y14610600D02*
X-175914058Y14539171D01*
X-175914058Y14539171D02*
X-176199773Y14539171D01*
X-176199773Y14539171D02*
X-176342630Y14610600D01*
X-176342630Y14610600D02*
X-176414058Y14753457D01*
X-176414058Y14753457D02*
X-176414058Y15324885D01*
X-176414058Y15324885D02*
X-176342630Y15467742D01*
X-176342630Y15467742D02*
X-176199773Y15539171D01*
X-176199773Y15539171D02*
X-175914058Y15539171D01*
X-175914058Y15539171D02*
X-175771201Y15467742D01*
X-175771201Y15467742D02*
X-175699773Y15324885D01*
X-175699773Y15324885D02*
X-175699773Y15182028D01*
X-175699773Y15182028D02*
X-176414058Y15039171D01*
X-175271201Y15539171D02*
X-174699773Y15539171D01*
X-175056916Y14539171D02*
X-175056916Y15824885D01*
X-175056916Y15824885D02*
X-174985487Y15967742D01*
X-174985487Y15967742D02*
X-174842630Y16039171D01*
X-174842630Y16039171D02*
X-174699773Y16039171D01*
X-173628344Y14610600D02*
X-173771201Y14539171D01*
X-173771201Y14539171D02*
X-174056916Y14539171D01*
X-174056916Y14539171D02*
X-174199773Y14610600D01*
X-174199773Y14610600D02*
X-174271201Y14753457D01*
X-174271201Y14753457D02*
X-174271201Y15324885D01*
X-174271201Y15324885D02*
X-174199773Y15467742D01*
X-174199773Y15467742D02*
X-174056916Y15539171D01*
X-174056916Y15539171D02*
X-173771201Y15539171D01*
X-173771201Y15539171D02*
X-173628344Y15467742D01*
X-173628344Y15467742D02*
X-173556916Y15324885D01*
X-173556916Y15324885D02*
X-173556916Y15182028D01*
X-173556916Y15182028D02*
X-174271201Y15039171D01*
X-172914059Y14539171D02*
X-172914059Y15539171D01*
X-172914059Y15253457D02*
X-172842630Y15396314D01*
X-172842630Y15396314D02*
X-172771202Y15467742D01*
X-172771202Y15467742D02*
X-172628344Y15539171D01*
X-172628344Y15539171D02*
X-172485487Y15539171D01*
X-171414059Y14610600D02*
X-171556916Y14539171D01*
X-171556916Y14539171D02*
X-171842631Y14539171D01*
X-171842631Y14539171D02*
X-171985488Y14610600D01*
X-171985488Y14610600D02*
X-172056916Y14753457D01*
X-172056916Y14753457D02*
X-172056916Y15324885D01*
X-172056916Y15324885D02*
X-171985488Y15467742D01*
X-171985488Y15467742D02*
X-171842631Y15539171D01*
X-171842631Y15539171D02*
X-171556916Y15539171D01*
X-171556916Y15539171D02*
X-171414059Y15467742D01*
X-171414059Y15467742D02*
X-171342631Y15324885D01*
X-171342631Y15324885D02*
X-171342631Y15182028D01*
X-171342631Y15182028D02*
X-172056916Y15039171D01*
X-170699774Y15539171D02*
X-170699774Y14539171D01*
X-170699774Y15396314D02*
X-170628345Y15467742D01*
X-170628345Y15467742D02*
X-170485488Y15539171D01*
X-170485488Y15539171D02*
X-170271202Y15539171D01*
X-170271202Y15539171D02*
X-170128345Y15467742D01*
X-170128345Y15467742D02*
X-170056917Y15324885D01*
X-170056917Y15324885D02*
X-170056917Y14539171D01*
X-168699774Y14610600D02*
X-168842631Y14539171D01*
X-168842631Y14539171D02*
X-169128345Y14539171D01*
X-169128345Y14539171D02*
X-169271202Y14610600D01*
X-169271202Y14610600D02*
X-169342631Y14682028D01*
X-169342631Y14682028D02*
X-169414059Y14824885D01*
X-169414059Y14824885D02*
X-169414059Y15253457D01*
X-169414059Y15253457D02*
X-169342631Y15396314D01*
X-169342631Y15396314D02*
X-169271202Y15467742D01*
X-169271202Y15467742D02*
X-169128345Y15539171D01*
X-169128345Y15539171D02*
X-168842631Y15539171D01*
X-168842631Y15539171D02*
X-168699774Y15467742D01*
X-167485488Y14610600D02*
X-167628345Y14539171D01*
X-167628345Y14539171D02*
X-167914060Y14539171D01*
X-167914060Y14539171D02*
X-168056917Y14610600D01*
X-168056917Y14610600D02*
X-168128345Y14753457D01*
X-168128345Y14753457D02*
X-168128345Y15324885D01*
X-168128345Y15324885D02*
X-168056917Y15467742D01*
X-168056917Y15467742D02*
X-167914060Y15539171D01*
X-167914060Y15539171D02*
X-167628345Y15539171D01*
X-167628345Y15539171D02*
X-167485488Y15467742D01*
X-167485488Y15467742D02*
X-167414060Y15324885D01*
X-167414060Y15324885D02*
X-167414060Y15182028D01*
X-167414060Y15182028D02*
X-168128345Y15039171D01*
X-164699774Y15253457D02*
X-164771203Y15324885D01*
X-164771203Y15324885D02*
X-164914060Y15396314D01*
X-164914060Y15396314D02*
X-165056917Y15396314D01*
X-165056917Y15396314D02*
X-165199774Y15324885D01*
X-165199774Y15324885D02*
X-165271203Y15253457D01*
X-165271203Y15253457D02*
X-165342631Y15110600D01*
X-165342631Y15110600D02*
X-165342631Y14967742D01*
X-165342631Y14967742D02*
X-165271203Y14824885D01*
X-165271203Y14824885D02*
X-165199774Y14753457D01*
X-165199774Y14753457D02*
X-165056917Y14682028D01*
X-165056917Y14682028D02*
X-164914060Y14682028D01*
X-164914060Y14682028D02*
X-164771203Y14753457D01*
X-164771203Y14753457D02*
X-164699774Y14824885D01*
X-164699774Y15396314D02*
X-164699774Y14824885D01*
X-164699774Y14824885D02*
X-164628346Y14753457D01*
X-164628346Y14753457D02*
X-164556917Y14753457D01*
X-164556917Y14753457D02*
X-164414060Y14824885D01*
X-164414060Y14824885D02*
X-164342631Y14967742D01*
X-164342631Y14967742D02*
X-164342631Y15324885D01*
X-164342631Y15324885D02*
X-164485489Y15539171D01*
X-164485489Y15539171D02*
X-164699774Y15682028D01*
X-164699774Y15682028D02*
X-164985489Y15753457D01*
X-164985489Y15753457D02*
X-165271203Y15682028D01*
X-165271203Y15682028D02*
X-165485489Y15539171D01*
X-165485489Y15539171D02*
X-165628346Y15324885D01*
X-165628346Y15324885D02*
X-165699774Y15039171D01*
X-165699774Y15039171D02*
X-165628346Y14753457D01*
X-165628346Y14753457D02*
X-165485489Y14539171D01*
X-165485489Y14539171D02*
X-165271203Y14396314D01*
X-165271203Y14396314D02*
X-164985489Y14324885D01*
X-164985489Y14324885D02*
X-164699774Y14396314D01*
X-164699774Y14396314D02*
X-164485489Y14539171D01*
X-162914060Y15967742D02*
X-163056918Y16039171D01*
X-163056918Y16039171D02*
X-163271203Y16039171D01*
X-163271203Y16039171D02*
X-163485489Y15967742D01*
X-163485489Y15967742D02*
X-163628346Y15824885D01*
X-163628346Y15824885D02*
X-163699775Y15682028D01*
X-163699775Y15682028D02*
X-163771203Y15396314D01*
X-163771203Y15396314D02*
X-163771203Y15182028D01*
X-163771203Y15182028D02*
X-163699775Y14896314D01*
X-163699775Y14896314D02*
X-163628346Y14753457D01*
X-163628346Y14753457D02*
X-163485489Y14610600D01*
X-163485489Y14610600D02*
X-163271203Y14539171D01*
X-163271203Y14539171D02*
X-163128346Y14539171D01*
X-163128346Y14539171D02*
X-162914060Y14610600D01*
X-162914060Y14610600D02*
X-162842632Y14682028D01*
X-162842632Y14682028D02*
X-162842632Y15182028D01*
X-162842632Y15182028D02*
X-163128346Y15182028D01*
X-161556918Y14539171D02*
X-161556918Y15324885D01*
X-161556918Y15324885D02*
X-161628346Y15467742D01*
X-161628346Y15467742D02*
X-161771203Y15539171D01*
X-161771203Y15539171D02*
X-162056918Y15539171D01*
X-162056918Y15539171D02*
X-162199775Y15467742D01*
X-161556918Y14610600D02*
X-161699775Y14539171D01*
X-161699775Y14539171D02*
X-162056918Y14539171D01*
X-162056918Y14539171D02*
X-162199775Y14610600D01*
X-162199775Y14610600D02*
X-162271203Y14753457D01*
X-162271203Y14753457D02*
X-162271203Y14896314D01*
X-162271203Y14896314D02*
X-162199775Y15039171D01*
X-162199775Y15039171D02*
X-162056918Y15110600D01*
X-162056918Y15110600D02*
X-161699775Y15110600D01*
X-161699775Y15110600D02*
X-161556918Y15182028D01*
X-160199775Y14610600D02*
X-160342632Y14539171D01*
X-160342632Y14539171D02*
X-160628346Y14539171D01*
X-160628346Y14539171D02*
X-160771203Y14610600D01*
X-160771203Y14610600D02*
X-160842632Y14682028D01*
X-160842632Y14682028D02*
X-160914060Y14824885D01*
X-160914060Y14824885D02*
X-160914060Y15253457D01*
X-160914060Y15253457D02*
X-160842632Y15396314D01*
X-160842632Y15396314D02*
X-160771203Y15467742D01*
X-160771203Y15467742D02*
X-160628346Y15539171D01*
X-160628346Y15539171D02*
X-160342632Y15539171D01*
X-160342632Y15539171D02*
X-160199775Y15467742D01*
X-158914061Y14539171D02*
X-158914061Y15324885D01*
X-158914061Y15324885D02*
X-158985489Y15467742D01*
X-158985489Y15467742D02*
X-159128346Y15539171D01*
X-159128346Y15539171D02*
X-159414061Y15539171D01*
X-159414061Y15539171D02*
X-159556918Y15467742D01*
X-158914061Y14610600D02*
X-159056918Y14539171D01*
X-159056918Y14539171D02*
X-159414061Y14539171D01*
X-159414061Y14539171D02*
X-159556918Y14610600D01*
X-159556918Y14610600D02*
X-159628346Y14753457D01*
X-159628346Y14753457D02*
X-159628346Y14896314D01*
X-159628346Y14896314D02*
X-159556918Y15039171D01*
X-159556918Y15039171D02*
X-159414061Y15110600D01*
X-159414061Y15110600D02*
X-159056918Y15110600D01*
X-159056918Y15110600D02*
X-158914061Y15182028D01*
X-158414060Y15539171D02*
X-157842632Y15539171D01*
X-158199775Y16039171D02*
X-158199775Y14753457D01*
X-158199775Y14753457D02*
X-158128346Y14610600D01*
X-158128346Y14610600D02*
X-157985489Y14539171D01*
X-157985489Y14539171D02*
X-157842632Y14539171D01*
X-157342632Y14539171D02*
X-157342632Y16039171D01*
X-156699775Y14539171D02*
X-156699775Y15324885D01*
X-156699775Y15324885D02*
X-156771203Y15467742D01*
X-156771203Y15467742D02*
X-156914060Y15539171D01*
X-156914060Y15539171D02*
X-157128346Y15539171D01*
X-157128346Y15539171D02*
X-157271203Y15467742D01*
X-157271203Y15467742D02*
X-157342632Y15396314D01*
X-155771203Y14539171D02*
X-155914060Y14610600D01*
X-155914060Y14610600D02*
X-155985489Y14682028D01*
X-155985489Y14682028D02*
X-156056917Y14824885D01*
X-156056917Y14824885D02*
X-156056917Y15253457D01*
X-156056917Y15253457D02*
X-155985489Y15396314D01*
X-155985489Y15396314D02*
X-155914060Y15467742D01*
X-155914060Y15467742D02*
X-155771203Y15539171D01*
X-155771203Y15539171D02*
X-155556917Y15539171D01*
X-155556917Y15539171D02*
X-155414060Y15467742D01*
X-155414060Y15467742D02*
X-155342632Y15396314D01*
X-155342632Y15396314D02*
X-155271203Y15253457D01*
X-155271203Y15253457D02*
X-155271203Y14824885D01*
X-155271203Y14824885D02*
X-155342632Y14682028D01*
X-155342632Y14682028D02*
X-155414060Y14610600D01*
X-155414060Y14610600D02*
X-155556917Y14539171D01*
X-155556917Y14539171D02*
X-155771203Y14539171D01*
X-154628346Y15539171D02*
X-154628346Y14539171D01*
X-154628346Y15396314D02*
X-154556917Y15467742D01*
X-154556917Y15467742D02*
X-154414060Y15539171D01*
X-154414060Y15539171D02*
X-154199774Y15539171D01*
X-154199774Y15539171D02*
X-154056917Y15467742D01*
X-154056917Y15467742D02*
X-153985489Y15324885D01*
X-153985489Y15324885D02*
X-153985489Y14539171D01*
X-150914060Y14539171D02*
X-150985489Y14539171D01*
X-150985489Y14539171D02*
X-151128346Y14610600D01*
X-151128346Y14610600D02*
X-151342631Y14824885D01*
X-151342631Y14824885D02*
X-151699774Y15253457D01*
X-151699774Y15253457D02*
X-151842631Y15467742D01*
X-151842631Y15467742D02*
X-151914060Y15682028D01*
X-151914060Y15682028D02*
X-151914060Y15824885D01*
X-151914060Y15824885D02*
X-151842631Y15967742D01*
X-151842631Y15967742D02*
X-151699774Y16039171D01*
X-151699774Y16039171D02*
X-151628346Y16039171D01*
X-151628346Y16039171D02*
X-151485489Y15967742D01*
X-151485489Y15967742D02*
X-151414060Y15824885D01*
X-151414060Y15824885D02*
X-151414060Y15753457D01*
X-151414060Y15753457D02*
X-151485489Y15610600D01*
X-151485489Y15610600D02*
X-151556917Y15539171D01*
X-151556917Y15539171D02*
X-151985489Y15253457D01*
X-151985489Y15253457D02*
X-152056917Y15182028D01*
X-152056917Y15182028D02*
X-152128346Y15039171D01*
X-152128346Y15039171D02*
X-152128346Y14824885D01*
X-152128346Y14824885D02*
X-152056917Y14682028D01*
X-152056917Y14682028D02*
X-151985489Y14610600D01*
X-151985489Y14610600D02*
X-151842631Y14539171D01*
X-151842631Y14539171D02*
X-151628346Y14539171D01*
X-151628346Y14539171D02*
X-151485489Y14610600D01*
X-151485489Y14610600D02*
X-151414060Y14682028D01*
X-151414060Y14682028D02*
X-151199774Y14967742D01*
X-151199774Y14967742D02*
X-151128346Y15182028D01*
X-151128346Y15182028D02*
X-151128346Y15324885D01*
X-148199774Y15253457D02*
X-148271203Y15324885D01*
X-148271203Y15324885D02*
X-148414060Y15396314D01*
X-148414060Y15396314D02*
X-148556917Y15396314D01*
X-148556917Y15396314D02*
X-148699774Y15324885D01*
X-148699774Y15324885D02*
X-148771203Y15253457D01*
X-148771203Y15253457D02*
X-148842631Y15110600D01*
X-148842631Y15110600D02*
X-148842631Y14967742D01*
X-148842631Y14967742D02*
X-148771203Y14824885D01*
X-148771203Y14824885D02*
X-148699774Y14753457D01*
X-148699774Y14753457D02*
X-148556917Y14682028D01*
X-148556917Y14682028D02*
X-148414060Y14682028D01*
X-148414060Y14682028D02*
X-148271203Y14753457D01*
X-148271203Y14753457D02*
X-148199774Y14824885D01*
X-148199774Y15396314D02*
X-148199774Y14824885D01*
X-148199774Y14824885D02*
X-148128346Y14753457D01*
X-148128346Y14753457D02*
X-148056917Y14753457D01*
X-148056917Y14753457D02*
X-147914060Y14824885D01*
X-147914060Y14824885D02*
X-147842631Y14967742D01*
X-147842631Y14967742D02*
X-147842631Y15324885D01*
X-147842631Y15324885D02*
X-147985489Y15539171D01*
X-147985489Y15539171D02*
X-148199774Y15682028D01*
X-148199774Y15682028D02*
X-148485489Y15753457D01*
X-148485489Y15753457D02*
X-148771203Y15682028D01*
X-148771203Y15682028D02*
X-148985489Y15539171D01*
X-148985489Y15539171D02*
X-149128346Y15324885D01*
X-149128346Y15324885D02*
X-149199774Y15039171D01*
X-149199774Y15039171D02*
X-149128346Y14753457D01*
X-149128346Y14753457D02*
X-148985489Y14539171D01*
X-148985489Y14539171D02*
X-148771203Y14396314D01*
X-148771203Y14396314D02*
X-148485489Y14324885D01*
X-148485489Y14324885D02*
X-148199774Y14396314D01*
X-148199774Y14396314D02*
X-147985489Y14539171D01*
X-146628346Y14610600D02*
X-146771203Y14539171D01*
X-146771203Y14539171D02*
X-147056918Y14539171D01*
X-147056918Y14539171D02*
X-147199775Y14610600D01*
X-147199775Y14610600D02*
X-147271203Y14753457D01*
X-147271203Y14753457D02*
X-147271203Y15324885D01*
X-147271203Y15324885D02*
X-147199775Y15467742D01*
X-147199775Y15467742D02*
X-147056918Y15539171D01*
X-147056918Y15539171D02*
X-146771203Y15539171D01*
X-146771203Y15539171D02*
X-146628346Y15467742D01*
X-146628346Y15467742D02*
X-146556918Y15324885D01*
X-146556918Y15324885D02*
X-146556918Y15182028D01*
X-146556918Y15182028D02*
X-147271203Y15039171D01*
X-146056918Y15539171D02*
X-145699775Y14539171D01*
X-145699775Y14539171D02*
X-145342632Y15539171D01*
X-144914061Y15539171D02*
X-144556918Y14539171D01*
X-144199775Y15539171D02*
X-144556918Y14539171D01*
X-144556918Y14539171D02*
X-144699775Y14182028D01*
X-144699775Y14182028D02*
X-144771204Y14110600D01*
X-144771204Y14110600D02*
X-144914061Y14039171D01*
X-142985490Y14539171D02*
X-142985490Y16039171D01*
X-142985490Y14610600D02*
X-143128347Y14539171D01*
X-143128347Y14539171D02*
X-143414061Y14539171D01*
X-143414061Y14539171D02*
X-143556918Y14610600D01*
X-143556918Y14610600D02*
X-143628347Y14682028D01*
X-143628347Y14682028D02*
X-143699775Y14824885D01*
X-143699775Y14824885D02*
X-143699775Y15253457D01*
X-143699775Y15253457D02*
X-143628347Y15396314D01*
X-143628347Y15396314D02*
X-143556918Y15467742D01*
X-143556918Y15467742D02*
X-143414061Y15539171D01*
X-143414061Y15539171D02*
X-143128347Y15539171D01*
X-143128347Y15539171D02*
X-142985490Y15467742D01*
X-141485489Y14539171D02*
X-142342632Y14539171D01*
X-141914061Y14539171D02*
X-141914061Y16039171D01*
X-141914061Y16039171D02*
X-142056918Y15824885D01*
X-142056918Y15824885D02*
X-142199775Y15682028D01*
X-142199775Y15682028D02*
X-142342632Y15610600D01*
X-140985490Y16039171D02*
X-140056918Y16039171D01*
X-140056918Y16039171D02*
X-140556918Y15467742D01*
X-140556918Y15467742D02*
X-140342633Y15467742D01*
X-140342633Y15467742D02*
X-140199776Y15396314D01*
X-140199776Y15396314D02*
X-140128347Y15324885D01*
X-140128347Y15324885D02*
X-140056918Y15182028D01*
X-140056918Y15182028D02*
X-140056918Y14824885D01*
X-140056918Y14824885D02*
X-140128347Y14682028D01*
X-140128347Y14682028D02*
X-140199776Y14610600D01*
X-140199776Y14610600D02*
X-140342633Y14539171D01*
X-140342633Y14539171D02*
X-140771204Y14539171D01*
X-140771204Y14539171D02*
X-140914061Y14610600D01*
X-140914061Y14610600D02*
X-140985490Y14682028D01*
X-137128348Y15539171D02*
X-138271205Y15110600D01*
X-138271205Y15110600D02*
X-137128348Y14682028D01*
X-136556919Y16039171D02*
X-135628347Y16039171D01*
X-135628347Y16039171D02*
X-136128347Y15467742D01*
X-136128347Y15467742D02*
X-135914062Y15467742D01*
X-135914062Y15467742D02*
X-135771205Y15396314D01*
X-135771205Y15396314D02*
X-135699776Y15324885D01*
X-135699776Y15324885D02*
X-135628347Y15182028D01*
X-135628347Y15182028D02*
X-135628347Y14824885D01*
X-135628347Y14824885D02*
X-135699776Y14682028D01*
X-135699776Y14682028D02*
X-135771205Y14610600D01*
X-135771205Y14610600D02*
X-135914062Y14539171D01*
X-135914062Y14539171D02*
X-136342633Y14539171D01*
X-136342633Y14539171D02*
X-136485490Y14610600D01*
X-136485490Y14610600D02*
X-136556919Y14682028D01*
D11*
X109093482Y144405161D02*
X108998244Y144452780D01*
X108998244Y144452780D02*
X108855387Y144452780D01*
X108855387Y144452780D02*
X108712530Y144405161D01*
X108712530Y144405161D02*
X108617292Y144309923D01*
X108617292Y144309923D02*
X108569673Y144214685D01*
X108569673Y144214685D02*
X108522054Y144024209D01*
X108522054Y144024209D02*
X108522054Y143881352D01*
X108522054Y143881352D02*
X108569673Y143690876D01*
X108569673Y143690876D02*
X108617292Y143595638D01*
X108617292Y143595638D02*
X108712530Y143500400D01*
X108712530Y143500400D02*
X108855387Y143452780D01*
X108855387Y143452780D02*
X108950625Y143452780D01*
X108950625Y143452780D02*
X109093482Y143500400D01*
X109093482Y143500400D02*
X109141101Y143548019D01*
X109141101Y143548019D02*
X109141101Y143881352D01*
X109141101Y143881352D02*
X108950625Y143881352D01*
X109569673Y143452780D02*
X109569673Y144452780D01*
X109569673Y144452780D02*
X110141101Y143452780D01*
X110141101Y143452780D02*
X110141101Y144452780D01*
X110617292Y143452780D02*
X110617292Y144452780D01*
X110617292Y144452780D02*
X110855387Y144452780D01*
X110855387Y144452780D02*
X110998244Y144405161D01*
X110998244Y144405161D02*
X111093482Y144309923D01*
X111093482Y144309923D02*
X111141101Y144214685D01*
X111141101Y144214685D02*
X111188720Y144024209D01*
X111188720Y144024209D02*
X111188720Y143881352D01*
X111188720Y143881352D02*
X111141101Y143690876D01*
X111141101Y143690876D02*
X111093482Y143595638D01*
X111093482Y143595638D02*
X110998244Y143500400D01*
X110998244Y143500400D02*
X110855387Y143452780D01*
X110855387Y143452780D02*
X110617292Y143452780D01*
D13*
X90946620Y150719337D02*
X90946620Y150219337D01*
X90946620Y150219337D02*
X90913287Y150119337D01*
X90913287Y150119337D02*
X90846620Y150052671D01*
X90846620Y150052671D02*
X90746620Y150019337D01*
X90746620Y150019337D02*
X90679954Y150019337D01*
X91613287Y150019337D02*
X91279953Y150019337D01*
X91279953Y150019337D02*
X91279953Y150719337D01*
X92246620Y150086004D02*
X92213287Y150052671D01*
X92213287Y150052671D02*
X92113287Y150019337D01*
X92113287Y150019337D02*
X92046620Y150019337D01*
X92046620Y150019337D02*
X91946620Y150052671D01*
X91946620Y150052671D02*
X91879954Y150119337D01*
X91879954Y150119337D02*
X91846620Y150186004D01*
X91846620Y150186004D02*
X91813287Y150319337D01*
X91813287Y150319337D02*
X91813287Y150419337D01*
X91813287Y150419337D02*
X91846620Y150552671D01*
X91846620Y150552671D02*
X91879954Y150619337D01*
X91879954Y150619337D02*
X91946620Y150686004D01*
X91946620Y150686004D02*
X92046620Y150719337D01*
X92046620Y150719337D02*
X92113287Y150719337D01*
X92113287Y150719337D02*
X92213287Y150686004D01*
X92213287Y150686004D02*
X92246620Y150652671D01*
X92746620Y150719337D02*
X92746620Y150219337D01*
X92746620Y150219337D02*
X92713287Y150119337D01*
X92713287Y150119337D02*
X92646620Y150052671D01*
X92646620Y150052671D02*
X92546620Y150019337D01*
X92546620Y150019337D02*
X92479954Y150019337D01*
X93413287Y150019337D02*
X93079953Y150019337D01*
X93079953Y150019337D02*
X93079953Y150719337D01*
X94046620Y150086004D02*
X94013287Y150052671D01*
X94013287Y150052671D02*
X93913287Y150019337D01*
X93913287Y150019337D02*
X93846620Y150019337D01*
X93846620Y150019337D02*
X93746620Y150052671D01*
X93746620Y150052671D02*
X93679954Y150119337D01*
X93679954Y150119337D02*
X93646620Y150186004D01*
X93646620Y150186004D02*
X93613287Y150319337D01*
X93613287Y150319337D02*
X93613287Y150419337D01*
X93613287Y150419337D02*
X93646620Y150552671D01*
X93646620Y150552671D02*
X93679954Y150619337D01*
X93679954Y150619337D02*
X93746620Y150686004D01*
X93746620Y150686004D02*
X93846620Y150719337D01*
X93846620Y150719337D02*
X93913287Y150719337D01*
X93913287Y150719337D02*
X94013287Y150686004D01*
X94013287Y150686004D02*
X94046620Y150652671D01*
X94546620Y150719337D02*
X94546620Y150219337D01*
X94546620Y150219337D02*
X94513287Y150119337D01*
X94513287Y150119337D02*
X94446620Y150052671D01*
X94446620Y150052671D02*
X94346620Y150019337D01*
X94346620Y150019337D02*
X94279954Y150019337D01*
X95213287Y150019337D02*
X94879953Y150019337D01*
X94879953Y150019337D02*
X94879953Y150719337D01*
X95846620Y150086004D02*
X95813287Y150052671D01*
X95813287Y150052671D02*
X95713287Y150019337D01*
X95713287Y150019337D02*
X95646620Y150019337D01*
X95646620Y150019337D02*
X95546620Y150052671D01*
X95546620Y150052671D02*
X95479954Y150119337D01*
X95479954Y150119337D02*
X95446620Y150186004D01*
X95446620Y150186004D02*
X95413287Y150319337D01*
X95413287Y150319337D02*
X95413287Y150419337D01*
X95413287Y150419337D02*
X95446620Y150552671D01*
X95446620Y150552671D02*
X95479954Y150619337D01*
X95479954Y150619337D02*
X95546620Y150686004D01*
X95546620Y150686004D02*
X95646620Y150719337D01*
X95646620Y150719337D02*
X95713287Y150719337D01*
X95713287Y150719337D02*
X95813287Y150686004D01*
X95813287Y150686004D02*
X95846620Y150652671D01*
X96346620Y150719337D02*
X96346620Y150219337D01*
X96346620Y150219337D02*
X96313287Y150119337D01*
X96313287Y150119337D02*
X96246620Y150052671D01*
X96246620Y150052671D02*
X96146620Y150019337D01*
X96146620Y150019337D02*
X96079954Y150019337D01*
X97013287Y150019337D02*
X96679953Y150019337D01*
X96679953Y150019337D02*
X96679953Y150719337D01*
X97646620Y150086004D02*
X97613287Y150052671D01*
X97613287Y150052671D02*
X97513287Y150019337D01*
X97513287Y150019337D02*
X97446620Y150019337D01*
X97446620Y150019337D02*
X97346620Y150052671D01*
X97346620Y150052671D02*
X97279954Y150119337D01*
X97279954Y150119337D02*
X97246620Y150186004D01*
X97246620Y150186004D02*
X97213287Y150319337D01*
X97213287Y150319337D02*
X97213287Y150419337D01*
X97213287Y150419337D02*
X97246620Y150552671D01*
X97246620Y150552671D02*
X97279954Y150619337D01*
X97279954Y150619337D02*
X97346620Y150686004D01*
X97346620Y150686004D02*
X97446620Y150719337D01*
X97446620Y150719337D02*
X97513287Y150719337D01*
X97513287Y150719337D02*
X97613287Y150686004D01*
X97613287Y150686004D02*
X97646620Y150652671D01*
D12*
X106961460Y132481731D02*
X106485270Y132481731D01*
X106485270Y132481731D02*
X106485270Y133481731D01*
X107818603Y132481731D02*
X107247175Y132481731D01*
X107532889Y132481731D02*
X107532889Y133481731D01*
X107532889Y133481731D02*
X107437651Y133338874D01*
X107437651Y133338874D02*
X107342413Y133243636D01*
X107342413Y133243636D02*
X107247175Y133196017D01*
X158158378Y132481731D02*
X157682188Y132481731D01*
X157682188Y132481731D02*
X157682188Y133481731D01*
X158396474Y133481731D02*
X159015521Y133481731D01*
X159015521Y133481731D02*
X158682188Y133100779D01*
X158682188Y133100779D02*
X158825045Y133100779D01*
X158825045Y133100779D02*
X158920283Y133053160D01*
X158920283Y133053160D02*
X158967902Y133005541D01*
X158967902Y133005541D02*
X159015521Y132910303D01*
X159015521Y132910303D02*
X159015521Y132672208D01*
X159015521Y132672208D02*
X158967902Y132576970D01*
X158967902Y132576970D02*
X158920283Y132529351D01*
X158920283Y132529351D02*
X158825045Y132481731D01*
X158825045Y132481731D02*
X158539331Y132481731D01*
X158539331Y132481731D02*
X158444093Y132529351D01*
X158444093Y132529351D02*
X158396474Y132576970D01*
X132559919Y132481731D02*
X132083729Y132481731D01*
X132083729Y132481731D02*
X132083729Y133481731D01*
X132845634Y133386493D02*
X132893253Y133434112D01*
X132893253Y133434112D02*
X132988491Y133481731D01*
X132988491Y133481731D02*
X133226586Y133481731D01*
X133226586Y133481731D02*
X133321824Y133434112D01*
X133321824Y133434112D02*
X133369443Y133386493D01*
X133369443Y133386493D02*
X133417062Y133291255D01*
X133417062Y133291255D02*
X133417062Y133196017D01*
X133417062Y133196017D02*
X133369443Y133053160D01*
X133369443Y133053160D02*
X132798015Y132481731D01*
X132798015Y132481731D02*
X133417062Y132481731D01*
X-5245180Y128246666D02*
X-4530895Y128246666D01*
X-4530895Y128246666D02*
X-4388038Y128199047D01*
X-4388038Y128199047D02*
X-4292800Y128103809D01*
X-4292800Y128103809D02*
X-4245180Y127960952D01*
X-4245180Y127960952D02*
X-4245180Y127865714D01*
X-5149942Y128675238D02*
X-5197561Y128722857D01*
X-5197561Y128722857D02*
X-5245180Y128818095D01*
X-5245180Y128818095D02*
X-5245180Y129056190D01*
X-5245180Y129056190D02*
X-5197561Y129151428D01*
X-5197561Y129151428D02*
X-5149942Y129199047D01*
X-5149942Y129199047D02*
X-5054704Y129246666D01*
X-5054704Y129246666D02*
X-4959466Y129246666D01*
X-4959466Y129246666D02*
X-4816609Y129199047D01*
X-4816609Y129199047D02*
X-4245180Y128627619D01*
X-4245180Y128627619D02*
X-4245180Y129246666D01*
%TO.C,L1*%
D14*
X105568127Y131212551D02*
X105568127Y131056551D01*
X105568127Y128896551D02*
X105568127Y128740551D01*
X105568127Y131212067D02*
G75*
G02*
X108799564Y131056551I1560000J-1235516D01*
G01*
X106087166Y131056551D02*
G75*
G02*
X108169088Y131056551I1040961J-1080000D01*
G01*
X108169088Y128896551D02*
G75*
G02*
X106087166Y128896551I-1040961J1080000D01*
G01*
X108799564Y128896551D02*
G75*
G02*
X105568127Y128741035I-1671437J1080000D01*
G01*
%TO.C,L3*%
X156765045Y131212551D02*
X156765045Y131056551D01*
X156765045Y128896551D02*
X156765045Y128740551D01*
X156765045Y131212067D02*
G75*
G02*
X159996482Y131056551I1560000J-1235516D01*
G01*
X157284084Y131056551D02*
G75*
G02*
X159366006Y131056551I1040961J-1080000D01*
G01*
X159366006Y128896551D02*
G75*
G02*
X157284084Y128896551I-1040961J1080000D01*
G01*
X159996482Y128896551D02*
G75*
G02*
X156765045Y128741035I-1671437J1080000D01*
G01*
%TO.C,L2*%
X131166586Y131212551D02*
X131166586Y131056551D01*
X131166586Y128896551D02*
X131166586Y128740551D01*
X131166586Y131212067D02*
G75*
G02*
X134398023Y131056551I1560000J-1235516D01*
G01*
X131685625Y131056551D02*
G75*
G02*
X133767547Y131056551I1040961J-1080000D01*
G01*
X133767547Y128896551D02*
G75*
G02*
X131685625Y128896551I-1040961J1080000D01*
G01*
X134398023Y128896551D02*
G75*
G02*
X131166586Y128741035I-1671437J1080000D01*
G01*
%TO.C,J13*%
X116240000Y146720000D02*
G75*
G02*
X112840000Y146720000I-1700000J0D01*
G01*
X112840000Y146720000D02*
G75*
G02*
X116240000Y146720000I1700000J0D01*
G01*
%TO.C,J14*%
X120890000Y146720000D02*
G75*
G02*
X117490000Y146720000I-1700000J0D01*
G01*
X117490000Y146720000D02*
G75*
G02*
X120890000Y146720000I1700000J0D01*
G01*
D15*
%TO.C,J12*%
G36*
X-161533562Y23584879D02*
G01*
X-161536962Y23581480D01*
X-161540361Y23584879D01*
X-161536962Y23588278D01*
X-161533562Y23584879D01*
G37*
G36*
X-161512413Y23602817D02*
G01*
X-161515813Y23599418D01*
X-161519212Y23602817D01*
X-161515813Y23606216D01*
X-161512413Y23602817D01*
G37*
%TO.C,J15*%
D14*
X125540000Y146720000D02*
G75*
G02*
X122140000Y146720000I-1700000J0D01*
G01*
X122140000Y146720000D02*
G75*
G02*
X125540000Y146720000I1700000J0D01*
G01*
%TO.C,J2*%
X-18960000Y129910000D02*
X-18960000Y127250000D01*
X-8740000Y129910000D02*
X-18960000Y129910000D01*
X-8740000Y129910000D02*
X-8740000Y127250000D01*
X-8740000Y127250000D02*
X-18960000Y127250000D01*
X-6140000Y128580000D02*
X-6140000Y127250000D01*
X-6140000Y127250000D02*
X-7470000Y127250000D01*
%TO.C,J55*%
X111590000Y146720000D02*
G75*
G02*
X108190000Y146720000I-1700000J0D01*
G01*
X108190000Y146720000D02*
G75*
G02*
X111590000Y146720000I1700000J0D01*
G01*
%TO.C,J6*%
X7950000Y111050000D02*
G75*
G02*
X4550000Y111050000I-1700000J0D01*
G01*
X4550000Y111050000D02*
G75*
G02*
X7950000Y111050000I1700000J0D01*
G01*
%TO.C,J4*%
X89490000Y148680036D02*
X89490000Y150680036D01*
X98890000Y148680036D02*
X98890000Y150680036D01*
%TO.C,J1*%
X-1350000Y111050000D02*
G75*
G02*
X-4750000Y111050000I-1700000J0D01*
G01*
X-4750000Y111050000D02*
G75*
G02*
X-1350000Y111050000I1700000J0D01*
G01*
%TO.C,J5*%
X3300000Y111050000D02*
G75*
G02*
X-100000Y111050000I-1700000J0D01*
G01*
X-100000Y111050000D02*
G75*
G02*
X3300000Y111050000I1700000J0D01*
G01*
%TD*%
%LPC*%
D15*
%TO.C,J12*%
G36*
X-153211816Y24547588D02*
G01*
X-153198435Y24545257D01*
X-153160230Y24534153D01*
X-153122451Y24518139D01*
X-153089706Y24499432D01*
X-153069413Y24483209D01*
X-153052973Y24462722D01*
X-153037822Y24437045D01*
X-153026385Y24411016D01*
X-153021083Y24389474D01*
X-153020967Y24386443D01*
X-153025388Y24364510D01*
X-153036454Y24338388D01*
X-153051396Y24313696D01*
X-153064078Y24298936D01*
X-153081702Y24282595D01*
X-153062079Y24269406D01*
X-153049453Y24259278D01*
X-153038950Y24246488D01*
X-153030267Y24229623D01*
X-153023098Y24207272D01*
X-153017139Y24178021D01*
X-153012086Y24140457D01*
X-153007633Y24093168D01*
X-153003475Y24034741D01*
X-153000412Y23983545D01*
X-152989898Y23822774D01*
X-152977310Y23675089D01*
X-152962609Y23540133D01*
X-152945757Y23417549D01*
X-152928674Y23317271D01*
X-152923784Y23291655D01*
X-152919294Y23269316D01*
X-152914601Y23247749D01*
X-152909103Y23224451D01*
X-152902198Y23196917D01*
X-152893283Y23162641D01*
X-152881755Y23119121D01*
X-152874083Y23090339D01*
X-152861534Y23042059D01*
X-152852891Y23004570D01*
X-152848097Y22975657D01*
X-152847096Y22953105D01*
X-152849833Y22934698D01*
X-152856251Y22918219D01*
X-152866296Y22901453D01*
X-152869211Y22897181D01*
X-152895191Y22870149D01*
X-152926875Y22855320D01*
X-152963658Y22852851D01*
X-153003053Y22862203D01*
X-153027489Y22874182D01*
X-153047179Y22891585D01*
X-153063853Y22916722D01*
X-153079243Y22951903D01*
X-153087160Y22974473D01*
X-153106275Y23037103D01*
X-153125744Y23109960D01*
X-153144863Y23189714D01*
X-153162930Y23273035D01*
X-153179242Y23356594D01*
X-153193097Y23437061D01*
X-153203790Y23511107D01*
X-153207949Y23546728D01*
X-153211995Y23574995D01*
X-153216773Y23589903D01*
X-153222241Y23591373D01*
X-153227244Y23582405D01*
X-153235462Y23568403D01*
X-153250606Y23548355D01*
X-153269770Y23525601D01*
X-153290047Y23503486D01*
X-153308528Y23485351D01*
X-153319471Y23476367D01*
X-153335958Y23464425D01*
X-153348142Y23454911D01*
X-153350065Y23453222D01*
X-153359911Y23446810D01*
X-153377816Y23437299D01*
X-153394178Y23429426D01*
X-153415590Y23420704D01*
X-153436318Y23415524D01*
X-153461202Y23413052D01*
X-153492760Y23412453D01*
X-153524540Y23412987D01*
X-153547618Y23415219D01*
X-153566872Y23420094D01*
X-153587175Y23428557D01*
X-153594817Y23432240D01*
X-153633114Y23456695D01*
X-153672023Y23491782D01*
X-153709156Y23534869D01*
X-153742124Y23583327D01*
X-153757894Y23611862D01*
X-153784660Y23670448D01*
X-153803706Y23726791D01*
X-153815745Y23784490D01*
X-153821493Y23847148D01*
X-153821608Y23895198D01*
X-153583696Y23895198D01*
X-153583228Y23851212D01*
X-153579545Y23814062D01*
X-153578655Y23809163D01*
X-153567658Y23769486D01*
X-153551108Y23729476D01*
X-153531328Y23694100D01*
X-153514767Y23672504D01*
X-153497658Y23657773D01*
X-153482866Y23654733D01*
X-153467618Y23662306D01*
X-153451691Y23678165D01*
X-153432051Y23703690D01*
X-153410531Y23736131D01*
X-153388965Y23772737D01*
X-153370711Y23807627D01*
X-153347646Y23857874D01*
X-153326639Y23910792D01*
X-153306519Y23969636D01*
X-153286115Y24037664D01*
X-153279382Y24061730D01*
X-153265188Y24113010D01*
X-153253906Y24152918D01*
X-153244889Y24183205D01*
X-153237487Y24205623D01*
X-153231052Y24221923D01*
X-153224935Y24233855D01*
X-153218487Y24243170D01*
X-153211059Y24251621D01*
X-153207756Y24255061D01*
X-153194139Y24269575D01*
X-153185539Y24279689D01*
X-153183987Y24282250D01*
X-153189728Y24286019D01*
X-153204344Y24292580D01*
X-153214628Y24296665D01*
X-153250183Y24305011D01*
X-153287570Y24302856D01*
X-153328820Y24289877D01*
X-153363588Y24272802D01*
X-153426607Y24231340D01*
X-153478967Y24182091D01*
X-153521363Y24124188D01*
X-153554491Y24056766D01*
X-153568321Y24017539D01*
X-153575991Y23983424D01*
X-153581200Y23940956D01*
X-153583696Y23895198D01*
X-153821608Y23895198D01*
X-153821664Y23918363D01*
X-153821215Y23930947D01*
X-153818972Y23974403D01*
X-153815775Y24008689D01*
X-153810961Y24038227D01*
X-153803866Y24067443D01*
X-153797542Y24088925D01*
X-153785790Y24123365D01*
X-153771486Y24159763D01*
X-153756018Y24195091D01*
X-153740778Y24226320D01*
X-153727155Y24250424D01*
X-153717335Y24263615D01*
X-153708965Y24273598D01*
X-153695704Y24291097D01*
X-153680353Y24312414D01*
X-153679622Y24313455D01*
X-153665245Y24333211D01*
X-153653733Y24347675D01*
X-153647336Y24354038D01*
X-153647014Y24354125D01*
X-153640457Y24358471D01*
X-153626715Y24369963D01*
X-153608442Y24386357D01*
X-153603273Y24391147D01*
X-153552605Y24432913D01*
X-153496424Y24469639D01*
X-153436987Y24500465D01*
X-153376551Y24524532D01*
X-153317372Y24540981D01*
X-153261708Y24548953D01*
X-153211816Y24547588D01*
G37*
G36*
X-152259309Y24893288D02*
G01*
X-152222987Y24890493D01*
X-152195808Y24884554D01*
X-152175591Y24874701D01*
X-152160155Y24860163D01*
X-152147321Y24840170D01*
X-152145483Y24836649D01*
X-152133257Y24804692D01*
X-152131844Y24774758D01*
X-152141191Y24742117D01*
X-152144367Y24734803D01*
X-152158250Y24704209D01*
X-152142518Y24694011D01*
X-152116173Y24673516D01*
X-152095588Y24649003D01*
X-152080094Y24618662D01*
X-152069024Y24580683D01*
X-152061708Y24533253D01*
X-152057477Y24474565D01*
X-152056983Y24462429D01*
X-152057758Y24355061D01*
X-152068707Y24253973D01*
X-152090440Y24155780D01*
X-152123569Y24057096D01*
X-152135465Y24027737D01*
X-152148741Y23996482D01*
X-152160750Y23968857D01*
X-152170189Y23947819D01*
X-152175754Y23936324D01*
X-152175819Y23936207D01*
X-152178070Y23929788D01*
X-152175878Y23923303D01*
X-152167509Y23915161D01*
X-152151232Y23903776D01*
X-152125314Y23887558D01*
X-152117669Y23882893D01*
X-152064701Y23850118D01*
X-152022650Y23822845D01*
X-151990376Y23800281D01*
X-151966744Y23781632D01*
X-151951184Y23766735D01*
X-151927270Y23740150D01*
X-151910247Y23720263D01*
X-151897633Y23703917D01*
X-151886950Y23687956D01*
X-151878995Y23674816D01*
X-151854550Y23620332D01*
X-151841303Y23560122D01*
X-151839217Y23496114D01*
X-151848254Y23430240D01*
X-151868375Y23364430D01*
X-151885863Y23325561D01*
X-151913584Y23282367D01*
X-151951687Y23239207D01*
X-151997182Y23198583D01*
X-152047080Y23162998D01*
X-152098390Y23134955D01*
X-152127687Y23123109D01*
X-152159597Y23115067D01*
X-152199701Y23109271D01*
X-152243004Y23106051D01*
X-152284511Y23105734D01*
X-152319228Y23108652D01*
X-152326612Y23109999D01*
X-152367140Y23122558D01*
X-152409486Y23142276D01*
X-152447933Y23166201D01*
X-152469263Y23183678D01*
X-152485774Y23198652D01*
X-152498453Y23208882D01*
X-152503756Y23211891D01*
X-152510275Y23217332D01*
X-152521695Y23231796D01*
X-152536185Y23252492D01*
X-152551911Y23276631D01*
X-152567042Y23301422D01*
X-152579744Y23324076D01*
X-152586559Y23337952D01*
X-152600346Y23382466D01*
X-152605524Y23434792D01*
X-152604758Y23448079D01*
X-152360388Y23448079D01*
X-152352583Y23410932D01*
X-152335549Y23382698D01*
X-152324332Y23372414D01*
X-152307178Y23360706D01*
X-152290623Y23353709D01*
X-152270030Y23350135D01*
X-152240761Y23348698D01*
X-152238753Y23348654D01*
X-152215047Y23349430D01*
X-152195670Y23354173D01*
X-152174479Y23364747D01*
X-152163217Y23371590D01*
X-152125819Y23401919D01*
X-152097834Y23439200D01*
X-152080727Y23480972D01*
X-152075834Y23518367D01*
X-152082001Y23543555D01*
X-152099741Y23571606D01*
X-152127763Y23600979D01*
X-152164776Y23630133D01*
X-152175524Y23637364D01*
X-152212136Y23660438D01*
X-152244217Y23679123D01*
X-152270113Y23692562D01*
X-152288174Y23699897D01*
X-152296728Y23700292D01*
X-152300236Y23692807D01*
X-152307157Y23675031D01*
X-152316522Y23649542D01*
X-152327365Y23618919D01*
X-152328475Y23615725D01*
X-152348329Y23550203D01*
X-152358968Y23494412D01*
X-152360388Y23448079D01*
X-152604758Y23448079D01*
X-152602029Y23495385D01*
X-152589797Y23564702D01*
X-152568765Y23643199D01*
X-152538870Y23731332D01*
X-152527479Y23761494D01*
X-152497716Y23838586D01*
X-152519612Y23856546D01*
X-152568810Y23901596D01*
X-152617479Y23954752D01*
X-152662849Y24012459D01*
X-152702147Y24071161D01*
X-152732605Y24127305D01*
X-152735420Y24133448D01*
X-152762670Y24207003D01*
X-152780362Y24283446D01*
X-152788087Y24359686D01*
X-152787949Y24363472D01*
X-152543791Y24363472D01*
X-152537956Y24303095D01*
X-152523500Y24247907D01*
X-152517533Y24233108D01*
X-152503740Y24206023D01*
X-152485882Y24176853D01*
X-152465537Y24147526D01*
X-152444281Y24119968D01*
X-152423689Y24096106D01*
X-152405339Y24077866D01*
X-152390807Y24067175D01*
X-152381670Y24065961D01*
X-152381143Y24066405D01*
X-152375906Y24075197D01*
X-152367185Y24093442D01*
X-152356472Y24117938D01*
X-152350935Y24131282D01*
X-152335578Y24169704D01*
X-152323450Y24202703D01*
X-152314169Y24232706D01*
X-152307356Y24262139D01*
X-152302628Y24293425D01*
X-152299604Y24328991D01*
X-152297904Y24371262D01*
X-152297146Y24422663D01*
X-152296959Y24474740D01*
X-152296755Y24653195D01*
X-152331214Y24653207D01*
X-152381816Y24648106D01*
X-152425032Y24632325D01*
X-152461873Y24605201D01*
X-152493351Y24566071D01*
X-152510493Y24535741D01*
X-152529966Y24483794D01*
X-152541097Y24425038D01*
X-152543791Y24363472D01*
X-152787949Y24363472D01*
X-152785434Y24432633D01*
X-152779812Y24468267D01*
X-152769143Y24512592D01*
X-152755249Y24558989D01*
X-152739262Y24604506D01*
X-152722314Y24646191D01*
X-152705539Y24681092D01*
X-152690069Y24706258D01*
X-152686983Y24710160D01*
X-152679127Y24719155D01*
X-152665522Y24734449D01*
X-152653518Y24747832D01*
X-152639063Y24764725D01*
X-152629257Y24777781D01*
X-152626492Y24783199D01*
X-152621312Y24789616D01*
X-152607919Y24800668D01*
X-152594199Y24810513D01*
X-152576060Y24823163D01*
X-152562905Y24832907D01*
X-152558505Y24836693D01*
X-152548867Y24842938D01*
X-152529577Y24851693D01*
X-152504038Y24861646D01*
X-152475647Y24871489D01*
X-152447805Y24879912D01*
X-152442927Y24881226D01*
X-152406757Y24888030D01*
X-152359589Y24892170D01*
X-152306953Y24893710D01*
X-152259309Y24893288D01*
G37*
G36*
X-157696357Y24025787D02*
G01*
X-157660144Y24019132D01*
X-157649716Y24015716D01*
X-157616603Y23998082D01*
X-157583247Y23971724D01*
X-157554261Y23940620D01*
X-157541499Y23922357D01*
X-157524967Y23895162D01*
X-157522861Y23596018D01*
X-157522512Y23517155D01*
X-157522595Y23444026D01*
X-157523091Y23378015D01*
X-157523980Y23320500D01*
X-157525244Y23272865D01*
X-157526862Y23236489D01*
X-157528174Y23218690D01*
X-157544485Y23088991D01*
X-157569375Y22951400D01*
X-157602358Y22808164D01*
X-157642950Y22661527D01*
X-157661061Y22602889D01*
X-157678464Y22547449D01*
X-157692079Y22501782D01*
X-157702550Y22462808D01*
X-157710520Y22427445D01*
X-157716635Y22392613D01*
X-157721536Y22355229D01*
X-157725869Y22312214D01*
X-157728755Y22278951D01*
X-157740334Y22127841D01*
X-157750185Y21971922D01*
X-157758355Y21809852D01*
X-157764893Y21640292D01*
X-157769845Y21461900D01*
X-157773260Y21273338D01*
X-157775185Y21073263D01*
X-157775605Y20968315D01*
X-157775754Y20876830D01*
X-157775718Y20797824D01*
X-157775438Y20730180D01*
X-157774856Y20672780D01*
X-157773914Y20624508D01*
X-157772552Y20584244D01*
X-157770712Y20550873D01*
X-157768336Y20523275D01*
X-157765364Y20500335D01*
X-157761738Y20480934D01*
X-157757400Y20463955D01*
X-157752291Y20448280D01*
X-157747684Y20436117D01*
X-157734753Y20412604D01*
X-157718357Y20401486D01*
X-157696281Y20401622D01*
X-157686103Y20404335D01*
X-157660990Y20415357D01*
X-157628222Y20434491D01*
X-157589876Y20460349D01*
X-157569023Y20475894D01*
X-156933870Y20475894D01*
X-156932220Y20472675D01*
X-156925612Y20472009D01*
X-156925464Y20472009D01*
X-156915387Y20472636D01*
X-156893707Y20474404D01*
X-156862358Y20477140D01*
X-156823271Y20480674D01*
X-156778377Y20484832D01*
X-156732568Y20489161D01*
X-156610433Y20500966D01*
X-156501701Y20511804D01*
X-156406214Y20521695D01*
X-156323811Y20530656D01*
X-156254335Y20538708D01*
X-156197627Y20545869D01*
X-156153528Y20552159D01*
X-156121879Y20557595D01*
X-156102522Y20562199D01*
X-156095537Y20565564D01*
X-156092317Y20571589D01*
X-156089930Y20581123D01*
X-156088367Y20595516D01*
X-156087620Y20616118D01*
X-156087682Y20644279D01*
X-156088543Y20681350D01*
X-156090196Y20728679D01*
X-156092633Y20787618D01*
X-156094004Y20818743D01*
X-156098349Y20901902D01*
X-156103716Y20975427D01*
X-156110557Y21043267D01*
X-156119322Y21109374D01*
X-156130461Y21177698D01*
X-156142076Y21240173D01*
X-156149527Y21276979D01*
X-156158594Y21319300D01*
X-156168778Y21365055D01*
X-156179583Y21412159D01*
X-156190511Y21458533D01*
X-156201063Y21502093D01*
X-156210744Y21540757D01*
X-156219054Y21572443D01*
X-156225498Y21595069D01*
X-156229576Y21606552D01*
X-156229659Y21606708D01*
X-156234484Y21608850D01*
X-156240356Y21598501D01*
X-156243446Y21589712D01*
X-156251082Y21569975D01*
X-156264303Y21540080D01*
X-156282203Y21501814D01*
X-156303875Y21456964D01*
X-156328413Y21407319D01*
X-156354909Y21354667D01*
X-156382456Y21300797D01*
X-156410149Y21247495D01*
X-156437080Y21196550D01*
X-156462342Y21149750D01*
X-156485028Y21108884D01*
X-156503422Y21077094D01*
X-156524327Y21042661D01*
X-156548405Y21004053D01*
X-156574518Y20962989D01*
X-156601528Y20921190D01*
X-156628298Y20880375D01*
X-156653690Y20842265D01*
X-156676566Y20808579D01*
X-156695787Y20781038D01*
X-156710216Y20761361D01*
X-156718715Y20751270D01*
X-156719319Y20750756D01*
X-156725133Y20743863D01*
X-156736342Y20728862D01*
X-156750638Y20708850D01*
X-156752238Y20706564D01*
X-156769595Y20682117D01*
X-156786866Y20658435D01*
X-156799319Y20641935D01*
X-156835476Y20595895D01*
X-156864409Y20559830D01*
X-156886926Y20532745D01*
X-156898469Y20519522D01*
X-156918054Y20497452D01*
X-156929501Y20483531D01*
X-156933870Y20475894D01*
X-157569023Y20475894D01*
X-157548028Y20491545D01*
X-157511575Y20520954D01*
X-157493985Y20536644D01*
X-157469212Y20560114D01*
X-157438979Y20589605D01*
X-157405010Y20623361D01*
X-157369029Y20659625D01*
X-157332760Y20696638D01*
X-157297925Y20732646D01*
X-157266249Y20765889D01*
X-157239455Y20794612D01*
X-157219266Y20817057D01*
X-157208826Y20829576D01*
X-157198606Y20842988D01*
X-157184627Y20861505D01*
X-157178347Y20869868D01*
X-157158404Y20896118D01*
X-157142498Y20916019D01*
X-157126800Y20934313D01*
X-157121466Y20940300D01*
X-157104168Y20961534D01*
X-157081220Y20992594D01*
X-157053855Y21031582D01*
X-157023303Y21076594D01*
X-156990794Y21125731D01*
X-156957561Y21177091D01*
X-156924835Y21228773D01*
X-156893845Y21278876D01*
X-156865823Y21325499D01*
X-156842001Y21366741D01*
X-156824662Y21398662D01*
X-156806726Y21432830D01*
X-156786684Y21470370D01*
X-156768190Y21504453D01*
X-156763973Y21512110D01*
X-156748681Y21541483D01*
X-156729481Y21581041D01*
X-156707464Y21628326D01*
X-156683718Y21680877D01*
X-156659331Y21736232D01*
X-156635392Y21791933D01*
X-156612990Y21845519D01*
X-156593214Y21894529D01*
X-156582454Y21922314D01*
X-156556283Y21992746D01*
X-156534948Y22053872D01*
X-156517665Y22108769D01*
X-156503649Y22160513D01*
X-156492117Y22212181D01*
X-156482285Y22266849D01*
X-156473369Y22327593D01*
X-156467502Y22373335D01*
X-156462574Y22412527D01*
X-156457905Y22448038D01*
X-156453859Y22477219D01*
X-156450800Y22497417D01*
X-156449434Y22504824D01*
X-156436144Y22540041D01*
X-156414031Y22575611D01*
X-156398752Y22593812D01*
X-156355823Y22630683D01*
X-156309102Y22654987D01*
X-156259917Y22666571D01*
X-156209597Y22665279D01*
X-156159469Y22650959D01*
X-156115429Y22626674D01*
X-156098225Y22613654D01*
X-156083151Y22599113D01*
X-156069532Y22581581D01*
X-156056695Y22559588D01*
X-156043966Y22531663D01*
X-156030670Y22496337D01*
X-156016135Y22452139D01*
X-155999686Y22397599D01*
X-155981670Y22334857D01*
X-155969797Y22293028D01*
X-155955317Y22242227D01*
X-155939399Y22186543D01*
X-155923211Y22130064D01*
X-155907922Y22076881D01*
X-155905855Y22069707D01*
X-155867427Y21935252D01*
X-155833080Y21812522D01*
X-155802584Y21700344D01*
X-155775711Y21597544D01*
X-155752230Y21502952D01*
X-155731912Y21415394D01*
X-155714528Y21333698D01*
X-155699848Y21256692D01*
X-155687644Y21183204D01*
X-155677686Y21112062D01*
X-155669743Y21042092D01*
X-155663588Y20972123D01*
X-155658990Y20900983D01*
X-155655720Y20827499D01*
X-155654374Y20784513D01*
X-155652927Y20737680D01*
X-155651283Y20695217D01*
X-155649544Y20659060D01*
X-155647811Y20631145D01*
X-155646187Y20613409D01*
X-155645082Y20607918D01*
X-155639012Y20605740D01*
X-155623884Y20605296D01*
X-155598712Y20606649D01*
X-155562512Y20609863D01*
X-155514299Y20615002D01*
X-155488081Y20617998D01*
X-155360627Y20632893D01*
X-155238906Y20647330D01*
X-155121549Y20661490D01*
X-155007188Y20675558D01*
X-154894455Y20689717D01*
X-154781980Y20704149D01*
X-154668397Y20719037D01*
X-154552335Y20734566D01*
X-154432427Y20750917D01*
X-154307304Y20768274D01*
X-154175599Y20786820D01*
X-154035941Y20806739D01*
X-153886964Y20828212D01*
X-153727298Y20851424D01*
X-153555576Y20876558D01*
X-153554517Y20876713D01*
X-153300339Y20913894D01*
X-153055856Y20949402D01*
X-152821357Y20983198D01*
X-152597128Y21015242D01*
X-152383458Y21045494D01*
X-152180633Y21073916D01*
X-151988942Y21100466D01*
X-151808673Y21125107D01*
X-151640113Y21147797D01*
X-151483550Y21168498D01*
X-151339270Y21187169D01*
X-151207563Y21203772D01*
X-151088716Y21218267D01*
X-150988002Y21230046D01*
X-150943784Y21235223D01*
X-150888647Y21241891D01*
X-150825147Y21249725D01*
X-150755840Y21258399D01*
X-150683281Y21267586D01*
X-150610027Y21276961D01*
X-150538634Y21286197D01*
X-150471657Y21294969D01*
X-150411654Y21302950D01*
X-150361180Y21309815D01*
X-150345523Y21311993D01*
X-150248880Y21325513D01*
X-150164263Y21337229D01*
X-150090239Y21347280D01*
X-150025377Y21355807D01*
X-149968245Y21362948D01*
X-149917410Y21368844D01*
X-149871441Y21373633D01*
X-149828905Y21377456D01*
X-149788371Y21380451D01*
X-149748406Y21382759D01*
X-149707579Y21384518D01*
X-149664457Y21385868D01*
X-149617609Y21386950D01*
X-149566427Y21387887D01*
X-149506353Y21388860D01*
X-149458347Y21389479D01*
X-149420879Y21389688D01*
X-149392424Y21389429D01*
X-149371454Y21388646D01*
X-149356442Y21387282D01*
X-149345859Y21385278D01*
X-149338180Y21382579D01*
X-149331875Y21379127D01*
X-149331871Y21379124D01*
X-149299122Y21353457D01*
X-149267507Y21319784D01*
X-149241681Y21283235D01*
X-149236623Y21274150D01*
X-149226220Y21252149D01*
X-149220274Y21232268D01*
X-149217610Y21209008D01*
X-149217050Y21182474D01*
X-149217926Y21150731D01*
X-149221476Y21126347D01*
X-149228942Y21103163D01*
X-149236531Y21085710D01*
X-149252923Y21054918D01*
X-149271955Y21029627D01*
X-149295114Y21009229D01*
X-149323889Y20993120D01*
X-149359767Y20980694D01*
X-149404236Y20971345D01*
X-149458783Y20964468D01*
X-149524898Y20959457D01*
X-149550074Y20958081D01*
X-149595805Y20955662D01*
X-149639098Y20953110D01*
X-149681180Y20950287D01*
X-149723281Y20947061D01*
X-149766627Y20943295D01*
X-149812445Y20938854D01*
X-149861964Y20933605D01*
X-149916411Y20927411D01*
X-149977014Y20920139D01*
X-150045001Y20911653D01*
X-150121599Y20901817D01*
X-150208035Y20890499D01*
X-150305538Y20877561D01*
X-150410111Y20863571D01*
X-150472709Y20855234D01*
X-150538481Y20846583D01*
X-150604267Y20838025D01*
X-150666906Y20829970D01*
X-150723239Y20822824D01*
X-150770105Y20816996D01*
X-150780641Y20815712D01*
X-150886198Y20802878D01*
X-150991314Y20790021D01*
X-151094645Y20777308D01*
X-151194843Y20764909D01*
X-151290564Y20752992D01*
X-151380462Y20741725D01*
X-151463189Y20731278D01*
X-151537401Y20721818D01*
X-151601752Y20713514D01*
X-151654894Y20706535D01*
X-151684870Y20702505D01*
X-151799734Y20686758D01*
X-151926440Y20669221D01*
X-152063385Y20650123D01*
X-152208964Y20629692D01*
X-152361574Y20608156D01*
X-152519609Y20585746D01*
X-152681466Y20562690D01*
X-152845542Y20539217D01*
X-153010231Y20515555D01*
X-153173930Y20491934D01*
X-153335035Y20468583D01*
X-153491941Y20445729D01*
X-153643044Y20423603D01*
X-153751680Y20407612D01*
X-153882763Y20388338D01*
X-154004855Y20370551D01*
X-154119690Y20354020D01*
X-154229002Y20338516D01*
X-154334524Y20323808D01*
X-154437990Y20309669D01*
X-154541132Y20295868D01*
X-154645686Y20282175D01*
X-154753384Y20268361D01*
X-154865960Y20254197D01*
X-154985147Y20239454D01*
X-155112679Y20223900D01*
X-155250290Y20207308D01*
X-155396969Y20189774D01*
X-155455107Y20182791D01*
X-155509270Y20176177D01*
X-155557910Y20170130D01*
X-155599476Y20164846D01*
X-155632420Y20160524D01*
X-155655192Y20157359D01*
X-155666243Y20155551D01*
X-155666798Y20155407D01*
X-155673546Y20151335D01*
X-155679494Y20142562D01*
X-155685128Y20127395D01*
X-155690933Y20104144D01*
X-155697395Y20071116D01*
X-155704998Y20026621D01*
X-155706650Y20016495D01*
X-155732801Y19873924D01*
X-155764681Y19731993D01*
X-155801655Y19592699D01*
X-155843090Y19458039D01*
X-155888353Y19330008D01*
X-155936809Y19210603D01*
X-155987825Y19101822D01*
X-156010899Y19057876D01*
X-156030380Y19022998D01*
X-156052168Y18985449D01*
X-156074857Y18947502D01*
X-156097042Y18911431D01*
X-156117316Y18879509D01*
X-156134274Y18854008D01*
X-156146509Y18837202D01*
X-156149675Y18833518D01*
X-156159688Y18821412D01*
X-156172423Y18804109D01*
X-156175597Y18799525D01*
X-156198586Y18768929D01*
X-156229782Y18731886D01*
X-156266960Y18690670D01*
X-156307898Y18647560D01*
X-156350372Y18604832D01*
X-156392158Y18564763D01*
X-156431035Y18529628D01*
X-156464777Y18501706D01*
X-156471166Y18496850D01*
X-156488465Y18483443D01*
X-156501563Y18472371D01*
X-156505159Y18468834D01*
X-156512650Y18462541D01*
X-156529333Y18449764D01*
X-156553323Y18431908D01*
X-156582734Y18410376D01*
X-156613939Y18387825D01*
X-156646446Y18364366D01*
X-156675043Y18343525D01*
X-156697929Y18326632D01*
X-156713298Y18315019D01*
X-156719319Y18310057D01*
X-156725909Y18305202D01*
X-156742026Y18294526D01*
X-156765607Y18279326D01*
X-156794593Y18260899D01*
X-156826923Y18240541D01*
X-156860536Y18219549D01*
X-156893373Y18199218D01*
X-156923372Y18180846D01*
X-156948473Y18165729D01*
X-156952492Y18163347D01*
X-157123288Y18069315D01*
X-157305034Y17982353D01*
X-157496908Y17902730D01*
X-157698086Y17830713D01*
X-157907746Y17766569D01*
X-158125065Y17710566D01*
X-158349219Y17662971D01*
X-158579387Y17624052D01*
X-158636557Y17615876D01*
X-158706879Y17606306D01*
X-158770072Y17598066D01*
X-158827883Y17591053D01*
X-158882061Y17585161D01*
X-158934352Y17580287D01*
X-158986504Y17576325D01*
X-159040266Y17573172D01*
X-159097385Y17570722D01*
X-159159609Y17568871D01*
X-159228685Y17567515D01*
X-159306362Y17566548D01*
X-159394386Y17565866D01*
X-159479597Y17565429D01*
X-159556771Y17565196D01*
X-159632726Y17565162D01*
X-159705870Y17565316D01*
X-159774615Y17565646D01*
X-159837370Y17566140D01*
X-159892546Y17566786D01*
X-159938553Y17567571D01*
X-159973801Y17568485D01*
X-159992900Y17569284D01*
X-160179057Y17582003D01*
X-160377394Y17600201D01*
X-160587660Y17623850D01*
X-160809602Y17652922D01*
X-161005909Y17681671D01*
X-161157394Y17705826D01*
X-161296815Y17730179D01*
X-161425703Y17755137D01*
X-161545590Y17781106D01*
X-161658008Y17808494D01*
X-161764489Y17837705D01*
X-161866564Y17869147D01*
X-161965764Y17903226D01*
X-162063622Y17940348D01*
X-162161669Y17980920D01*
X-162204983Y17999844D01*
X-162253561Y18022346D01*
X-162306402Y18048470D01*
X-162361108Y18076890D01*
X-162415281Y18106278D01*
X-162466523Y18135307D01*
X-162512436Y18162650D01*
X-162550621Y18186978D01*
X-162577445Y18206005D01*
X-162591939Y18217122D01*
X-162613305Y18233410D01*
X-162637567Y18251840D01*
X-162644399Y18257019D01*
X-162683675Y18289726D01*
X-162725938Y18329886D01*
X-162767117Y18373326D01*
X-162803140Y18415878D01*
X-162815999Y18432818D01*
X-162857189Y18499078D01*
X-162891490Y18574300D01*
X-162910460Y18630300D01*
X-162918605Y18659895D01*
X-162923984Y18685347D01*
X-162927128Y18711047D01*
X-162928566Y18741381D01*
X-162928757Y18770293D01*
X-162490443Y18770293D01*
X-162481251Y18730418D01*
X-162474560Y18715436D01*
X-162457728Y18690001D01*
X-162432687Y18659960D01*
X-162402399Y18628462D01*
X-162369825Y18598656D01*
X-162348655Y18581548D01*
X-162330564Y18567691D01*
X-162316505Y18556736D01*
X-162311262Y18552506D01*
X-162292042Y18538406D01*
X-162262894Y18519892D01*
X-162226215Y18498296D01*
X-162184402Y18474948D01*
X-162139850Y18451179D01*
X-162094957Y18428321D01*
X-162052120Y18407703D01*
X-162042713Y18403373D01*
X-161896756Y18341574D01*
X-161746117Y18287271D01*
X-161588793Y18239859D01*
X-161422781Y18198730D01*
X-161254062Y18164721D01*
X-160975176Y18117345D01*
X-160702375Y18077426D01*
X-160436885Y18045113D01*
X-160179930Y18020556D01*
X-159938511Y18004208D01*
X-159856802Y18000017D01*
X-159785805Y17996759D01*
X-159722669Y17994399D01*
X-159664542Y17992905D01*
X-159608575Y17992244D01*
X-159551915Y17992381D01*
X-159491711Y17993285D01*
X-159425113Y17994922D01*
X-159349270Y17997259D01*
X-159347022Y17997333D01*
X-159204233Y18002997D01*
X-159072214Y18010316D01*
X-158948216Y18019518D01*
X-158829487Y18030833D01*
X-158713276Y18044489D01*
X-158611616Y18058521D01*
X-158398423Y18095071D01*
X-158188689Y18141304D01*
X-157983883Y18196764D01*
X-157785473Y18260993D01*
X-157594926Y18333537D01*
X-157413712Y18413940D01*
X-157324772Y18458127D01*
X-157294871Y18474021D01*
X-157259003Y18493823D01*
X-157218943Y18516478D01*
X-157176470Y18540932D01*
X-157133359Y18566132D01*
X-157091387Y18591024D01*
X-157052331Y18614554D01*
X-157017966Y18635669D01*
X-156990070Y18653313D01*
X-156970420Y18666434D01*
X-156960791Y18673977D01*
X-156960673Y18674109D01*
X-156952961Y18680604D01*
X-156936226Y18693326D01*
X-156912587Y18710707D01*
X-156884161Y18731179D01*
X-156868891Y18742031D01*
X-156838188Y18763902D01*
X-156810539Y18783874D01*
X-156788281Y18800239D01*
X-156773748Y18811287D01*
X-156770309Y18814107D01*
X-156757523Y18825199D01*
X-156739228Y18840903D01*
X-156726358Y18851883D01*
X-156702838Y18872953D01*
X-156673680Y18900644D01*
X-156641678Y18932139D01*
X-156609625Y18964625D01*
X-156580316Y18995284D01*
X-156556544Y19021302D01*
X-156545952Y19033696D01*
X-156514228Y19075350D01*
X-156479544Y19125781D01*
X-156443988Y19181536D01*
X-156409645Y19239165D01*
X-156378603Y19295215D01*
X-156352948Y19346233D01*
X-156341437Y19371975D01*
X-156329875Y19399029D01*
X-156318260Y19425504D01*
X-156310791Y19442003D01*
X-156295915Y19477567D01*
X-156278934Y19524193D01*
X-156260504Y19579630D01*
X-156241282Y19641625D01*
X-156221921Y19707926D01*
X-156203078Y19776283D01*
X-156185409Y19844441D01*
X-156169568Y19910151D01*
X-156156212Y19971159D01*
X-156154918Y19977507D01*
X-156145945Y20022794D01*
X-156139783Y20056376D01*
X-156136246Y20079809D01*
X-156135148Y20094651D01*
X-156136303Y20102459D01*
X-156139527Y20104791D01*
X-156139728Y20104792D01*
X-156152400Y20104047D01*
X-156177112Y20102111D01*
X-156212373Y20099121D01*
X-156256689Y20095214D01*
X-156308569Y20090526D01*
X-156366520Y20085194D01*
X-156429051Y20079356D01*
X-156494669Y20073146D01*
X-156561883Y20066703D01*
X-156629199Y20060163D01*
X-156661530Y20056988D01*
X-156829178Y20040453D01*
X-156984179Y20025145D01*
X-157127418Y20010973D01*
X-157259782Y19997844D01*
X-157382157Y19985670D01*
X-157495429Y19974357D01*
X-157600484Y19963816D01*
X-157698208Y19953956D01*
X-157789488Y19944684D01*
X-157875208Y19935911D01*
X-157956256Y19927545D01*
X-158033518Y19919495D01*
X-158107879Y19911671D01*
X-158180225Y19903980D01*
X-158251443Y19896332D01*
X-158322420Y19888637D01*
X-158394039Y19880802D01*
X-158467189Y19872737D01*
X-158542755Y19864352D01*
X-158616161Y19856164D01*
X-158666728Y19850489D01*
X-158715402Y19844971D01*
X-158763314Y19839472D01*
X-158811591Y19833853D01*
X-158861365Y19827976D01*
X-158913766Y19821704D01*
X-158969922Y19814898D01*
X-159030964Y19807420D01*
X-159098021Y19799132D01*
X-159172224Y19789895D01*
X-159254702Y19779572D01*
X-159346584Y19768024D01*
X-159449002Y19755114D01*
X-159563084Y19740702D01*
X-159639367Y19731054D01*
X-159767650Y19714774D01*
X-159883625Y19699941D01*
X-159988489Y19686386D01*
X-160083434Y19673943D01*
X-160169656Y19662444D01*
X-160248350Y19651721D01*
X-160320709Y19641606D01*
X-160387928Y19631932D01*
X-160451202Y19622531D01*
X-160511725Y19613235D01*
X-160570691Y19603877D01*
X-160629296Y19594290D01*
X-160688733Y19584304D01*
X-160706765Y19581230D01*
X-160914980Y19542756D01*
X-161110784Y19500625D01*
X-161294913Y19454642D01*
X-161468106Y19404614D01*
X-161631101Y19350349D01*
X-161736771Y19310817D01*
X-161861768Y19260534D01*
X-161973918Y19212620D01*
X-162073709Y19166775D01*
X-162161627Y19122699D01*
X-162238159Y19080090D01*
X-162303790Y19038647D01*
X-162359008Y18998070D01*
X-162404298Y18958058D01*
X-162440148Y18918309D01*
X-162467043Y18878522D01*
X-162480741Y18850637D01*
X-162490361Y18812275D01*
X-162490443Y18770293D01*
X-162928757Y18770293D01*
X-162928826Y18780737D01*
X-162928820Y18782528D01*
X-162925587Y18854655D01*
X-162915879Y18918685D01*
X-162898782Y18978928D01*
X-162875118Y19036039D01*
X-162864196Y19059905D01*
X-162856006Y19079132D01*
X-162851959Y19090362D01*
X-162851760Y19091562D01*
X-162846682Y19099536D01*
X-162846097Y19099801D01*
X-162839851Y19106305D01*
X-162828860Y19121214D01*
X-162815475Y19141333D01*
X-162815150Y19141845D01*
X-162794464Y19170868D01*
X-162766701Y19204958D01*
X-162734856Y19240859D01*
X-162701923Y19275315D01*
X-162670896Y19305071D01*
X-162645372Y19326425D01*
X-162628156Y19340325D01*
X-162609143Y19357156D01*
X-162605840Y19360258D01*
X-162590029Y19373343D01*
X-162566803Y19390229D01*
X-162540470Y19407826D01*
X-162532904Y19412598D01*
X-162508447Y19428125D01*
X-162487632Y19441943D01*
X-162473802Y19451811D01*
X-162471032Y19454097D01*
X-162460525Y19461249D01*
X-162440067Y19473124D01*
X-162411953Y19488533D01*
X-162378476Y19506284D01*
X-162341930Y19525185D01*
X-162304607Y19544045D01*
X-162268802Y19561673D01*
X-162236808Y19576879D01*
X-162219480Y19584749D01*
X-162124889Y19625096D01*
X-162018729Y19667587D01*
X-161902735Y19711561D01*
X-161778642Y19756358D01*
X-161668784Y19794355D01*
X-161577026Y19824359D01*
X-161482224Y19853067D01*
X-161383611Y19880623D01*
X-161280420Y19907169D01*
X-161171884Y19932851D01*
X-161057235Y19957811D01*
X-160935708Y19982194D01*
X-160806534Y20006142D01*
X-160668948Y20029800D01*
X-160522180Y20053312D01*
X-160365466Y20076820D01*
X-160198037Y20100469D01*
X-160019127Y20124402D01*
X-159827968Y20148763D01*
X-159678857Y20167067D01*
X-159650464Y20170941D01*
X-159628268Y20174811D01*
X-159614946Y20178158D01*
X-159612371Y20179985D01*
X-159620009Y20183552D01*
X-159637171Y20188381D01*
X-159657865Y20192954D01*
X-159695172Y20203459D01*
X-159404811Y20203459D01*
X-159401412Y20200060D01*
X-159398013Y20203459D01*
X-159401412Y20206859D01*
X-159404811Y20203459D01*
X-159695172Y20203459D01*
X-159710514Y20207779D01*
X-159387815Y20207779D01*
X-159367419Y20207370D01*
X-159349370Y20208226D01*
X-159324433Y20210863D01*
X-159306230Y20213444D01*
X-159287848Y20216043D01*
X-159257354Y20219965D01*
X-159216155Y20225050D01*
X-159165654Y20231137D01*
X-159107257Y20238066D01*
X-159042369Y20245678D01*
X-158972395Y20253811D01*
X-158898740Y20262306D01*
X-158822810Y20271002D01*
X-158746009Y20279740D01*
X-158669742Y20288359D01*
X-158595414Y20296699D01*
X-158524431Y20304599D01*
X-158458198Y20311900D01*
X-158398119Y20318442D01*
X-158345600Y20324064D01*
X-158302045Y20328606D01*
X-158268860Y20331908D01*
X-158259228Y20332807D01*
X-158226910Y20335862D01*
X-158205902Y20339068D01*
X-158193994Y20344026D01*
X-158188976Y20352339D01*
X-158188639Y20365608D01*
X-158190461Y20382662D01*
X-158194334Y20413203D01*
X-158199051Y20445908D01*
X-158201040Y20458411D01*
X-158202324Y20472720D01*
X-158203577Y20499105D01*
X-158204769Y20536042D01*
X-158205866Y20582011D01*
X-158206838Y20635489D01*
X-158207652Y20694954D01*
X-158208276Y20758884D01*
X-158208663Y20822142D01*
X-158209057Y20894821D01*
X-158209605Y20969395D01*
X-158210281Y21043513D01*
X-158211057Y21114825D01*
X-158211907Y21180980D01*
X-158212803Y21239625D01*
X-158213719Y21288410D01*
X-158214258Y21311603D01*
X-158218436Y21474725D01*
X-158257305Y21416983D01*
X-158283478Y21378462D01*
X-158313025Y21335593D01*
X-158344932Y21289788D01*
X-158378190Y21242460D01*
X-158411784Y21195021D01*
X-158444705Y21148883D01*
X-158475941Y21105458D01*
X-158504478Y21066161D01*
X-158529307Y21032401D01*
X-158549414Y21005593D01*
X-158563789Y20987149D01*
X-158571382Y20978513D01*
X-158578077Y20970998D01*
X-158591398Y20954662D01*
X-158609749Y20931513D01*
X-158631531Y20903557D01*
X-158645714Y20885140D01*
X-158668871Y20855088D01*
X-158689611Y20828452D01*
X-158706315Y20807289D01*
X-158717365Y20793657D01*
X-158720598Y20789958D01*
X-158728121Y20781419D01*
X-158742083Y20764778D01*
X-158760407Y20742533D01*
X-158778610Y20720162D01*
X-158798991Y20695247D01*
X-158816818Y20673960D01*
X-158830040Y20658715D01*
X-158836292Y20652175D01*
X-158844230Y20644001D01*
X-158858148Y20628245D01*
X-158875446Y20607873D01*
X-158880993Y20601199D01*
X-158896976Y20582861D01*
X-158918762Y20559260D01*
X-158944710Y20532030D01*
X-158973180Y20502806D01*
X-159002532Y20473222D01*
X-159031127Y20444913D01*
X-159057323Y20419515D01*
X-159079482Y20398662D01*
X-159095963Y20383988D01*
X-159105127Y20377129D01*
X-159106081Y20376827D01*
X-159114419Y20372339D01*
X-159127356Y20361186D01*
X-159131104Y20357433D01*
X-159148500Y20341983D01*
X-159170734Y20325401D01*
X-159180454Y20319024D01*
X-159198367Y20307341D01*
X-159211037Y20298058D01*
X-159214543Y20294721D01*
X-159221514Y20290059D01*
X-159238024Y20280914D01*
X-159261343Y20268671D01*
X-159288746Y20254717D01*
X-159317504Y20240438D01*
X-159344891Y20227221D01*
X-159368178Y20216453D01*
X-159370818Y20215280D01*
X-159387815Y20207779D01*
X-159710514Y20207779D01*
X-159732763Y20214044D01*
X-159799462Y20245851D01*
X-159857497Y20287906D01*
X-159906401Y20339741D01*
X-159945708Y20400890D01*
X-159974954Y20470883D01*
X-159989434Y20526072D01*
X-160003589Y20617125D01*
X-160007191Y20690589D01*
X-159572830Y20690589D01*
X-159569516Y20656192D01*
X-159561519Y20633283D01*
X-159548912Y20622428D01*
X-159543183Y20621580D01*
X-159532916Y20624487D01*
X-159514209Y20632198D01*
X-159490661Y20643199D01*
X-159484527Y20646242D01*
X-159461206Y20658325D01*
X-159442943Y20668489D01*
X-159432898Y20674954D01*
X-159432006Y20675831D01*
X-159425387Y20682189D01*
X-159410973Y20694519D01*
X-159391643Y20710371D01*
X-159387815Y20713449D01*
X-159365056Y20733020D01*
X-159335735Y20760188D01*
X-159302379Y20792435D01*
X-159267516Y20827243D01*
X-159233672Y20862097D01*
X-159203375Y20894478D01*
X-159182432Y20918021D01*
X-159163686Y20939679D01*
X-159145277Y20960700D01*
X-159134841Y20972450D01*
X-159117470Y20992674D01*
X-159100501Y21013710D01*
X-159099090Y21015546D01*
X-159084292Y21034131D01*
X-159070092Y21050793D01*
X-159068495Y21052554D01*
X-159055655Y21067323D01*
X-159039885Y21086473D01*
X-159034281Y21093509D01*
X-159019101Y21112458D01*
X-159005163Y21129319D01*
X-159001194Y21133951D01*
X-158991512Y21145867D01*
X-158976438Y21165344D01*
X-158958603Y21188965D01*
X-158950794Y21199471D01*
X-158933835Y21222107D01*
X-158919735Y21240376D01*
X-158910546Y21251648D01*
X-158908401Y21253861D01*
X-158902797Y21260505D01*
X-158891222Y21275884D01*
X-158875473Y21297572D01*
X-158860640Y21318449D01*
X-158842832Y21343503D01*
X-158827767Y21364249D01*
X-158817224Y21378263D01*
X-158813196Y21383036D01*
X-158807742Y21389834D01*
X-158796666Y21405312D01*
X-158781846Y21426813D01*
X-158772388Y21440825D01*
X-158755841Y21465171D01*
X-158741526Y21485591D01*
X-158731511Y21499167D01*
X-158728611Y21502632D01*
X-158721930Y21511264D01*
X-158709894Y21528485D01*
X-158694474Y21551430D01*
X-158684117Y21567220D01*
X-158668013Y21591695D01*
X-158654505Y21611664D01*
X-158645387Y21624507D01*
X-158642666Y21627790D01*
X-158637566Y21634640D01*
X-158627024Y21650611D01*
X-158612659Y21673203D01*
X-158598632Y21695777D01*
X-158582314Y21722031D01*
X-158568476Y21743793D01*
X-158558727Y21758566D01*
X-158554854Y21763764D01*
X-158550236Y21770464D01*
X-158539941Y21786926D01*
X-158525171Y21811183D01*
X-158507125Y21841268D01*
X-158490583Y21869145D01*
X-158469678Y21904446D01*
X-158450077Y21937372D01*
X-158433284Y21965411D01*
X-158420801Y21986052D01*
X-158415328Y21994921D01*
X-158400019Y22020424D01*
X-158381296Y22053637D01*
X-158359872Y22093118D01*
X-158336457Y22137428D01*
X-158311763Y22185125D01*
X-158286503Y22234769D01*
X-158261388Y22284919D01*
X-158237129Y22334134D01*
X-158214439Y22380976D01*
X-158194030Y22424001D01*
X-158176612Y22461771D01*
X-158162899Y22492844D01*
X-158153601Y22515780D01*
X-158149431Y22529139D01*
X-158149949Y22532019D01*
X-158154832Y22526780D01*
X-158163874Y22513573D01*
X-158168280Y22506524D01*
X-158180354Y22488813D01*
X-158191595Y22475610D01*
X-158194329Y22473228D01*
X-158207533Y22462741D01*
X-158219229Y22452832D01*
X-158234354Y22440244D01*
X-158252922Y22425591D01*
X-158255999Y22423240D01*
X-158272047Y22410722D01*
X-158283999Y22400825D01*
X-158285800Y22399190D01*
X-158295885Y22391551D01*
X-158312613Y22380556D01*
X-158320416Y22375753D01*
X-158337304Y22365210D01*
X-158348741Y22357385D01*
X-158351011Y22355461D01*
X-158357861Y22350283D01*
X-158373462Y22339593D01*
X-158395115Y22325219D01*
X-158408800Y22316294D01*
X-158433227Y22300307D01*
X-158453673Y22286646D01*
X-158467185Y22277297D01*
X-158470521Y22274774D01*
X-158480249Y22267720D01*
X-158496960Y22256647D01*
X-158507914Y22249678D01*
X-158525603Y22238215D01*
X-158538045Y22229448D01*
X-158541375Y22226585D01*
X-158548264Y22220383D01*
X-158562470Y22208852D01*
X-158575368Y22198778D01*
X-158596982Y22181721D01*
X-158618656Y22163600D01*
X-158642480Y22142542D01*
X-158670546Y22116674D01*
X-158704943Y22084122D01*
X-158728097Y22061944D01*
X-158756462Y22034867D01*
X-158784625Y22008290D01*
X-158809504Y21985100D01*
X-158828018Y21968188D01*
X-158829438Y21966920D01*
X-158847712Y21949504D01*
X-158873113Y21923679D01*
X-158903899Y21891345D01*
X-158938333Y21854403D01*
X-158974674Y21814753D01*
X-159011183Y21774296D01*
X-159046120Y21734932D01*
X-159077745Y21698561D01*
X-159104319Y21667085D01*
X-159108134Y21662449D01*
X-159128942Y21637215D01*
X-159146734Y21615946D01*
X-159159695Y21600793D01*
X-159166008Y21593904D01*
X-159166141Y21593797D01*
X-159173347Y21585797D01*
X-159186747Y21568568D01*
X-159204898Y21544132D01*
X-159226359Y21514510D01*
X-159249685Y21481724D01*
X-159273436Y21447795D01*
X-159296168Y21414746D01*
X-159316440Y21384597D01*
X-159327870Y21367116D01*
X-159400121Y21247010D01*
X-159459651Y21130837D01*
X-159506626Y21018195D01*
X-159541213Y20908679D01*
X-159563576Y20801887D01*
X-159565112Y20791581D01*
X-159571386Y20735908D01*
X-159572830Y20690589D01*
X-160007191Y20690589D01*
X-160008002Y20707121D01*
X-160002768Y20800377D01*
X-159996599Y20849337D01*
X-159972493Y20978497D01*
X-159938306Y21103872D01*
X-159893103Y21228477D01*
X-159846113Y21334385D01*
X-159831437Y21365428D01*
X-159819164Y21392130D01*
X-159810375Y21412080D01*
X-159806152Y21422867D01*
X-159805936Y21423901D01*
X-159800876Y21431508D01*
X-159800318Y21431761D01*
X-159795006Y21438268D01*
X-159784693Y21454312D01*
X-159770864Y21477479D01*
X-159755004Y21505357D01*
X-159754973Y21505413D01*
X-159739212Y21533399D01*
X-159725667Y21556828D01*
X-159715780Y21573246D01*
X-159710995Y21580199D01*
X-159705913Y21586846D01*
X-159694910Y21602731D01*
X-159679460Y21625682D01*
X-159661037Y21653525D01*
X-159655114Y21662564D01*
X-159630392Y21699977D01*
X-159610767Y21728587D01*
X-159594212Y21751176D01*
X-159578701Y21770522D01*
X-159564581Y21786765D01*
X-159557791Y21795253D01*
X-159545054Y21811915D01*
X-159528480Y21833969D01*
X-159517488Y21848748D01*
X-159500027Y21872127D01*
X-159485514Y21891204D01*
X-159475884Y21903454D01*
X-159473187Y21906537D01*
X-159466793Y21913501D01*
X-159455377Y21927063D01*
X-159449934Y21933732D01*
X-159392529Y22002153D01*
X-159326022Y22076939D01*
X-159252162Y22156260D01*
X-159172699Y22238286D01*
X-159089382Y22321188D01*
X-159003959Y22403134D01*
X-158978848Y22426639D01*
X-158940041Y22463012D01*
X-158910540Y22491289D01*
X-158889464Y22512376D01*
X-158875926Y22527178D01*
X-158869044Y22536600D01*
X-158867713Y22540501D01*
X-158874204Y22547706D01*
X-158892490Y22554059D01*
X-158920795Y22559503D01*
X-158957339Y22563979D01*
X-159000344Y22567430D01*
X-159048032Y22569797D01*
X-159098624Y22571023D01*
X-159150343Y22571049D01*
X-159201411Y22569818D01*
X-159250047Y22567272D01*
X-159294476Y22563352D01*
X-159332917Y22558000D01*
X-159343454Y22556019D01*
X-159412195Y22539083D01*
X-159480897Y22515756D01*
X-159553422Y22484644D01*
X-159588377Y22467712D01*
X-159622495Y22450098D01*
X-159658147Y22430711D01*
X-159693036Y22410909D01*
X-159724866Y22392051D01*
X-159751339Y22375495D01*
X-159770158Y22362600D01*
X-159778741Y22355132D01*
X-159785785Y22348948D01*
X-159800300Y22337816D01*
X-159812734Y22328753D01*
X-159878822Y22276574D01*
X-159948649Y22212033D01*
X-160021738Y22135693D01*
X-160097610Y22048118D01*
X-160175788Y21949872D01*
X-160255791Y21841518D01*
X-160337143Y21723620D01*
X-160375125Y21665970D01*
X-160405238Y21618887D01*
X-160439140Y21564649D01*
X-160475379Y21505682D01*
X-160512501Y21444414D01*
X-160549051Y21383269D01*
X-160583576Y21324676D01*
X-160614621Y21271059D01*
X-160640735Y21224847D01*
X-160654620Y21199471D01*
X-160666096Y21178350D01*
X-160682020Y21149371D01*
X-160700186Y21116535D01*
X-160716463Y21087292D01*
X-160734594Y21053921D01*
X-160756254Y21012648D01*
X-160779176Y20967874D01*
X-160801091Y20923997D01*
X-160809338Y20907126D01*
X-160826551Y20871715D01*
X-160842034Y20840005D01*
X-160854673Y20814266D01*
X-160863355Y20796767D01*
X-160866628Y20790364D01*
X-160877217Y20768094D01*
X-160890331Y20736356D01*
X-160904607Y20698713D01*
X-160918683Y20658725D01*
X-160928591Y20628379D01*
X-160946977Y20565042D01*
X-160960492Y20506300D01*
X-160970715Y20444797D01*
X-160974819Y20412959D01*
X-160979939Y20378376D01*
X-160986827Y20342620D01*
X-160994183Y20312263D01*
X-160995873Y20306516D01*
X-161016478Y20261343D01*
X-161046902Y20223928D01*
X-161085244Y20195137D01*
X-161129603Y20175835D01*
X-161178078Y20166886D01*
X-161228768Y20169155D01*
X-161272503Y20180672D01*
X-161299397Y20191806D01*
X-161321703Y20204398D01*
X-161341282Y20220427D01*
X-161359995Y20241870D01*
X-161379706Y20270707D01*
X-161402274Y20308917D01*
X-161415476Y20332635D01*
X-161433678Y20365143D01*
X-161453373Y20399361D01*
X-161471254Y20429570D01*
X-161477076Y20439119D01*
X-161487685Y20457057D01*
X-161503845Y20485376D01*
X-161524681Y20522475D01*
X-161549315Y20566753D01*
X-161576870Y20616609D01*
X-161606471Y20670443D01*
X-161637240Y20726653D01*
X-161668300Y20783638D01*
X-161698774Y20839798D01*
X-161727787Y20893532D01*
X-161754461Y20943238D01*
X-161777919Y20987317D01*
X-161793371Y21016666D01*
X-161813273Y21054376D01*
X-161833351Y21091827D01*
X-161851754Y21125608D01*
X-161866633Y21152307D01*
X-161871843Y21161373D01*
X-161898353Y21206738D01*
X-161923711Y21140217D01*
X-161938969Y21101492D01*
X-161955895Y21060691D01*
X-161973314Y21020444D01*
X-161990046Y20983380D01*
X-162004916Y20952131D01*
X-162016746Y20929328D01*
X-162021942Y20920724D01*
X-162031274Y20905872D01*
X-162044092Y20884081D01*
X-162056023Y20862935D01*
X-162067993Y20841945D01*
X-162077757Y20826075D01*
X-162083205Y20818750D01*
X-162083215Y20818743D01*
X-162088767Y20811831D01*
X-162099638Y20796243D01*
X-162113885Y20774802D01*
X-162120595Y20764440D01*
X-162136215Y20740772D01*
X-162149875Y20721223D01*
X-162159388Y20708881D01*
X-162161544Y20706651D01*
X-162169441Y20698123D01*
X-162182746Y20681908D01*
X-162198802Y20661262D01*
X-162201409Y20657818D01*
X-162219645Y20634351D01*
X-162237535Y20612516D01*
X-162251323Y20596893D01*
X-162251752Y20596446D01*
X-162266522Y20580862D01*
X-162285757Y20560238D01*
X-162301458Y20543211D01*
X-162370120Y20475961D01*
X-162413109Y20441199D01*
X-162451384Y20411577D01*
X-162478499Y20388085D01*
X-162483903Y20382814D01*
X-162494251Y20374553D01*
X-162513070Y20361411D01*
X-162537202Y20345549D01*
X-162551940Y20336234D01*
X-162577110Y20320416D01*
X-162598276Y20306848D01*
X-162612524Y20297415D01*
X-162616528Y20294530D01*
X-162630102Y20285904D01*
X-162653505Y20273554D01*
X-162683927Y20258763D01*
X-162718555Y20242816D01*
X-162754578Y20226997D01*
X-162789184Y20212588D01*
X-162819561Y20200874D01*
X-162828871Y20197581D01*
X-162891629Y20177288D01*
X-162946646Y20162534D01*
X-162998243Y20152582D01*
X-163050743Y20146697D01*
X-163108466Y20144141D01*
X-163144105Y20143889D01*
X-163204149Y20144896D01*
X-163252454Y20147639D01*
X-163290781Y20152244D01*
X-163306895Y20155313D01*
X-163401702Y20179851D01*
X-163486226Y20210091D01*
X-163563087Y20247436D01*
X-163634901Y20293291D01*
X-163704288Y20349060D01*
X-163752101Y20394037D01*
X-163798536Y20443025D01*
X-163835239Y20488837D01*
X-163864417Y20534806D01*
X-163888274Y20584268D01*
X-163902577Y20621580D01*
X-163920974Y20677530D01*
X-163934047Y20727353D01*
X-163942814Y20776361D01*
X-163948293Y20829864D01*
X-163950709Y20872640D01*
X-163950159Y20916879D01*
X-163512072Y20916879D01*
X-163511692Y20877388D01*
X-163510345Y20848179D01*
X-163507653Y20825952D01*
X-163503235Y20807403D01*
X-163497681Y20791658D01*
X-163473470Y20741778D01*
X-163443352Y20701940D01*
X-163404964Y20669060D01*
X-163402456Y20667316D01*
X-163384840Y20654909D01*
X-163372243Y20645497D01*
X-163368462Y20642229D01*
X-163361039Y20637662D01*
X-163344481Y20629247D01*
X-163322085Y20618645D01*
X-163317380Y20616493D01*
X-163249124Y20590741D01*
X-163183101Y20577250D01*
X-163116437Y20575675D01*
X-163050764Y20584725D01*
X-163017377Y20592846D01*
X-162981680Y20603415D01*
X-162954169Y20613105D01*
X-162932588Y20622486D01*
X-162905574Y20635451D01*
X-162875888Y20650525D01*
X-162846290Y20666228D01*
X-162819540Y20681084D01*
X-162798398Y20693616D01*
X-162785625Y20702345D01*
X-162783451Y20704478D01*
X-162776217Y20711065D01*
X-162761514Y20722510D01*
X-162748646Y20731930D01*
X-162664891Y20799294D01*
X-162585273Y20878222D01*
X-162511373Y20966922D01*
X-162444775Y21063602D01*
X-162421822Y21101869D01*
X-162397911Y21144602D01*
X-162378176Y21183236D01*
X-162361329Y21220994D01*
X-162346088Y21261097D01*
X-162331164Y21306767D01*
X-162315275Y21361226D01*
X-162308294Y21386436D01*
X-162270365Y21541890D01*
X-162239589Y21703780D01*
X-162216942Y21866431D01*
X-162206179Y21981323D01*
X-162203222Y22021335D01*
X-162200239Y22060993D01*
X-162197545Y22096158D01*
X-162195455Y22122692D01*
X-162195150Y22126441D01*
X-162191334Y22172976D01*
X-162210506Y22169292D01*
X-162228405Y22166395D01*
X-162252847Y22163081D01*
X-162267071Y22161375D01*
X-162327362Y22150665D01*
X-162395636Y22131666D01*
X-162469779Y22105196D01*
X-162547675Y22072071D01*
X-162627209Y22033109D01*
X-162693388Y21996670D01*
X-162723212Y21979085D01*
X-162755508Y21959555D01*
X-162788076Y21939468D01*
X-162818719Y21920211D01*
X-162845236Y21903173D01*
X-162865430Y21889740D01*
X-162877102Y21881301D01*
X-162878955Y21879550D01*
X-162885655Y21873698D01*
X-162900770Y21862006D01*
X-162921632Y21846512D01*
X-162933345Y21838004D01*
X-162964506Y21815265D01*
X-162988110Y21797243D01*
X-163007832Y21780992D01*
X-163027347Y21763567D01*
X-163034466Y21756966D01*
X-163048797Y21744013D01*
X-163069221Y21726064D01*
X-163091439Y21706894D01*
X-163092514Y21705975D01*
X-163122399Y21680219D01*
X-163145327Y21659561D01*
X-163164853Y21640481D01*
X-163184533Y21619454D01*
X-163207925Y21592957D01*
X-163216035Y21583602D01*
X-163236262Y21560405D01*
X-163253708Y21540738D01*
X-163266142Y21527098D01*
X-163270732Y21522414D01*
X-163281384Y21510400D01*
X-163297382Y21489213D01*
X-163317061Y21461329D01*
X-163338755Y21429224D01*
X-163360799Y21395377D01*
X-163381528Y21362263D01*
X-163399277Y21332360D01*
X-163403293Y21325247D01*
X-163445757Y21240980D01*
X-163476995Y21159712D01*
X-163497869Y21078212D01*
X-163509238Y20993248D01*
X-163512072Y20916879D01*
X-163950159Y20916879D01*
X-163949223Y20992257D01*
X-163934646Y21114028D01*
X-163907151Y21237106D01*
X-163866909Y21360643D01*
X-163836476Y21435183D01*
X-163819104Y21472826D01*
X-163799192Y21512937D01*
X-163778022Y21553231D01*
X-163756874Y21591424D01*
X-163737030Y21625232D01*
X-163719771Y21652369D01*
X-163706378Y21670553D01*
X-163701755Y21675381D01*
X-163696272Y21682050D01*
X-163684824Y21697095D01*
X-163669408Y21717870D01*
X-163660696Y21729771D01*
X-163642717Y21754048D01*
X-163626343Y21775465D01*
X-163614179Y21790641D01*
X-163610935Y21794359D01*
X-163600438Y21806059D01*
X-163584342Y21824412D01*
X-163565879Y21845729D01*
X-163563283Y21848748D01*
X-163545845Y21868088D01*
X-163521319Y21894005D01*
X-163492435Y21923674D01*
X-163461927Y21954268D01*
X-163448252Y21967726D01*
X-163414896Y22000230D01*
X-163389148Y22025002D01*
X-163368977Y22043899D01*
X-163352348Y22058776D01*
X-163337230Y22071490D01*
X-163321590Y22083897D01*
X-163317963Y22086703D01*
X-163303340Y22098730D01*
X-163283693Y22115819D01*
X-163268111Y22129861D01*
X-163247433Y22147536D01*
X-163220252Y22169021D01*
X-163191368Y22190563D01*
X-163181498Y22197594D01*
X-163157394Y22214819D01*
X-163137233Y22229794D01*
X-163123838Y22240396D01*
X-163120309Y22243669D01*
X-163111880Y22250484D01*
X-163094703Y22262425D01*
X-163071645Y22277540D01*
X-163055722Y22287608D01*
X-163030007Y22303844D01*
X-163007908Y22318161D01*
X-162992492Y22328555D01*
X-162987734Y22332066D01*
X-162975705Y22340215D01*
X-162954055Y22353203D01*
X-162925268Y22369670D01*
X-162891824Y22388255D01*
X-162856207Y22407598D01*
X-162820899Y22426340D01*
X-162788380Y22443120D01*
X-162761135Y22456577D01*
X-162756578Y22458731D01*
X-162666249Y22497995D01*
X-162576233Y22531349D01*
X-162488035Y22558482D01*
X-162403159Y22579083D01*
X-162323111Y22592841D01*
X-162249395Y22599445D01*
X-162183516Y22598585D01*
X-162126980Y22589949D01*
X-162124485Y22589323D01*
X-162095486Y22583287D01*
X-162071897Y22582414D01*
X-162048815Y22585923D01*
X-162005641Y22591634D01*
X-161961624Y22591263D01*
X-161920452Y22585272D01*
X-161885813Y22574124D01*
X-161866976Y22563153D01*
X-161835777Y22536736D01*
X-161811534Y22509946D01*
X-161793219Y22480411D01*
X-161779804Y22445760D01*
X-161770263Y22403619D01*
X-161763568Y22351619D01*
X-161760719Y22317860D01*
X-161745852Y22171084D01*
X-161723270Y22032995D01*
X-161692454Y21900739D01*
X-161671466Y21828352D01*
X-161660827Y21795492D01*
X-161647841Y21757496D01*
X-161633799Y21717932D01*
X-161619990Y21680367D01*
X-161607704Y21648367D01*
X-161598230Y21625501D01*
X-161597731Y21624391D01*
X-161590309Y21607481D01*
X-161580046Y21583456D01*
X-161570117Y21559803D01*
X-161541286Y21493714D01*
X-161505290Y21416801D01*
X-161462406Y21329618D01*
X-161412911Y21232723D01*
X-161357081Y21126669D01*
X-161315603Y21049534D01*
X-161298952Y21018928D01*
X-161287410Y20998753D01*
X-161279543Y20987519D01*
X-161273917Y20983736D01*
X-161269097Y20985916D01*
X-161263652Y20992568D01*
X-161262396Y20994258D01*
X-161250819Y21011960D01*
X-161233969Y21040880D01*
X-161212419Y21079958D01*
X-161186743Y21128136D01*
X-161157515Y21184356D01*
X-161127276Y21243663D01*
X-161108784Y21279933D01*
X-161092193Y21311901D01*
X-161078533Y21337625D01*
X-161068837Y21355162D01*
X-161064137Y21362572D01*
X-161064054Y21362640D01*
X-161059403Y21369428D01*
X-161049398Y21386216D01*
X-161035159Y21411050D01*
X-161017810Y21441975D01*
X-160999684Y21474819D01*
X-160978960Y21512234D01*
X-160955949Y21553066D01*
X-160931732Y21595471D01*
X-160907389Y21637603D01*
X-160884000Y21677618D01*
X-160862645Y21713669D01*
X-160844405Y21743913D01*
X-160830360Y21766504D01*
X-160821590Y21779598D01*
X-160820233Y21781304D01*
X-160814580Y21789321D01*
X-160803102Y21806770D01*
X-160787161Y21831540D01*
X-160768118Y21861522D01*
X-160754422Y21883285D01*
X-160734242Y21915204D01*
X-160716390Y21942951D01*
X-160702181Y21964520D01*
X-160692928Y21977909D01*
X-160690130Y21981323D01*
X-160684708Y21987969D01*
X-160673370Y22003750D01*
X-160657674Y22026441D01*
X-160639176Y22053819D01*
X-160635379Y22059509D01*
X-160616555Y22087532D01*
X-160600281Y22111306D01*
X-160588103Y22128608D01*
X-160581562Y22137216D01*
X-160581074Y22137694D01*
X-160575539Y22144120D01*
X-160563531Y22159340D01*
X-160546688Y22181238D01*
X-160526652Y22207698D01*
X-160521570Y22214466D01*
X-160497671Y22245731D01*
X-160473168Y22276745D01*
X-160450925Y22303941D01*
X-160433809Y22323750D01*
X-160433694Y22323876D01*
X-160413415Y22346717D01*
X-160393584Y22370043D01*
X-160380427Y22386348D01*
X-160357823Y22413188D01*
X-160326775Y22446558D01*
X-160289418Y22484445D01*
X-160247886Y22524836D01*
X-160204314Y22565718D01*
X-160160836Y22605076D01*
X-160119586Y22640898D01*
X-160082698Y22671171D01*
X-160060887Y22687783D01*
X-160035512Y22706499D01*
X-160013957Y22722830D01*
X-159998783Y22734808D01*
X-159992900Y22740001D01*
X-159984453Y22746512D01*
X-159967054Y22758012D01*
X-159943522Y22772682D01*
X-159924913Y22783861D01*
X-159899263Y22799208D01*
X-159878209Y22812115D01*
X-159864369Y22820961D01*
X-159860325Y22823919D01*
X-159851594Y22829542D01*
X-159832700Y22839259D01*
X-159806055Y22851989D01*
X-159774071Y22866655D01*
X-159739161Y22882179D01*
X-159703738Y22897482D01*
X-159670214Y22911485D01*
X-159641000Y22923110D01*
X-159625770Y22928773D01*
X-159572275Y22946342D01*
X-159511504Y22963838D01*
X-159448527Y22979956D01*
X-159388414Y22993393D01*
X-159340224Y23002229D01*
X-159306812Y23005986D01*
X-159263058Y23008708D01*
X-159211807Y23010419D01*
X-159155905Y23011140D01*
X-159098199Y23010892D01*
X-159041533Y23009698D01*
X-158988755Y23007578D01*
X-158942709Y23004555D01*
X-158906243Y23000650D01*
X-158894908Y22998834D01*
X-158821959Y22984199D01*
X-158748717Y22966870D01*
X-158672778Y22946152D01*
X-158591739Y22921352D01*
X-158503197Y22891777D01*
X-158411842Y22859314D01*
X-158382736Y22850355D01*
X-158351253Y22843039D01*
X-158337056Y22840675D01*
X-158281851Y22826868D01*
X-158233048Y22801361D01*
X-158191647Y22764932D01*
X-158158648Y22718359D01*
X-158145729Y22691789D01*
X-158138860Y22677551D01*
X-158134537Y22672370D01*
X-158133832Y22673915D01*
X-158132670Y22688174D01*
X-158129944Y22714399D01*
X-158125842Y22751076D01*
X-158120551Y22796685D01*
X-158114259Y22849712D01*
X-158107154Y22908639D01*
X-158099424Y22971950D01*
X-158091256Y23038127D01*
X-158082838Y23105654D01*
X-158074358Y23173014D01*
X-158066004Y23238690D01*
X-158057964Y23301166D01*
X-158050426Y23358924D01*
X-158043576Y23410449D01*
X-158037604Y23454222D01*
X-158034390Y23477041D01*
X-158019438Y23575447D01*
X-158004406Y23661204D01*
X-157988897Y23735255D01*
X-157972518Y23798545D01*
X-157954872Y23852018D01*
X-157935565Y23896618D01*
X-157914203Y23933289D01*
X-157890389Y23962975D01*
X-157863729Y23986620D01*
X-157833827Y24005169D01*
X-157808675Y24016445D01*
X-157776314Y24024469D01*
X-157736977Y24027574D01*
X-157696357Y24025787D01*
G37*
G36*
X-174453693Y30427024D02*
G01*
X-174422124Y30418678D01*
X-174393443Y30408794D01*
X-174365489Y30397162D01*
X-174341135Y30385220D01*
X-174323258Y30374407D01*
X-174314730Y30366160D01*
X-174314394Y30364775D01*
X-174310267Y30356611D01*
X-174302322Y30346725D01*
X-174273867Y30307259D01*
X-174253584Y30259462D01*
X-174241177Y30202328D01*
X-174236350Y30134850D01*
X-174236261Y30122785D01*
X-174236603Y30090779D01*
X-174237843Y30061848D01*
X-174240367Y30033799D01*
X-174244562Y30004439D01*
X-174250816Y29971574D01*
X-174259513Y29933012D01*
X-174271042Y29886558D01*
X-174285789Y29830020D01*
X-174291995Y29806645D01*
X-174305426Y29755727D01*
X-174319787Y29700461D01*
X-174333918Y29645365D01*
X-174346661Y29594955D01*
X-174355699Y29558491D01*
X-174383791Y29439202D01*
X-174412747Y29307925D01*
X-174442287Y29166223D01*
X-174472131Y29015658D01*
X-174501997Y28857792D01*
X-174531607Y28694188D01*
X-174560678Y28526406D01*
X-174588932Y28356010D01*
X-174616088Y28184561D01*
X-174641865Y28013621D01*
X-174665983Y27844753D01*
X-174674766Y27780627D01*
X-174694157Y27638980D01*
X-174712580Y27508219D01*
X-174730461Y27385709D01*
X-174748228Y27268811D01*
X-174766306Y27154886D01*
X-174785122Y27041297D01*
X-174805102Y26925405D01*
X-174826672Y26804574D01*
X-174850259Y26676164D01*
X-174871991Y26560258D01*
X-174885493Y26488367D01*
X-174897182Y26424783D01*
X-174907289Y26367639D01*
X-174916048Y26315068D01*
X-174923689Y26265203D01*
X-174930444Y26216176D01*
X-174936544Y26166119D01*
X-174942223Y26113166D01*
X-174947711Y26055449D01*
X-174953240Y25991101D01*
X-174959042Y25918254D01*
X-174965349Y25835040D01*
X-174970292Y25768208D01*
X-174986562Y25541877D01*
X-175001394Y25324586D01*
X-175014861Y25114578D01*
X-175027036Y24910096D01*
X-175037993Y24709384D01*
X-175047804Y24510686D01*
X-175056542Y24312245D01*
X-175064282Y24112304D01*
X-175071096Y23909107D01*
X-175077057Y23700896D01*
X-175082239Y23485917D01*
X-175086715Y23262412D01*
X-175090558Y23028624D01*
X-175093481Y22812466D01*
X-175094241Y22743075D01*
X-175094773Y22677940D01*
X-175095081Y22618298D01*
X-175095165Y22565384D01*
X-175095029Y22520434D01*
X-175094675Y22484683D01*
X-175094104Y22459366D01*
X-175093320Y22445720D01*
X-175092790Y22443636D01*
X-175086006Y22448393D01*
X-175071641Y22461574D01*
X-175051264Y22481543D01*
X-175026444Y22506666D01*
X-174998748Y22535308D01*
X-174969745Y22565832D01*
X-174941003Y22596604D01*
X-174914091Y22625989D01*
X-174890577Y22652352D01*
X-174873623Y22672135D01*
X-174862530Y22685157D01*
X-174846541Y22703577D01*
X-174834496Y22717302D01*
X-174817262Y22737055D01*
X-174801762Y22755187D01*
X-174794311Y22764151D01*
X-174780874Y22780440D01*
X-174765342Y22798902D01*
X-174763717Y22800810D01*
X-174748106Y22819583D01*
X-174730619Y22841258D01*
X-174725716Y22847468D01*
X-174710560Y22866455D01*
X-174696635Y22883342D01*
X-174692631Y22888019D01*
X-174683086Y22899637D01*
X-174667856Y22918923D01*
X-174649446Y22942688D01*
X-174638546Y22956939D01*
X-174620190Y22980717D01*
X-174604283Y23000705D01*
X-174593001Y23014199D01*
X-174589274Y23018127D01*
X-174581569Y23026721D01*
X-174568624Y23043009D01*
X-174553108Y23063627D01*
X-174551577Y23065715D01*
X-174535058Y23087857D01*
X-174520011Y23107251D01*
X-174509600Y23119821D01*
X-174509342Y23120105D01*
X-174499459Y23132156D01*
X-174484744Y23151510D01*
X-174468122Y23174301D01*
X-174465561Y23177897D01*
X-174450305Y23199060D01*
X-174437909Y23215650D01*
X-174430572Y23224740D01*
X-174429798Y23225488D01*
X-174424130Y23232195D01*
X-174412616Y23247326D01*
X-174397267Y23268208D01*
X-174388850Y23279878D01*
X-174372401Y23302611D01*
X-174358867Y23320924D01*
X-174350232Y23332150D01*
X-174348376Y23334268D01*
X-174343088Y23340968D01*
X-174331924Y23356358D01*
X-174316695Y23377912D01*
X-174304488Y23395456D01*
X-174287477Y23419840D01*
X-174273247Y23439842D01*
X-174263612Y23452935D01*
X-174260563Y23456645D01*
X-174255281Y23463516D01*
X-174244527Y23478992D01*
X-174230231Y23500272D01*
X-174223461Y23510532D01*
X-174207870Y23534049D01*
X-174194648Y23553569D01*
X-174185895Y23566010D01*
X-174184109Y23568321D01*
X-174173983Y23582025D01*
X-174158185Y23605645D01*
X-174137856Y23637326D01*
X-174114133Y23675214D01*
X-174088155Y23717455D01*
X-174061062Y23762196D01*
X-174033992Y23807581D01*
X-174008084Y23851757D01*
X-173984476Y23892870D01*
X-173981259Y23898561D01*
X-173961079Y23934177D01*
X-173938369Y23974008D01*
X-173916942Y24011375D01*
X-173909468Y24024337D01*
X-173890729Y24057578D01*
X-173867405Y24100208D01*
X-173840960Y24149440D01*
X-173812859Y24202485D01*
X-173784565Y24256555D01*
X-173757544Y24308862D01*
X-173733258Y24356618D01*
X-173713173Y24397035D01*
X-173706405Y24411018D01*
X-173689291Y24449645D01*
X-173675651Y24487856D01*
X-173663867Y24530667D01*
X-173654859Y24570788D01*
X-173639621Y24642481D01*
X-173622032Y24723456D01*
X-173602764Y24810739D01*
X-173582489Y24901358D01*
X-173561880Y24992339D01*
X-173541607Y25080708D01*
X-173522343Y25163494D01*
X-173504759Y25237722D01*
X-173495291Y25276932D01*
X-173472246Y25371427D01*
X-173451963Y25454383D01*
X-173434017Y25527476D01*
X-173417983Y25592385D01*
X-173403433Y25650788D01*
X-173389942Y25704363D01*
X-173377085Y25754787D01*
X-173364435Y25803740D01*
X-173351566Y25852898D01*
X-173338053Y25903940D01*
X-173323470Y25958544D01*
X-173307391Y26018388D01*
X-173302442Y26036757D01*
X-173194328Y26425970D01*
X-173082451Y26804981D01*
X-172965873Y27176892D01*
X-172853646Y27515478D01*
X-172832254Y27578276D01*
X-172812679Y27635503D01*
X-172794236Y27689108D01*
X-172776240Y27741038D01*
X-172758008Y27793243D01*
X-172738854Y27847672D01*
X-172718096Y27906274D01*
X-172695047Y27970997D01*
X-172669025Y28043791D01*
X-172639343Y28126605D01*
X-172625654Y28164755D01*
X-172607639Y28214960D01*
X-172588282Y28268939D01*
X-172569059Y28322566D01*
X-172551450Y28371720D01*
X-172536933Y28412275D01*
X-172536706Y28412908D01*
X-172523576Y28449323D01*
X-172511596Y28482014D01*
X-172501698Y28508483D01*
X-172494810Y28526235D01*
X-172492403Y28531885D01*
X-172487189Y28544272D01*
X-172478942Y28565659D01*
X-172469127Y28592214D01*
X-172465143Y28603272D01*
X-172455148Y28630806D01*
X-172446202Y28654686D01*
X-172439751Y28671084D01*
X-172438207Y28674658D01*
X-172433428Y28685874D01*
X-172424810Y28706912D01*
X-172413500Y28734945D01*
X-172400643Y28767146D01*
X-172398193Y28773320D01*
X-172360384Y28864821D01*
X-172321106Y28952680D01*
X-172281152Y29035408D01*
X-172241312Y29111515D01*
X-172202380Y29179512D01*
X-172165146Y29237908D01*
X-172130403Y29285214D01*
X-172118557Y29299359D01*
X-172081774Y29339406D01*
X-172049615Y29369164D01*
X-172019676Y29389982D01*
X-171989557Y29403212D01*
X-171956855Y29410207D01*
X-171919167Y29412317D01*
X-171917781Y29412319D01*
X-171863283Y29406539D01*
X-171812212Y29390048D01*
X-171766848Y29364118D01*
X-171729467Y29330022D01*
X-171704420Y29293181D01*
X-171693058Y29267690D01*
X-171685167Y29240821D01*
X-171680704Y29210650D01*
X-171679624Y29175253D01*
X-171681884Y29132706D01*
X-171687439Y29081086D01*
X-171696244Y29018469D01*
X-171697876Y29007795D01*
X-171716671Y28888223D01*
X-171734468Y28780364D01*
X-171751663Y28682405D01*
X-171768654Y28592534D01*
X-171785838Y28508938D01*
X-171803614Y28429804D01*
X-171822378Y28353319D01*
X-171842529Y28277672D01*
X-171864463Y28201050D01*
X-171888579Y28121639D01*
X-171900675Y28083170D01*
X-171906788Y28063881D01*
X-171916115Y28034417D01*
X-171927773Y27997569D01*
X-171940877Y27956130D01*
X-171954546Y27912889D01*
X-171955521Y27909803D01*
X-171971045Y27860900D01*
X-171987865Y27808286D01*
X-172004569Y27756353D01*
X-172019745Y27709494D01*
X-172029825Y27678647D01*
X-172038781Y27651381D01*
X-172051359Y27613051D01*
X-172066950Y27565515D01*
X-172084946Y27510632D01*
X-172104737Y27450258D01*
X-172125714Y27386252D01*
X-172147267Y27320473D01*
X-172162452Y27274123D01*
X-172184269Y27207551D01*
X-172206130Y27140899D01*
X-172227393Y27076118D01*
X-172247418Y27015160D01*
X-172265562Y26959977D01*
X-172281185Y26912521D01*
X-172293645Y26874743D01*
X-172299844Y26856002D01*
X-172312120Y26818891D01*
X-172327623Y26771926D01*
X-172345343Y26718172D01*
X-172364270Y26660694D01*
X-172383395Y26602559D01*
X-172400646Y26550060D01*
X-172470664Y26338314D01*
X-172537701Y26138680D01*
X-172602154Y25950095D01*
X-172664420Y25771500D01*
X-172724896Y25601835D01*
X-172783978Y25440038D01*
X-172842064Y25285050D01*
X-172899550Y25135810D01*
X-172956833Y24991257D01*
X-173014310Y24850331D01*
X-173072378Y24711971D01*
X-173131434Y24575118D01*
X-173185395Y24453170D01*
X-173201641Y24415444D01*
X-173216854Y24377541D01*
X-173229586Y24343248D01*
X-173238388Y24316351D01*
X-173240019Y24310397D01*
X-173250100Y24268150D01*
X-173262033Y24213457D01*
X-173275637Y24147315D01*
X-173290726Y24070725D01*
X-173307118Y23984683D01*
X-173324629Y23890187D01*
X-173343077Y23788237D01*
X-173362277Y23679830D01*
X-173382047Y23565964D01*
X-173402204Y23447637D01*
X-173422563Y23325849D01*
X-173437389Y23235686D01*
X-173462790Y23076744D01*
X-173487664Y22914477D01*
X-173511864Y22750094D01*
X-173535247Y22584805D01*
X-173557668Y22419819D01*
X-173578983Y22256343D01*
X-173599046Y22095587D01*
X-173617714Y21938760D01*
X-173634841Y21787071D01*
X-173650284Y21641728D01*
X-173663897Y21503940D01*
X-173675536Y21374916D01*
X-173685056Y21255865D01*
X-173692313Y21147996D01*
X-173696404Y21070295D01*
X-173699045Y20997970D01*
X-173700834Y20919747D01*
X-173701803Y20837529D01*
X-173701985Y20753215D01*
X-173701412Y20668706D01*
X-173700115Y20585902D01*
X-173698126Y20506705D01*
X-173695477Y20433014D01*
X-173692200Y20366730D01*
X-173688328Y20309754D01*
X-173683891Y20263986D01*
X-173682689Y20254450D01*
X-173670271Y20166798D01*
X-173657097Y20083267D01*
X-173643433Y20005125D01*
X-173629545Y19933636D01*
X-173615701Y19870067D01*
X-173602167Y19815685D01*
X-173589210Y19771757D01*
X-173577096Y19739548D01*
X-173572112Y19729433D01*
X-173557032Y19706930D01*
X-173540923Y19694996D01*
X-173521231Y19693150D01*
X-173495402Y19700910D01*
X-173474017Y19710926D01*
X-173450874Y19723075D01*
X-173432157Y19733639D01*
X-173421535Y19740534D01*
X-173420983Y19741012D01*
X-173411288Y19749092D01*
X-173395435Y19761431D01*
X-173387737Y19767241D01*
X-173356124Y19792813D01*
X-173318237Y19826575D01*
X-173276401Y19866185D01*
X-173232942Y19909301D01*
X-173190185Y19953581D01*
X-173150457Y19996681D01*
X-173116082Y20036261D01*
X-173096397Y20060686D01*
X-173080904Y20079831D01*
X-173065357Y20097726D01*
X-173065033Y20098079D01*
X-173053733Y20112079D01*
X-173047790Y20125615D01*
X-173047456Y20141334D01*
X-173052983Y20161884D01*
X-173064626Y20189911D01*
X-173076151Y20214563D01*
X-173129463Y20331758D01*
X-173173799Y20441852D01*
X-173209899Y20547256D01*
X-173238503Y20650378D01*
X-173260351Y20753631D01*
X-173276185Y20859424D01*
X-173277408Y20869733D01*
X-173284339Y20949660D01*
X-173287753Y21036606D01*
X-173287750Y21087292D01*
X-172828875Y21087292D01*
X-172828771Y21030318D01*
X-172828370Y20984649D01*
X-172827533Y20947992D01*
X-172826124Y20918057D01*
X-172824005Y20892550D01*
X-172821039Y20869181D01*
X-172817089Y20845657D01*
X-172813199Y20825542D01*
X-172793829Y20738947D01*
X-172772608Y20662778D01*
X-172749883Y20598179D01*
X-172732175Y20558238D01*
X-172722675Y20539087D01*
X-172702659Y20566718D01*
X-172691414Y20582844D01*
X-172674891Y20607298D01*
X-172655169Y20636975D01*
X-172634325Y20668765D01*
X-172630757Y20674252D01*
X-172610886Y20704814D01*
X-172592774Y20732600D01*
X-172578158Y20754951D01*
X-172568776Y20769203D01*
X-172567477Y20771152D01*
X-172558013Y20785968D01*
X-172544801Y20807494D01*
X-172532709Y20827691D01*
X-172516523Y20854854D01*
X-172499355Y20883330D01*
X-172488939Y20900406D01*
X-172368034Y21106020D01*
X-172259015Y21310134D01*
X-172179278Y21474819D01*
X-172164857Y21506103D01*
X-172148387Y21541855D01*
X-172133864Y21573400D01*
X-172086538Y21683461D01*
X-172041834Y21801454D01*
X-172000907Y21923696D01*
X-171964909Y22046499D01*
X-171934995Y22166179D01*
X-171912319Y22279050D01*
X-171911494Y22283866D01*
X-171905659Y22320959D01*
X-171899381Y22365545D01*
X-171892944Y22415096D01*
X-171886634Y22467084D01*
X-171880734Y22518980D01*
X-171875530Y22568257D01*
X-171871305Y22612386D01*
X-171868346Y22648839D01*
X-171866935Y22675088D01*
X-171866856Y22680408D01*
X-171866856Y22706731D01*
X-171972327Y22711436D01*
X-172013287Y22713110D01*
X-172043309Y22713798D01*
X-172065026Y22713334D01*
X-172081071Y22711552D01*
X-172094079Y22708283D01*
X-172106683Y22703360D01*
X-172107866Y22702840D01*
X-172134127Y22686819D01*
X-172165344Y22660453D01*
X-172200047Y22625383D01*
X-172236764Y22583247D01*
X-172274027Y22535685D01*
X-172310363Y22484334D01*
X-172327638Y22457887D01*
X-172340604Y22437972D01*
X-172350948Y22423004D01*
X-172356228Y22416441D01*
X-172361714Y22409238D01*
X-172371794Y22393662D01*
X-172384008Y22373548D01*
X-172413126Y22324100D01*
X-172438895Y22279727D01*
X-172461973Y22239005D01*
X-172483019Y22200511D01*
X-172502691Y22162820D01*
X-172521646Y22124510D01*
X-172540543Y22084156D01*
X-172560040Y22040335D01*
X-172580795Y21991622D01*
X-172603467Y21936594D01*
X-172628714Y21873828D01*
X-172657194Y21801899D01*
X-172689564Y21719385D01*
X-172706763Y21675381D01*
X-172727450Y21620185D01*
X-172748411Y21560254D01*
X-172768544Y21499045D01*
X-172786748Y21440013D01*
X-172801920Y21386613D01*
X-172812960Y21342301D01*
X-172812972Y21342244D01*
X-172817819Y21319475D01*
X-172821574Y21298522D01*
X-172824376Y21277186D01*
X-172826360Y21253268D01*
X-172827665Y21224569D01*
X-172828428Y21188888D01*
X-172828785Y21144027D01*
X-172828875Y21087785D01*
X-172828875Y21087292D01*
X-173287750Y21087292D01*
X-173287750Y21087785D01*
X-173287747Y21126811D01*
X-173284417Y21216514D01*
X-173277861Y21301955D01*
X-173268177Y21379373D01*
X-173263526Y21406832D01*
X-173248047Y21477824D01*
X-173225740Y21560183D01*
X-173196716Y21653581D01*
X-173161088Y21757689D01*
X-173118965Y21872180D01*
X-173070459Y21996727D01*
X-173031208Y22093502D01*
X-173014321Y22133328D01*
X-172994274Y22178679D01*
X-172971938Y22227759D01*
X-172948183Y22278771D01*
X-172923881Y22329916D01*
X-172899902Y22379397D01*
X-172877117Y22425418D01*
X-172856397Y22466181D01*
X-172838613Y22499888D01*
X-172824636Y22524742D01*
X-172815440Y22538818D01*
X-172808673Y22548963D01*
X-172797205Y22567803D01*
X-172782948Y22592153D01*
X-172774574Y22606805D01*
X-172760110Y22631854D01*
X-172747857Y22652180D01*
X-172739503Y22665025D01*
X-172737067Y22667994D01*
X-172731597Y22674823D01*
X-172720626Y22690555D01*
X-172705922Y22712604D01*
X-172694330Y22730451D01*
X-172677040Y22756749D01*
X-172661161Y22779834D01*
X-172648903Y22796545D01*
X-172644040Y22802372D01*
X-172621260Y22828124D01*
X-172592820Y22863879D01*
X-172586552Y22872089D01*
X-172567491Y22895119D01*
X-172542451Y22922412D01*
X-172513638Y22951867D01*
X-172483259Y22981382D01*
X-172453524Y23008856D01*
X-172426637Y23032188D01*
X-172404807Y23049277D01*
X-172392057Y23057239D01*
X-172380411Y23064579D01*
X-172376760Y23069624D01*
X-172371230Y23075041D01*
X-172356621Y23084994D01*
X-172335909Y23097722D01*
X-172312067Y23111465D01*
X-172288070Y23124463D01*
X-172266892Y23134957D01*
X-172264581Y23136010D01*
X-172233645Y23147907D01*
X-172199154Y23156974D01*
X-172159451Y23163347D01*
X-172112880Y23167163D01*
X-172057783Y23168560D01*
X-171992503Y23167676D01*
X-171917847Y23164767D01*
X-171842839Y23159837D01*
X-171779286Y23152505D01*
X-171725174Y23142229D01*
X-171678488Y23128466D01*
X-171637216Y23110677D01*
X-171599341Y23088317D01*
X-171578844Y23073582D01*
X-171556759Y23056389D01*
X-171541528Y23043113D01*
X-171529034Y23029638D01*
X-171515157Y23011852D01*
X-171509716Y23004530D01*
X-171497251Y22988108D01*
X-171487980Y22976678D01*
X-171485374Y22973936D01*
X-171479951Y22965366D01*
X-171471357Y22947316D01*
X-171460962Y22923123D01*
X-171450135Y22896126D01*
X-171440245Y22869661D01*
X-171432661Y22847066D01*
X-171430990Y22841361D01*
X-171427311Y22822675D01*
X-171424661Y22795992D01*
X-171422966Y22759854D01*
X-171422153Y22712803D01*
X-171422095Y22664594D01*
X-171427364Y22503656D01*
X-171442108Y22343389D01*
X-171466615Y22182507D01*
X-171501172Y22019720D01*
X-171546068Y21853741D01*
X-171601590Y21683281D01*
X-171668026Y21507052D01*
X-171696153Y21438403D01*
X-171711525Y21402085D01*
X-171727299Y21365547D01*
X-171741607Y21333075D01*
X-171752453Y21309228D01*
X-171765302Y21281817D01*
X-171781146Y21248040D01*
X-171797198Y21213840D01*
X-171802349Y21202870D01*
X-171830285Y21145301D01*
X-171863943Y21079070D01*
X-171901774Y21007007D01*
X-171942228Y20931941D01*
X-171983758Y20856700D01*
X-172024814Y20784115D01*
X-172063848Y20717013D01*
X-172099310Y20658224D01*
X-172109432Y20641976D01*
X-172129975Y20609276D01*
X-172151710Y20574623D01*
X-172171336Y20543284D01*
X-172180119Y20529235D01*
X-172202429Y20494092D01*
X-172228637Y20453751D01*
X-172257284Y20410367D01*
X-172286914Y20366092D01*
X-172316071Y20323080D01*
X-172343296Y20283484D01*
X-172367133Y20249457D01*
X-172386125Y20223154D01*
X-172396024Y20210152D01*
X-172407842Y20192907D01*
X-172420054Y20171464D01*
X-172430430Y20150220D01*
X-172436739Y20133572D01*
X-172437670Y20128076D01*
X-172432011Y20116919D01*
X-172416775Y20101009D01*
X-172396627Y20084482D01*
X-172375623Y20068573D01*
X-172358264Y20055164D01*
X-172348005Y20046926D01*
X-172347489Y20046477D01*
X-172338701Y20040309D01*
X-172320730Y20028798D01*
X-172296093Y20013525D01*
X-172267311Y19996070D01*
X-172263792Y19993960D01*
X-172177123Y19947679D01*
X-172086184Y19910420D01*
X-171989563Y19881846D01*
X-171885846Y19861619D01*
X-171773622Y19849402D01*
X-171651477Y19844859D01*
X-171639099Y19844814D01*
X-171507362Y19848643D01*
X-171379853Y19860664D01*
X-171255106Y19881324D01*
X-171131653Y19911072D01*
X-171008029Y19950356D01*
X-170882767Y19999624D01*
X-170754399Y20059324D01*
X-170621459Y20129905D01*
X-170527510Y20184458D01*
X-170472622Y20217575D01*
X-170424232Y20247232D01*
X-170383395Y20272759D01*
X-170351165Y20293488D01*
X-170328599Y20308752D01*
X-170316750Y20317883D01*
X-170316749Y20317884D01*
X-170306206Y20326531D01*
X-170288262Y20339964D01*
X-170266757Y20355312D01*
X-170266237Y20355674D01*
X-170240620Y20374362D01*
X-170214754Y20394568D01*
X-170197384Y20409187D01*
X-170155039Y20446073D01*
X-170112824Y20480858D01*
X-170102632Y20489005D01*
X-170089785Y20500081D01*
X-170068818Y20519160D01*
X-170041324Y20544733D01*
X-170008896Y20575289D01*
X-169973128Y20609316D01*
X-169935613Y20645303D01*
X-169897944Y20681740D01*
X-169861715Y20717116D01*
X-169851624Y20727040D01*
X-169828481Y20750802D01*
X-169804287Y20777118D01*
X-169788740Y20795027D01*
X-169771738Y20815321D01*
X-169756462Y20833421D01*
X-169747947Y20843400D01*
X-169736456Y20856884D01*
X-169720649Y20875646D01*
X-169710652Y20887592D01*
X-169693485Y20907836D01*
X-169677062Y20926676D01*
X-169669860Y20934672D01*
X-169655524Y20951088D01*
X-169638838Y20971344D01*
X-169633478Y20978109D01*
X-169619939Y20995120D01*
X-169609075Y21008238D01*
X-169605960Y21011752D01*
X-169598591Y21020684D01*
X-169585806Y21037184D01*
X-169570233Y21057855D01*
X-169568567Y21060097D01*
X-169552867Y21080885D01*
X-169539660Y21097708D01*
X-169531566Y21107237D01*
X-169531110Y21107688D01*
X-169523054Y21116979D01*
X-169510801Y21132808D01*
X-169504274Y21141682D01*
X-169492031Y21158164D01*
X-169482917Y21169597D01*
X-169480391Y21172276D01*
X-169474584Y21179090D01*
X-169463180Y21193920D01*
X-169448503Y21213736D01*
X-169446514Y21216468D01*
X-169431571Y21236704D01*
X-169419580Y21252340D01*
X-169412875Y21260343D01*
X-169412520Y21260660D01*
X-169406655Y21267475D01*
X-169395207Y21282309D01*
X-169380509Y21302129D01*
X-169378527Y21304851D01*
X-169363620Y21325081D01*
X-169351714Y21340715D01*
X-169345125Y21348723D01*
X-169344784Y21349043D01*
X-169339033Y21355966D01*
X-169327941Y21370802D01*
X-169314269Y21389835D01*
X-169299630Y21409969D01*
X-169287233Y21425984D01*
X-169280136Y21434027D01*
X-169272354Y21443117D01*
X-169260200Y21459604D01*
X-169249741Y21474819D01*
X-169236229Y21494264D01*
X-169224728Y21509413D01*
X-169219147Y21515611D01*
X-169211228Y21524677D01*
X-169198906Y21541119D01*
X-169188248Y21556404D01*
X-169175409Y21575030D01*
X-169165513Y21588724D01*
X-169161378Y21593797D01*
X-169155709Y21600574D01*
X-169144333Y21615328D01*
X-169129559Y21635054D01*
X-169127390Y21637988D01*
X-169112261Y21658174D01*
X-169100118Y21673794D01*
X-169093309Y21681838D01*
X-169092925Y21682180D01*
X-169087293Y21689093D01*
X-169076309Y21704341D01*
X-169062125Y21724919D01*
X-169058851Y21729771D01*
X-169043485Y21752104D01*
X-169030056Y21770699D01*
X-169021116Y21782036D01*
X-169020244Y21782971D01*
X-169011545Y21793463D01*
X-168998737Y21810757D01*
X-168989640Y21823763D01*
X-168976268Y21842557D01*
X-168964984Y21857059D01*
X-168960124Y21862346D01*
X-168951547Y21872096D01*
X-168939835Y21887974D01*
X-168936457Y21892940D01*
X-168923678Y21910874D01*
X-168912001Y21925323D01*
X-168909908Y21927560D01*
X-168899976Y21938540D01*
X-168885158Y21955941D01*
X-168872125Y21971752D01*
X-168842163Y22006258D01*
X-168806998Y22042947D01*
X-168769568Y22079055D01*
X-168732810Y22111818D01*
X-168699660Y22138472D01*
X-168681545Y22151142D01*
X-168659262Y22165682D01*
X-168641680Y22177624D01*
X-168631741Y22184953D01*
X-168630668Y22185978D01*
X-168620823Y22193234D01*
X-168601158Y22203906D01*
X-168574603Y22216687D01*
X-168544087Y22230265D01*
X-168512540Y22243333D01*
X-168482892Y22254581D01*
X-168460700Y22261933D01*
X-168383404Y22280871D01*
X-168312362Y22289578D01*
X-168245192Y22288325D01*
X-168236343Y22287413D01*
X-168159942Y22273311D01*
X-168091180Y22248762D01*
X-168028892Y22213078D01*
X-167971916Y22165571D01*
X-167919088Y22105554D01*
X-167911244Y22095152D01*
X-167890259Y22064678D01*
X-167870181Y22030853D01*
X-167850563Y21992512D01*
X-167830961Y21948490D01*
X-167810930Y21897623D01*
X-167790024Y21838747D01*
X-167767797Y21770696D01*
X-167743806Y21692307D01*
X-167717603Y21602414D01*
X-167702638Y21549605D01*
X-167684047Y21483500D01*
X-167668610Y21428736D01*
X-167655816Y21383564D01*
X-167645152Y21346230D01*
X-167636107Y21314983D01*
X-167628170Y21288071D01*
X-167620828Y21263743D01*
X-167613571Y21240246D01*
X-167605886Y21215830D01*
X-167597261Y21188741D01*
X-167596866Y21187505D01*
X-167568326Y21101298D01*
X-167541424Y21027048D01*
X-167515437Y20963320D01*
X-167489641Y20908681D01*
X-167463314Y20861696D01*
X-167435732Y20820931D01*
X-167406172Y20784952D01*
X-167380528Y20758570D01*
X-167333894Y20719366D01*
X-167284959Y20689980D01*
X-167231124Y20669375D01*
X-167169790Y20656513D01*
X-167110623Y20650939D01*
X-167060251Y20649831D01*
X-167011466Y20651664D01*
X-166978048Y20655099D01*
X-166917093Y20665775D01*
X-166852038Y20680521D01*
X-166786398Y20698306D01*
X-166723692Y20718099D01*
X-166667434Y20738868D01*
X-166621144Y20759583D01*
X-166620357Y20759982D01*
X-166600818Y20770861D01*
X-166581211Y20784035D01*
X-166559431Y20801212D01*
X-166533368Y20824099D01*
X-166500915Y20854404D01*
X-166484895Y20869733D01*
X-166433337Y20918744D01*
X-166389844Y20958809D01*
X-166353249Y20990966D01*
X-166322386Y21016253D01*
X-166309017Y21026441D01*
X-166288698Y21042433D01*
X-166270001Y21058649D01*
X-166264825Y21063595D01*
X-166247536Y21079139D01*
X-166227219Y21095183D01*
X-166224015Y21097497D01*
X-166206250Y21110673D01*
X-166191760Y21122388D01*
X-166189300Y21124593D01*
X-166176702Y21135521D01*
X-166159755Y21149272D01*
X-166156424Y21151880D01*
X-166113403Y21186973D01*
X-166064342Y21230132D01*
X-166008509Y21282032D01*
X-165945169Y21343346D01*
X-165904791Y21383402D01*
X-165873329Y21415025D01*
X-165835972Y21452862D01*
X-165794050Y21495541D01*
X-165748893Y21541693D01*
X-165701831Y21589946D01*
X-165654194Y21638929D01*
X-165607311Y21687273D01*
X-165562513Y21733607D01*
X-165521129Y21776560D01*
X-165484490Y21814761D01*
X-165453925Y21846839D01*
X-165430765Y21871425D01*
X-165420921Y21882071D01*
X-165397151Y21907700D01*
X-165369625Y21936793D01*
X-165344182Y21963180D01*
X-165343489Y21963889D01*
X-165319387Y21989134D01*
X-165291524Y22019229D01*
X-165264970Y22048682D01*
X-165258505Y22056012D01*
X-165234513Y22082909D01*
X-165209075Y22110657D01*
X-165186582Y22134488D01*
X-165180320Y22140917D01*
X-165156811Y22165710D01*
X-165131608Y22193718D01*
X-165115732Y22212248D01*
X-165094875Y22236718D01*
X-165070163Y22264776D01*
X-165048069Y22289125D01*
X-165024375Y22314819D01*
X-165006847Y22334206D01*
X-164992338Y22350884D01*
X-164977698Y22368453D01*
X-164965078Y22383957D01*
X-164947645Y22404826D01*
X-164926459Y22429286D01*
X-164911771Y22445761D01*
X-164889659Y22470247D01*
X-164874156Y22487726D01*
X-164862674Y22501206D01*
X-164852628Y22513698D01*
X-164845717Y22522615D01*
X-164808845Y22569342D01*
X-164783788Y22599044D01*
X-164772770Y22612244D01*
X-164756236Y22632859D01*
X-164736901Y22657481D01*
X-164726136Y22671393D01*
X-164702436Y22702125D01*
X-164685275Y22724155D01*
X-164672953Y22739598D01*
X-164663770Y22750569D01*
X-164656026Y22759184D01*
X-164653079Y22762310D01*
X-164644999Y22772079D01*
X-164631047Y22790219D01*
X-164613261Y22814040D01*
X-164595769Y22837961D01*
X-164576657Y22864047D01*
X-164559921Y22886325D01*
X-164547453Y22902315D01*
X-164541365Y22909348D01*
X-164534710Y22917263D01*
X-164522040Y22933977D01*
X-164505105Y22957127D01*
X-164485658Y22984351D01*
X-164483412Y22987533D01*
X-164463585Y23015379D01*
X-164445881Y23039725D01*
X-164432123Y23058098D01*
X-164424139Y23068022D01*
X-164423751Y23068432D01*
X-164416527Y23077536D01*
X-164403603Y23095470D01*
X-164386757Y23119708D01*
X-164367770Y23147725D01*
X-164366237Y23150016D01*
X-164347711Y23177495D01*
X-164331761Y23200702D01*
X-164319967Y23217372D01*
X-164313907Y23225242D01*
X-164313639Y23225488D01*
X-164308864Y23231854D01*
X-164297649Y23248079D01*
X-164281010Y23272651D01*
X-164259965Y23304060D01*
X-164235530Y23340795D01*
X-164208722Y23381345D01*
X-164208383Y23381859D01*
X-164166123Y23446066D01*
X-164130229Y23500827D01*
X-164099510Y23548001D01*
X-164072773Y23589443D01*
X-164048826Y23627011D01*
X-164026477Y23662563D01*
X-164004534Y23697955D01*
X-163985046Y23729732D01*
X-163972267Y23751630D01*
X-163955517Y23781812D01*
X-163935563Y23818771D01*
X-163913172Y23860997D01*
X-163889112Y23906982D01*
X-163864152Y23955216D01*
X-163839057Y24004191D01*
X-163814597Y24052399D01*
X-163791538Y24098329D01*
X-163770649Y24140474D01*
X-163752696Y24177325D01*
X-163738449Y24207372D01*
X-163728673Y24229108D01*
X-163724138Y24241022D01*
X-163724019Y24242786D01*
X-163731457Y24243215D01*
X-163750673Y24242653D01*
X-163779889Y24241199D01*
X-163817330Y24238953D01*
X-163861219Y24236013D01*
X-163909780Y24232479D01*
X-163913434Y24232202D01*
X-164094974Y24218787D01*
X-164264720Y24207035D01*
X-164424365Y24196879D01*
X-164575601Y24188254D01*
X-164720121Y24181094D01*
X-164859618Y24175333D01*
X-164995786Y24170905D01*
X-165130316Y24167744D01*
X-165264902Y24165784D01*
X-165401236Y24164959D01*
X-165541011Y24165203D01*
X-165618837Y24165759D01*
X-165723704Y24166850D01*
X-165816844Y24168209D01*
X-165900126Y24169936D01*
X-165975419Y24172134D01*
X-166044593Y24174903D01*
X-166109518Y24178345D01*
X-166172061Y24182561D01*
X-166234094Y24187652D01*
X-166297484Y24193719D01*
X-166364101Y24200864D01*
X-166435815Y24209187D01*
X-166448280Y24210683D01*
X-166637741Y24237097D01*
X-166820814Y24269834D01*
X-166996348Y24308601D01*
X-167163194Y24353102D01*
X-167320201Y24403043D01*
X-167466220Y24458132D01*
X-167540427Y24490064D01*
X-167576409Y24506632D01*
X-167617462Y24526104D01*
X-167661741Y24547547D01*
X-167707402Y24570029D01*
X-167752598Y24592619D01*
X-167795486Y24614385D01*
X-167834220Y24634395D01*
X-167866955Y24651716D01*
X-167891847Y24665417D01*
X-167907050Y24674567D01*
X-167910004Y24676743D01*
X-167920034Y24684043D01*
X-167938525Y24696372D01*
X-167962337Y24711661D01*
X-167976298Y24720417D01*
X-168009598Y24741621D01*
X-168035156Y24759295D01*
X-168057147Y24776466D01*
X-168075777Y24792592D01*
X-168085478Y24800494D01*
X-168101497Y24812849D01*
X-168110566Y24819672D01*
X-168136084Y24838882D01*
X-168153715Y24852709D01*
X-168166606Y24863719D01*
X-168177905Y24874473D01*
X-168178043Y24874610D01*
X-168258449Y24960576D01*
X-168326261Y25046522D01*
X-168382383Y25134089D01*
X-168427716Y25224919D01*
X-168463163Y25320653D01*
X-168489627Y25422935D01*
X-168495382Y25452067D01*
X-168512906Y25583646D01*
X-168515147Y25654292D01*
X-168042337Y25654292D01*
X-168030271Y25549813D01*
X-168018437Y25495281D01*
X-168000286Y25436134D01*
X-167976376Y25380846D01*
X-167945886Y25328647D01*
X-167907996Y25278769D01*
X-167861885Y25230444D01*
X-167806734Y25182901D01*
X-167741721Y25135373D01*
X-167666026Y25087090D01*
X-167578829Y25037284D01*
X-167479309Y24985186D01*
X-167468088Y24979540D01*
X-167355797Y24926034D01*
X-167243866Y24878588D01*
X-167130508Y24836715D01*
X-167013935Y24799929D01*
X-166892359Y24767743D01*
X-166763993Y24739670D01*
X-166627047Y24715224D01*
X-166479736Y24693918D01*
X-166370095Y24680679D01*
X-166303379Y24673794D01*
X-166225915Y24666820D01*
X-166140553Y24659952D01*
X-166050138Y24653387D01*
X-165957519Y24647323D01*
X-165865544Y24641956D01*
X-165777059Y24637482D01*
X-165697022Y24634174D01*
X-165683599Y24634066D01*
X-165658037Y24634218D01*
X-165621789Y24634611D01*
X-165576313Y24635222D01*
X-165523061Y24636031D01*
X-165463490Y24637017D01*
X-165399055Y24638158D01*
X-165331209Y24639433D01*
X-165319694Y24639657D01*
X-165207706Y24641981D01*
X-165103503Y24644464D01*
X-165005205Y24647196D01*
X-164910933Y24650265D01*
X-164818806Y24653762D01*
X-164726946Y24657776D01*
X-164633473Y24662396D01*
X-164536506Y24667711D01*
X-164434167Y24673812D01*
X-164324576Y24680787D01*
X-164205853Y24688727D01*
X-164076118Y24697719D01*
X-164027938Y24701120D01*
X-163932516Y24707983D01*
X-163845836Y24714424D01*
X-163768499Y24720392D01*
X-163701107Y24725836D01*
X-163644263Y24730703D01*
X-163598567Y24734942D01*
X-163564622Y24738502D01*
X-163543030Y24741331D01*
X-163534392Y24743378D01*
X-163534347Y24743419D01*
X-163531695Y24750726D01*
X-163526520Y24768593D01*
X-163519555Y24794379D01*
X-163511535Y24825442D01*
X-163511090Y24827203D01*
X-163479509Y24958140D01*
X-163453548Y25079338D01*
X-163432891Y25193290D01*
X-163417223Y25302490D01*
X-163406228Y25409434D01*
X-163399591Y25516616D01*
X-163396997Y25626529D01*
X-163397737Y25724016D01*
X-163401850Y25844581D01*
X-163409299Y25954193D01*
X-163420457Y26055169D01*
X-163435695Y26149827D01*
X-163455387Y26240483D01*
X-163479902Y26329456D01*
X-163509051Y26417485D01*
X-163519895Y26446184D01*
X-163534225Y26481660D01*
X-163550956Y26521466D01*
X-163568998Y26563151D01*
X-163587266Y26604265D01*
X-163604672Y26642360D01*
X-163620129Y26674984D01*
X-163632551Y26699689D01*
X-163640302Y26713229D01*
X-163649057Y26727426D01*
X-163661690Y26749238D01*
X-163675671Y26774286D01*
X-163677601Y26777817D01*
X-163689518Y26798570D01*
X-163706124Y26825962D01*
X-163726039Y26857872D01*
X-163747884Y26892182D01*
X-163770279Y26926771D01*
X-163791846Y26959519D01*
X-163811206Y26988307D01*
X-163826979Y27011015D01*
X-163837786Y27025524D01*
X-163841263Y27029369D01*
X-163848481Y27037214D01*
X-163862002Y27053408D01*
X-163879837Y27075525D01*
X-163898373Y27099054D01*
X-163922304Y27128126D01*
X-163953015Y27163008D01*
X-163988262Y27201372D01*
X-164025801Y27240890D01*
X-164063388Y27279236D01*
X-164098780Y27314080D01*
X-164129732Y27343097D01*
X-164152907Y27363085D01*
X-164174929Y27381073D01*
X-164196223Y27398989D01*
X-164207297Y27408630D01*
X-164238438Y27433669D01*
X-164279623Y27462667D01*
X-164328403Y27494211D01*
X-164382328Y27526890D01*
X-164438950Y27559293D01*
X-164495820Y27590007D01*
X-164550490Y27617620D01*
X-164600511Y27640722D01*
X-164633023Y27654056D01*
X-164756061Y27694361D01*
X-164887463Y27724945D01*
X-165026061Y27745785D01*
X-165170685Y27756854D01*
X-165320165Y27758128D01*
X-165473331Y27749580D01*
X-165629014Y27731186D01*
X-165786045Y27702920D01*
X-165880588Y27681170D01*
X-166050127Y27633440D01*
X-166225231Y27573340D01*
X-166405860Y27500885D01*
X-166591969Y27416092D01*
X-166674549Y27375400D01*
X-166707939Y27358168D01*
X-166745962Y27337860D01*
X-166786800Y27315520D01*
X-166828631Y27292192D01*
X-166869635Y27268918D01*
X-166907994Y27246743D01*
X-166941887Y27226709D01*
X-166969493Y27209860D01*
X-166988994Y27197240D01*
X-166998569Y27189892D01*
X-166998976Y27189397D01*
X-167005704Y27183842D01*
X-167021278Y27172531D01*
X-167043217Y27157232D01*
X-167063564Y27143389D01*
X-167090199Y27125121D01*
X-167113782Y27108343D01*
X-167131261Y27095259D01*
X-167138350Y27089367D01*
X-167152115Y27077481D01*
X-167170928Y27062494D01*
X-167179008Y27056359D01*
X-167211635Y27031389D01*
X-167238089Y27009507D01*
X-167260253Y26989540D01*
X-167275430Y26975692D01*
X-167296750Y26956588D01*
X-167320106Y26935906D01*
X-167324834Y26931751D01*
X-167361578Y26898320D01*
X-167404331Y26857472D01*
X-167450218Y26812080D01*
X-167496361Y26765018D01*
X-167539884Y26719161D01*
X-167565097Y26691704D01*
X-167669420Y26569854D01*
X-167761071Y26449251D01*
X-167839983Y26330065D01*
X-167906093Y26212469D01*
X-167959335Y26096632D01*
X-167999645Y25982725D01*
X-168026959Y25870919D01*
X-168041211Y25761384D01*
X-168042337Y25654292D01*
X-168515147Y25654292D01*
X-168517148Y25717351D01*
X-168508170Y25852681D01*
X-168486029Y25989136D01*
X-168450787Y26126216D01*
X-168402504Y26263418D01*
X-168396557Y26278111D01*
X-168384466Y26306441D01*
X-168369323Y26340146D01*
X-168352167Y26377106D01*
X-168334034Y26415200D01*
X-168315963Y26452308D01*
X-168298989Y26486309D01*
X-168284151Y26515081D01*
X-168272485Y26536505D01*
X-168265029Y26548460D01*
X-168263543Y26550060D01*
X-168257448Y26557888D01*
X-168248765Y26572781D01*
X-168247119Y26575934D01*
X-168239694Y26588639D01*
X-168226493Y26609622D01*
X-168209450Y26635959D01*
X-168190499Y26664731D01*
X-168171575Y26693013D01*
X-168154613Y26717886D01*
X-168141547Y26736426D01*
X-168135957Y26743823D01*
X-168129966Y26751564D01*
X-168117509Y26767895D01*
X-168100312Y26790549D01*
X-168080095Y26817260D01*
X-168076507Y26822009D01*
X-168053873Y26851374D01*
X-168031738Y26879051D01*
X-168012594Y26901988D01*
X-167998932Y26917132D01*
X-167998585Y26917482D01*
X-167980297Y26936867D01*
X-167959502Y26960371D01*
X-167947819Y26974260D01*
X-167928149Y26997346D01*
X-167904747Y27023507D01*
X-167887538Y27041955D01*
X-167842055Y27089350D01*
X-167804571Y27128108D01*
X-167773794Y27159526D01*
X-167748431Y27184894D01*
X-167727192Y27205507D01*
X-167708783Y27222658D01*
X-167692961Y27236730D01*
X-167667407Y27259283D01*
X-167640827Y27283278D01*
X-167618742Y27303727D01*
X-167617697Y27304717D01*
X-167597662Y27323207D01*
X-167578746Y27339813D01*
X-167567627Y27348909D01*
X-167549036Y27363489D01*
X-167533551Y27376104D01*
X-167517962Y27388920D01*
X-167498395Y27404727D01*
X-167491675Y27410097D01*
X-167473869Y27424742D01*
X-167459109Y27437673D01*
X-167455174Y27441423D01*
X-167445447Y27449639D01*
X-167427305Y27463643D01*
X-167403450Y27481389D01*
X-167379704Y27498598D01*
X-167354003Y27517188D01*
X-167332538Y27533066D01*
X-167317644Y27544483D01*
X-167311717Y27549585D01*
X-167305018Y27554684D01*
X-167288874Y27565523D01*
X-167265416Y27580710D01*
X-167236776Y27598855D01*
X-167223334Y27607260D01*
X-167193118Y27626241D01*
X-167167161Y27642849D01*
X-167147595Y27655698D01*
X-167136551Y27663399D01*
X-167134951Y27664786D01*
X-167127231Y27670373D01*
X-167109205Y27681181D01*
X-167082674Y27696245D01*
X-167049441Y27714600D01*
X-167011307Y27735281D01*
X-166970076Y27757322D01*
X-166927548Y27779759D01*
X-166885526Y27801627D01*
X-166845813Y27821960D01*
X-166810210Y27839794D01*
X-166787364Y27850913D01*
X-166617349Y27927898D01*
X-166444241Y27997914D01*
X-166270421Y28060151D01*
X-166098267Y28113797D01*
X-165930162Y28158043D01*
X-165807082Y28184784D01*
X-165667551Y28207943D01*
X-165523735Y28223871D01*
X-165377788Y28232620D01*
X-165231866Y28234242D01*
X-165088122Y28228788D01*
X-164948711Y28216311D01*
X-164815787Y28196863D01*
X-164691504Y28170495D01*
X-164639822Y28156631D01*
X-164515298Y28115663D01*
X-164387891Y28063970D01*
X-164260601Y28003084D01*
X-164136427Y27934540D01*
X-164018371Y27859871D01*
X-163919424Y27788385D01*
X-163903808Y27775808D01*
X-163881633Y27757269D01*
X-163854932Y27734540D01*
X-163825737Y27709390D01*
X-163796079Y27683590D01*
X-163767991Y27658911D01*
X-163743505Y27637123D01*
X-163724654Y27619997D01*
X-163713468Y27609303D01*
X-163711798Y27607479D01*
X-163698340Y27591728D01*
X-163678618Y27569390D01*
X-163655379Y27543496D01*
X-163631369Y27517075D01*
X-163609335Y27493160D01*
X-163592024Y27474780D01*
X-163585551Y27468169D01*
X-163565783Y27446874D01*
X-163546211Y27423267D01*
X-163541398Y27416896D01*
X-163529140Y27400459D01*
X-163520175Y27389028D01*
X-163517756Y27386302D01*
X-163512106Y27379611D01*
X-163500538Y27364967D01*
X-163485332Y27345262D01*
X-163481921Y27340793D01*
X-163465433Y27319424D01*
X-163451291Y27301584D01*
X-163442195Y27290671D01*
X-163441397Y27289803D01*
X-163434999Y27281396D01*
X-163422565Y27263665D01*
X-163405500Y27238668D01*
X-163385212Y27208461D01*
X-163367880Y27182340D01*
X-163314531Y27098555D01*
X-163263817Y27013156D01*
X-163217674Y26929573D01*
X-163178039Y26851236D01*
X-163164767Y26822852D01*
X-163150729Y26792237D01*
X-163138266Y26765455D01*
X-163128701Y26745322D01*
X-163123356Y26734655D01*
X-163123251Y26734469D01*
X-163118238Y26723264D01*
X-163109704Y26701648D01*
X-163098535Y26672070D01*
X-163085617Y26636983D01*
X-163071835Y26598837D01*
X-163058076Y26560083D01*
X-163045224Y26523174D01*
X-163034166Y26490560D01*
X-163025907Y26465076D01*
X-162985805Y26317343D01*
X-162955597Y26164278D01*
X-162943871Y26081940D01*
X-162931293Y25954867D01*
X-162923701Y25821054D01*
X-162921000Y25683239D01*
X-162923093Y25544156D01*
X-162929884Y25406541D01*
X-162941276Y25273129D01*
X-162957174Y25146657D01*
X-162977480Y25029860D01*
X-162981580Y25010151D01*
X-162992948Y24956554D01*
X-163002828Y24909144D01*
X-163010924Y24869394D01*
X-163016941Y24838775D01*
X-163020582Y24818759D01*
X-163021587Y24811289D01*
X-163020280Y24808367D01*
X-163015806Y24806153D01*
X-163007500Y24804712D01*
X-162994697Y24804110D01*
X-162976732Y24804413D01*
X-162952940Y24805687D01*
X-162922655Y24807998D01*
X-162885213Y24811412D01*
X-162839947Y24815995D01*
X-162786193Y24821813D01*
X-162723286Y24828932D01*
X-162650560Y24837417D01*
X-162567350Y24847335D01*
X-162472991Y24858752D01*
X-162366817Y24871733D01*
X-162248164Y24886345D01*
X-162182087Y24894513D01*
X-162058357Y24909809D01*
X-161946716Y24923574D01*
X-161845761Y24935975D01*
X-161754089Y24947179D01*
X-161670299Y24957353D01*
X-161592988Y24966665D01*
X-161520752Y24975281D01*
X-161452191Y24983368D01*
X-161385901Y24991094D01*
X-161320480Y24998626D01*
X-161254525Y25006130D01*
X-161186634Y25013774D01*
X-161115405Y25021724D01*
X-161097692Y25023693D01*
X-161064930Y25027231D01*
X-161019818Y25031950D01*
X-160963542Y25037732D01*
X-160897286Y25044459D01*
X-160822235Y25052014D01*
X-160739576Y25060277D01*
X-160650494Y25069132D01*
X-160556173Y25078460D01*
X-160457798Y25088143D01*
X-160356556Y25098065D01*
X-160253632Y25108106D01*
X-160150210Y25118148D01*
X-160074485Y25125470D01*
X-159931190Y25139399D01*
X-159798211Y25152560D01*
X-159674051Y25165147D01*
X-159557213Y25177349D01*
X-159446200Y25189358D01*
X-159339514Y25201364D01*
X-159235659Y25213559D01*
X-159133138Y25226135D01*
X-159030454Y25239281D01*
X-158926108Y25253189D01*
X-158818605Y25268050D01*
X-158706447Y25284055D01*
X-158588137Y25301395D01*
X-158462178Y25320262D01*
X-158327073Y25340845D01*
X-158181325Y25363337D01*
X-158048468Y25384018D01*
X-157991137Y25392938D01*
X-157923983Y25403334D01*
X-157850624Y25414648D01*
X-157774681Y25426324D01*
X-157699774Y25437805D01*
X-157629524Y25448533D01*
X-157606551Y25452030D01*
X-157549637Y25460706D01*
X-157496287Y25468874D01*
X-157448163Y25476278D01*
X-157406927Y25482661D01*
X-157374239Y25487765D01*
X-157351763Y25491334D01*
X-157341401Y25493064D01*
X-157323142Y25496136D01*
X-157293037Y25500796D01*
X-157252712Y25506815D01*
X-157203798Y25513965D01*
X-157147922Y25522017D01*
X-157086713Y25530742D01*
X-157021799Y25539910D01*
X-156954809Y25549293D01*
X-156887372Y25558663D01*
X-156821115Y25567790D01*
X-156757668Y25576445D01*
X-156698659Y25584400D01*
X-156645716Y25591425D01*
X-156600468Y25597292D01*
X-156593543Y25598173D01*
X-156539261Y25604904D01*
X-156473532Y25612814D01*
X-156398201Y25621696D01*
X-156315113Y25631345D01*
X-156226114Y25641554D01*
X-156133050Y25652118D01*
X-156037765Y25662830D01*
X-155942106Y25673484D01*
X-155847918Y25683875D01*
X-155757047Y25693797D01*
X-155671337Y25703042D01*
X-155592636Y25711406D01*
X-155522787Y25718683D01*
X-155463637Y25724666D01*
X-155437761Y25727193D01*
X-155335659Y25736817D01*
X-155225715Y25746814D01*
X-155107439Y25757223D01*
X-154980341Y25768084D01*
X-154843929Y25779436D01*
X-154697714Y25791318D01*
X-154541205Y25803768D01*
X-154373911Y25816827D01*
X-154195343Y25830533D01*
X-154005010Y25844925D01*
X-153802421Y25860043D01*
X-153587086Y25875926D01*
X-153432140Y25887255D01*
X-153282264Y25898209D01*
X-153144912Y25908331D01*
X-153019043Y25917716D01*
X-152903618Y25926465D01*
X-152797594Y25934673D01*
X-152699931Y25942439D01*
X-152609589Y25949861D01*
X-152525525Y25957037D01*
X-152446699Y25964064D01*
X-152372071Y25971041D01*
X-152300599Y25978064D01*
X-152231243Y25985233D01*
X-152162961Y25992645D01*
X-152094713Y26000397D01*
X-152025457Y26008587D01*
X-151954153Y26017314D01*
X-151879760Y26026675D01*
X-151801237Y26036769D01*
X-151717543Y26047692D01*
X-151698468Y26050198D01*
X-151576016Y26065821D01*
X-151452728Y26080627D01*
X-151329803Y26094515D01*
X-151208443Y26107384D01*
X-151089849Y26119131D01*
X-150975220Y26129655D01*
X-150865758Y26138855D01*
X-150762664Y26146629D01*
X-150667138Y26152877D01*
X-150580381Y26157496D01*
X-150503594Y26160386D01*
X-150437978Y26161444D01*
X-150389715Y26160755D01*
X-150328307Y26156759D01*
X-150279951Y26149451D01*
X-150244503Y26138798D01*
X-150221820Y26124770D01*
X-150221200Y26124162D01*
X-150209101Y26114379D01*
X-150194005Y26104378D01*
X-150171228Y26084249D01*
X-150150363Y26054018D01*
X-150132853Y26017172D01*
X-150120141Y25977199D01*
X-150113670Y25937584D01*
X-150113755Y25910488D01*
X-150125370Y25852668D01*
X-150148359Y25801979D01*
X-150182128Y25759193D01*
X-150226079Y25725085D01*
X-150274137Y25702341D01*
X-150280558Y25700385D01*
X-150289168Y25698561D01*
X-150301029Y25696797D01*
X-150317204Y25695019D01*
X-150338752Y25693157D01*
X-150366735Y25691135D01*
X-150402216Y25688883D01*
X-150446255Y25686326D01*
X-150499914Y25683393D01*
X-150564254Y25680010D01*
X-150640337Y25676105D01*
X-150704156Y25672871D01*
X-150775501Y25668830D01*
X-150850063Y25663712D01*
X-150929157Y25657387D01*
X-151014104Y25649725D01*
X-151106220Y25640598D01*
X-151206824Y25629876D01*
X-151317234Y25617430D01*
X-151438768Y25603131D01*
X-151538698Y25591028D01*
X-151590559Y25584682D01*
X-151652200Y25577139D01*
X-151719905Y25568854D01*
X-151789958Y25560283D01*
X-151858643Y25551879D01*
X-151922242Y25544098D01*
X-151922825Y25544026D01*
X-152028123Y25531214D01*
X-152122775Y25519884D01*
X-152208828Y25509841D01*
X-152288326Y25500888D01*
X-152363314Y25492831D01*
X-152435838Y25485474D01*
X-152507942Y25478622D01*
X-152581670Y25472079D01*
X-152659070Y25465650D01*
X-152742184Y25459139D01*
X-152833058Y25452352D01*
X-152933738Y25445093D01*
X-153027617Y25438471D01*
X-153288955Y25420048D01*
X-153537416Y25402276D01*
X-153773697Y25385086D01*
X-153998499Y25368412D01*
X-154212522Y25352185D01*
X-154416465Y25336339D01*
X-154611028Y25320805D01*
X-154796911Y25305516D01*
X-154974814Y25290405D01*
X-155145437Y25275404D01*
X-155309479Y25260446D01*
X-155467639Y25245463D01*
X-155620619Y25230388D01*
X-155769117Y25215153D01*
X-155913834Y25199690D01*
X-156055469Y25183933D01*
X-156194721Y25167813D01*
X-156332292Y25151264D01*
X-156468879Y25134217D01*
X-156605185Y25116605D01*
X-156741907Y25098361D01*
X-156879746Y25079417D01*
X-157019401Y25059706D01*
X-157151037Y25040697D01*
X-157271925Y25022929D01*
X-157395370Y25004527D01*
X-157518909Y24985871D01*
X-157640081Y24967337D01*
X-157756425Y24949304D01*
X-157865479Y24932148D01*
X-157964782Y24916249D01*
X-158011075Y24908714D01*
X-158239564Y24872001D01*
X-158457803Y24838478D01*
X-158668665Y24807766D01*
X-158875020Y24779490D01*
X-159079743Y24753272D01*
X-159285703Y24728735D01*
X-159495773Y24705502D01*
X-159712826Y24683195D01*
X-159775341Y24677054D01*
X-159839387Y24670819D01*
X-159905916Y24664334D01*
X-159972033Y24657881D01*
X-160034841Y24651745D01*
X-160091445Y24646208D01*
X-160138948Y24641552D01*
X-160159469Y24639536D01*
X-160196530Y24635891D01*
X-160244871Y24631138D01*
X-160302239Y24625496D01*
X-160366383Y24619189D01*
X-160435049Y24612436D01*
X-160505986Y24605461D01*
X-160576941Y24598483D01*
X-160611583Y24595077D01*
X-160811570Y24575036D01*
X-161002532Y24555140D01*
X-161183342Y24535510D01*
X-161352871Y24516270D01*
X-161509990Y24497542D01*
X-161515813Y24496829D01*
X-161573779Y24489725D01*
X-161640185Y24481602D01*
X-161709974Y24473076D01*
X-161778087Y24464767D01*
X-161839466Y24457291D01*
X-161848950Y24456138D01*
X-161901259Y24449772D01*
X-161954308Y24443309D01*
X-162004939Y24437133D01*
X-162049998Y24431630D01*
X-162086327Y24427185D01*
X-162100502Y24425446D01*
X-162219611Y24410887D01*
X-162343303Y24395911D01*
X-162473570Y24380281D01*
X-162612406Y24363756D01*
X-162761804Y24346100D01*
X-162838163Y24337116D01*
X-162903293Y24329415D01*
X-162964551Y24322081D01*
X-163020558Y24315284D01*
X-163069940Y24309196D01*
X-163111319Y24303987D01*
X-163143320Y24299830D01*
X-163164566Y24296895D01*
X-163173680Y24295355D01*
X-163183923Y24287115D01*
X-163194823Y24270902D01*
X-163198503Y24263318D01*
X-163205123Y24247902D01*
X-163215911Y24222600D01*
X-163229744Y24190054D01*
X-163245500Y24152902D01*
X-163259631Y24119519D01*
X-163283635Y24064694D01*
X-163312937Y24000870D01*
X-163346134Y23930878D01*
X-163381824Y23857549D01*
X-163418601Y23783715D01*
X-163455063Y23712208D01*
X-163489806Y23645858D01*
X-163521427Y23587498D01*
X-163537668Y23558625D01*
X-163559312Y23521439D01*
X-163585078Y23478180D01*
X-163614009Y23430369D01*
X-163645148Y23379527D01*
X-163677539Y23327174D01*
X-163710224Y23274831D01*
X-163742248Y23224018D01*
X-163772654Y23176257D01*
X-163800484Y23133067D01*
X-163824781Y23095969D01*
X-163844590Y23066485D01*
X-163858953Y23046134D01*
X-163864915Y23038524D01*
X-163872522Y23028549D01*
X-163886207Y23009446D01*
X-163904458Y22983369D01*
X-163925765Y22952471D01*
X-163943580Y22926345D01*
X-163965873Y22893681D01*
X-163985948Y22864629D01*
X-164002395Y22841201D01*
X-164013806Y22825407D01*
X-164018396Y22819585D01*
X-164024786Y22811636D01*
X-164037678Y22794567D01*
X-164055647Y22770303D01*
X-164077265Y22740768D01*
X-164098999Y22710805D01*
X-164120812Y22681045D01*
X-164148068Y22644545D01*
X-164179661Y22602735D01*
X-164214480Y22557041D01*
X-164251417Y22508892D01*
X-164289363Y22459716D01*
X-164327209Y22410940D01*
X-164363845Y22363993D01*
X-164398164Y22320303D01*
X-164429056Y22281296D01*
X-164455413Y22248403D01*
X-164476125Y22223049D01*
X-164490084Y22206663D01*
X-164492878Y22203615D01*
X-164510713Y22183457D01*
X-164535212Y22153729D01*
X-164565198Y22115969D01*
X-164599496Y22071716D01*
X-164636929Y22022509D01*
X-164676322Y21969888D01*
X-164716497Y21915392D01*
X-164756278Y21860558D01*
X-164774475Y21835151D01*
X-164800867Y21798636D01*
X-164831563Y21757004D01*
X-164865461Y21711677D01*
X-164901460Y21664075D01*
X-164938461Y21615617D01*
X-164975363Y21567725D01*
X-165011064Y21521817D01*
X-165044465Y21479314D01*
X-165074464Y21441636D01*
X-165099960Y21410203D01*
X-165119854Y21386436D01*
X-165133045Y21371755D01*
X-165135417Y21369439D01*
X-165144510Y21359960D01*
X-165159772Y21342914D01*
X-165178658Y21321175D01*
X-165189674Y21308251D01*
X-165215500Y21278454D01*
X-165248008Y21242030D01*
X-165284623Y21201767D01*
X-165322771Y21160451D01*
X-165359877Y21120871D01*
X-165393366Y21085812D01*
X-165420663Y21058062D01*
X-165422040Y21056698D01*
X-165452540Y21026874D01*
X-165486074Y20994641D01*
X-165520509Y20961994D01*
X-165553713Y20930927D01*
X-165583556Y20903435D01*
X-165607904Y20881513D01*
X-165624362Y20867372D01*
X-165654160Y20842752D01*
X-165679486Y20820910D01*
X-165706682Y20796374D01*
X-165707220Y20795881D01*
X-165723003Y20782297D01*
X-165746014Y20763572D01*
X-165772569Y20742673D01*
X-165788385Y20730541D01*
X-165813578Y20711149D01*
X-165835748Y20693583D01*
X-165851957Y20680199D01*
X-165858072Y20674690D01*
X-165869369Y20665332D01*
X-165875906Y20662373D01*
X-165884407Y20658172D01*
X-165895901Y20648884D01*
X-165907179Y20639951D01*
X-165927080Y20625694D01*
X-165952763Y20608098D01*
X-165980467Y20589749D01*
X-166007647Y20571900D01*
X-166030493Y20556621D01*
X-166046678Y20545486D01*
X-166053876Y20540071D01*
X-166053955Y20539983D01*
X-166061752Y20534406D01*
X-166079457Y20523643D01*
X-166104956Y20508868D01*
X-166136139Y20491251D01*
X-166170892Y20471967D01*
X-166207103Y20452186D01*
X-166242661Y20433083D01*
X-166275454Y20415829D01*
X-166302108Y20402224D01*
X-166428342Y20344301D01*
X-166558890Y20294045D01*
X-166690412Y20252571D01*
X-166819570Y20220995D01*
X-166876599Y20210215D01*
X-166927595Y20203257D01*
X-166985350Y20198265D01*
X-167046327Y20195307D01*
X-167106990Y20194453D01*
X-167163801Y20195769D01*
X-167213223Y20199326D01*
X-167241428Y20203166D01*
X-167343743Y20226759D01*
X-167439993Y20260326D01*
X-167528800Y20303216D01*
X-167608790Y20354782D01*
X-167668650Y20404786D01*
X-167689938Y20424736D01*
X-167710751Y20444026D01*
X-167723996Y20456131D01*
X-167736956Y20469726D01*
X-167755348Y20491426D01*
X-167776797Y20518204D01*
X-167798925Y20547035D01*
X-167819358Y20574891D01*
X-167834522Y20596914D01*
X-167845440Y20613296D01*
X-167856718Y20629939D01*
X-167881398Y20670798D01*
X-167908132Y20723883D01*
X-167936490Y20788054D01*
X-167966039Y20862167D01*
X-167996348Y20945080D01*
X-168026986Y21035654D01*
X-168057522Y21132744D01*
X-168087523Y21235210D01*
X-168093703Y21257260D01*
X-168114820Y21333092D01*
X-168132795Y21397387D01*
X-168148086Y21451718D01*
X-168161150Y21497662D01*
X-168172446Y21536792D01*
X-168182432Y21570683D01*
X-168191566Y21600909D01*
X-168200306Y21629046D01*
X-168209109Y21656668D01*
X-168216570Y21679648D01*
X-168234374Y21731743D01*
X-168249888Y21771629D01*
X-168263666Y21800393D01*
X-168276261Y21819121D01*
X-168288227Y21828902D01*
X-168293486Y21830660D01*
X-168314382Y21829890D01*
X-168342042Y21822311D01*
X-168372418Y21809363D01*
X-168401463Y21792485D01*
X-168402091Y21792056D01*
X-168430925Y21769686D01*
X-168464627Y21739417D01*
X-168500120Y21704388D01*
X-168534329Y21667738D01*
X-168564179Y21632604D01*
X-168583062Y21607394D01*
X-168594111Y21591865D01*
X-168602050Y21581678D01*
X-168603473Y21580199D01*
X-168609553Y21572894D01*
X-168619880Y21558710D01*
X-168623840Y21553004D01*
X-168636204Y21535384D01*
X-168652736Y21512392D01*
X-168671653Y21486438D01*
X-168691174Y21459931D01*
X-168709517Y21435281D01*
X-168724902Y21414896D01*
X-168735546Y21401186D01*
X-168739463Y21396634D01*
X-168745264Y21389530D01*
X-168755931Y21374584D01*
X-168766338Y21359241D01*
X-168779811Y21339785D01*
X-168791284Y21324633D01*
X-168796847Y21318449D01*
X-168804739Y21309355D01*
X-168816971Y21292860D01*
X-168827441Y21277656D01*
X-168840953Y21258211D01*
X-168852453Y21243063D01*
X-168858035Y21236864D01*
X-168865928Y21227770D01*
X-168878159Y21211275D01*
X-168888629Y21196072D01*
X-168902141Y21176626D01*
X-168913642Y21161478D01*
X-168919223Y21155279D01*
X-168927295Y21146121D01*
X-168939628Y21129803D01*
X-168948847Y21116696D01*
X-168962458Y21097399D01*
X-168974157Y21081890D01*
X-168979217Y21075904D01*
X-168987513Y21065919D01*
X-169000674Y21048681D01*
X-169014710Y21029503D01*
X-169028851Y21010116D01*
X-169039986Y20995436D01*
X-169045641Y20988711D01*
X-169051508Y20981895D01*
X-169062961Y20967282D01*
X-169077527Y20948029D01*
X-169077609Y20947919D01*
X-169096029Y20923604D01*
X-169118391Y20894653D01*
X-169140098Y20867011D01*
X-169141721Y20864969D01*
X-169160004Y20841925D01*
X-169183747Y20811906D01*
X-169210013Y20778631D01*
X-169235864Y20745818D01*
X-169238402Y20742592D01*
X-169261109Y20714057D01*
X-169281805Y20688648D01*
X-169298585Y20668660D01*
X-169309547Y20656386D01*
X-169311520Y20654459D01*
X-169320638Y20645048D01*
X-169336298Y20627599D01*
X-169356362Y20604537D01*
X-169378691Y20578290D01*
X-169380387Y20576273D01*
X-169420672Y20529657D01*
X-169466521Y20478869D01*
X-169516170Y20425692D01*
X-169567854Y20371907D01*
X-169619812Y20319296D01*
X-169670280Y20269641D01*
X-169717493Y20224723D01*
X-169759690Y20186324D01*
X-169795107Y20156225D01*
X-169799812Y20152469D01*
X-169822365Y20133854D01*
X-169845057Y20113908D01*
X-169853870Y20105698D01*
X-169868850Y20092467D01*
X-169891612Y20073734D01*
X-169918985Y20052058D01*
X-169946009Y20031345D01*
X-169972211Y20011475D01*
X-169994317Y19994467D01*
X-170010126Y19982029D01*
X-170017441Y19975873D01*
X-170017606Y19975686D01*
X-170024685Y19969856D01*
X-170039582Y19959100D01*
X-170054999Y19948507D01*
X-170073644Y19935648D01*
X-170087342Y19925643D01*
X-170092392Y19921384D01*
X-170099743Y19915615D01*
X-170116569Y19903983D01*
X-170140810Y19887822D01*
X-170170402Y19868464D01*
X-170203283Y19847242D01*
X-170237393Y19825487D01*
X-170270667Y19804534D01*
X-170301046Y19785714D01*
X-170321523Y19773302D01*
X-170370470Y19744183D01*
X-170410508Y19720751D01*
X-170444292Y19701533D01*
X-170474475Y19685060D01*
X-170503709Y19669860D01*
X-170534648Y19654462D01*
X-170544506Y19649658D01*
X-170672065Y19592491D01*
X-170810529Y19539351D01*
X-170957591Y19491059D01*
X-171110530Y19448539D01*
X-171177663Y19432222D01*
X-171237796Y19419418D01*
X-171294809Y19409570D01*
X-171352582Y19402119D01*
X-171414995Y19396505D01*
X-171485929Y19392169D01*
X-171509898Y19391014D01*
X-171673356Y19388690D01*
X-171828915Y19397147D01*
X-171977082Y19416479D01*
X-172118366Y19446782D01*
X-172253276Y19488149D01*
X-172382321Y19540676D01*
X-172426354Y19561794D01*
X-172463807Y19581753D01*
X-172505259Y19605945D01*
X-172547753Y19632445D01*
X-172588334Y19659327D01*
X-172624047Y19684668D01*
X-172651935Y19706542D01*
X-172660967Y19714574D01*
X-172681540Y19732596D01*
X-172705175Y19751418D01*
X-172712965Y19757175D01*
X-172741597Y19777738D01*
X-172761923Y19751291D01*
X-172794826Y19710931D01*
X-172835301Y19665149D01*
X-172880984Y19616316D01*
X-172929510Y19566804D01*
X-172978516Y19518983D01*
X-173025636Y19475225D01*
X-173068508Y19437900D01*
X-173097424Y19414819D01*
X-173118365Y19398847D01*
X-173134870Y19385963D01*
X-173144111Y19378383D01*
X-173145015Y19377509D01*
X-173152158Y19372113D01*
X-173167455Y19361904D01*
X-173185807Y19350221D01*
X-173205573Y19337642D01*
X-173220353Y19327797D01*
X-173226599Y19323111D01*
X-173236000Y19317101D01*
X-173255116Y19307721D01*
X-173280888Y19296254D01*
X-173310255Y19283984D01*
X-173340158Y19272194D01*
X-173367536Y19262170D01*
X-173386655Y19255961D01*
X-173415982Y19248709D01*
X-173452099Y19241751D01*
X-173490721Y19235711D01*
X-173527558Y19231212D01*
X-173558324Y19228877D01*
X-173573334Y19228830D01*
X-173589370Y19230155D01*
X-173612874Y19232656D01*
X-173631123Y19234843D01*
X-173684027Y19245857D01*
X-173738460Y19264714D01*
X-173783551Y19286815D01*
X-173812727Y19307115D01*
X-173845364Y19335063D01*
X-173877569Y19366873D01*
X-173905449Y19398755D01*
X-173921698Y19421251D01*
X-173933973Y19440157D01*
X-173943555Y19453998D01*
X-173947619Y19459000D01*
X-173953484Y19467918D01*
X-173962949Y19486932D01*
X-173974894Y19513385D01*
X-173988197Y19544621D01*
X-174001737Y19577984D01*
X-174014391Y19610818D01*
X-174025039Y19640469D01*
X-174028007Y19649364D01*
X-174052114Y19732648D01*
X-174074351Y19827674D01*
X-174094549Y19932694D01*
X-174112541Y20045962D01*
X-174128158Y20165728D01*
X-174141232Y20290245D01*
X-174151595Y20417765D01*
X-174159080Y20546540D01*
X-174163517Y20674823D01*
X-174164739Y20800865D01*
X-174162579Y20922918D01*
X-174158734Y21009107D01*
X-174147023Y21189859D01*
X-174131924Y21382587D01*
X-174113563Y21586134D01*
X-174092067Y21799340D01*
X-174067566Y22021047D01*
X-174040186Y22250098D01*
X-174010054Y22485333D01*
X-173977300Y22725594D01*
X-173944447Y22953540D01*
X-173937028Y23003998D01*
X-173930360Y23049889D01*
X-173924680Y23089548D01*
X-173920223Y23121314D01*
X-173917222Y23143524D01*
X-173915914Y23154515D01*
X-173915897Y23155402D01*
X-173919833Y23150819D01*
X-173929204Y23137524D01*
X-173942094Y23118245D01*
X-173944031Y23115284D01*
X-173958342Y23093808D01*
X-173970475Y23076408D01*
X-173977931Y23066663D01*
X-173978181Y23066393D01*
X-173985679Y23056963D01*
X-173997730Y23040273D01*
X-174008326Y23024926D01*
X-174021216Y23006299D01*
X-174031201Y22992605D01*
X-174035422Y22987533D01*
X-174041187Y22980635D01*
X-174052352Y22965850D01*
X-174066241Y22946741D01*
X-174080343Y22927344D01*
X-174091442Y22912662D01*
X-174097065Y22905949D01*
X-174102832Y22899171D01*
X-174114289Y22884416D01*
X-174129112Y22864690D01*
X-174131283Y22861757D01*
X-174146990Y22840944D01*
X-174160296Y22824110D01*
X-174168550Y22814598D01*
X-174169009Y22814166D01*
X-174176769Y22805501D01*
X-174189731Y22789408D01*
X-174204630Y22769974D01*
X-174222610Y22746425D01*
X-174244947Y22717781D01*
X-174267394Y22689476D01*
X-174271829Y22683955D01*
X-174293889Y22656561D01*
X-174316994Y22627862D01*
X-174336820Y22603227D01*
X-174340244Y22598971D01*
X-174358572Y22576627D01*
X-174376586Y22555372D01*
X-174388213Y22542217D01*
X-174402932Y22525390D01*
X-174421171Y22503480D01*
X-174433749Y22487828D01*
X-174449040Y22468917D01*
X-174461825Y22453940D01*
X-174468406Y22447035D01*
X-174476184Y22438842D01*
X-174489933Y22423067D01*
X-174507067Y22402699D01*
X-174512328Y22396325D01*
X-174538828Y22365120D01*
X-174571362Y22328516D01*
X-174608913Y22287529D01*
X-174650464Y22243176D01*
X-174694997Y22196471D01*
X-174741495Y22148432D01*
X-174788940Y22100075D01*
X-174836316Y22052415D01*
X-174882605Y22006470D01*
X-174926790Y21963254D01*
X-174967853Y21923784D01*
X-175004778Y21889076D01*
X-175036547Y21860147D01*
X-175062142Y21838012D01*
X-175080547Y21823688D01*
X-175090744Y21818191D01*
X-175091147Y21818162D01*
X-175093865Y21811560D01*
X-175095634Y21792493D01*
X-175096504Y21762058D01*
X-175096520Y21721353D01*
X-175095732Y21671473D01*
X-175094188Y21613517D01*
X-175091935Y21548580D01*
X-175089020Y21477759D01*
X-175085494Y21402150D01*
X-175081402Y21322852D01*
X-175076793Y21240959D01*
X-175071715Y21157570D01*
X-175066216Y21073780D01*
X-175060343Y20990686D01*
X-175054145Y20909386D01*
X-175048370Y20839139D01*
X-175039203Y20736242D01*
X-175030060Y20644038D01*
X-175020512Y20559629D01*
X-175010132Y20480119D01*
X-174998490Y20402609D01*
X-174985160Y20324202D01*
X-174969712Y20242002D01*
X-174951719Y20153110D01*
X-174936133Y20079546D01*
X-174925467Y20028260D01*
X-174915665Y19977937D01*
X-174907188Y19931189D01*
X-174900494Y19890626D01*
X-174896045Y19858861D01*
X-174894504Y19843127D01*
X-174892995Y19811025D01*
X-174893797Y19786921D01*
X-174897568Y19765321D01*
X-174904961Y19740726D01*
X-174907650Y19732896D01*
X-174918721Y19706201D01*
X-174933051Y19678570D01*
X-174948571Y19653353D01*
X-174963212Y19633899D01*
X-174974904Y19623560D01*
X-174975295Y19623377D01*
X-174983583Y19618470D01*
X-174998347Y19608853D01*
X-175003955Y19605079D01*
X-175032343Y19591306D01*
X-175069021Y19581286D01*
X-175108963Y19576025D01*
X-175146948Y19576505D01*
X-175198668Y19588303D01*
X-175244582Y19611702D01*
X-175283451Y19645497D01*
X-175314038Y19688481D01*
X-175335101Y19739447D01*
X-175341345Y19765740D01*
X-175344740Y19783369D01*
X-175350578Y19812948D01*
X-175358580Y19853105D01*
X-175368469Y19902468D01*
X-175379964Y19959665D01*
X-175392790Y20023322D01*
X-175406666Y20092069D01*
X-175421316Y20164532D01*
X-175436460Y20239339D01*
X-175451822Y20315118D01*
X-175467121Y20390497D01*
X-175482081Y20464104D01*
X-175496423Y20534566D01*
X-175509868Y20600510D01*
X-175522139Y20660566D01*
X-175532958Y20713360D01*
X-175542045Y20757520D01*
X-175549124Y20791673D01*
X-175553915Y20814449D01*
X-175554718Y20818183D01*
X-175569616Y20883131D01*
X-175586406Y20949772D01*
X-175604622Y21016734D01*
X-175623797Y21082642D01*
X-175643466Y21146123D01*
X-175663162Y21205801D01*
X-175682417Y21260304D01*
X-175700767Y21308257D01*
X-175717744Y21348286D01*
X-175732881Y21379017D01*
X-175745714Y21399077D01*
X-175754518Y21406734D01*
X-175764910Y21406755D01*
X-175785185Y21403831D01*
X-175812085Y21398506D01*
X-175833098Y21393643D01*
X-175953900Y21368190D01*
X-176074973Y21350637D01*
X-176194385Y21341025D01*
X-176310205Y21339396D01*
X-176420503Y21345792D01*
X-176523347Y21360254D01*
X-176597150Y21377161D01*
X-176621831Y21383072D01*
X-176641355Y21386152D01*
X-176652169Y21385878D01*
X-176652995Y21385352D01*
X-176655194Y21382314D01*
X-176658944Y21376101D01*
X-176664730Y21365795D01*
X-176673036Y21350479D01*
X-176684346Y21329234D01*
X-176699144Y21301144D01*
X-176717913Y21265290D01*
X-176741139Y21220754D01*
X-176769304Y21166620D01*
X-176802894Y21101969D01*
X-176829927Y21049899D01*
X-176854695Y21002353D01*
X-176878127Y20957699D01*
X-176899309Y20917650D01*
X-176917331Y20883916D01*
X-176931282Y20858209D01*
X-176940251Y20842242D01*
X-176942128Y20839139D01*
X-176952216Y20822443D01*
X-176966336Y20797979D01*
X-176982078Y20769953D01*
X-176988909Y20757555D01*
X-177000101Y20737241D01*
X-177011657Y20716602D01*
X-177024536Y20693986D01*
X-177039697Y20667743D01*
X-177058099Y20636220D01*
X-177080700Y20597766D01*
X-177108460Y20550730D01*
X-177137816Y20501098D01*
X-177175041Y20439463D01*
X-177215148Y20375308D01*
X-177256987Y20310316D01*
X-177299407Y20246168D01*
X-177341260Y20184544D01*
X-177381394Y20127128D01*
X-177418662Y20075601D01*
X-177451913Y20031645D01*
X-177479997Y19996940D01*
X-177491249Y19984123D01*
X-177506807Y19967040D01*
X-177527321Y19944497D01*
X-177548603Y19921097D01*
X-177550582Y19918920D01*
X-177572450Y19895510D01*
X-177594882Y19872530D01*
X-177613277Y19854684D01*
X-177614392Y19853660D01*
X-177635520Y19834077D01*
X-177658937Y19811969D01*
X-177668991Y19802335D01*
X-177721639Y19754090D01*
X-177774940Y19710694D01*
X-177792249Y19697068D01*
X-177804802Y19686663D01*
X-177808934Y19682771D01*
X-177817301Y19675825D01*
X-177834324Y19663967D01*
X-177856919Y19649150D01*
X-177882003Y19633323D01*
X-177906491Y19618436D01*
X-177927300Y19606439D01*
X-177940039Y19599858D01*
X-177972541Y19590824D01*
X-178012447Y19588504D01*
X-178055381Y19592827D01*
X-178092986Y19602339D01*
X-178137111Y19623965D01*
X-178176471Y19656188D01*
X-178208046Y19696118D01*
X-178224181Y19727813D01*
X-178235427Y19766647D01*
X-178240651Y19808856D01*
X-178239746Y19849901D01*
X-178232607Y19885244D01*
X-178228121Y19896479D01*
X-178212402Y19924203D01*
X-178191371Y19951731D01*
X-178163517Y19980571D01*
X-178127323Y20012230D01*
X-178081278Y20048216D01*
X-178059651Y20064241D01*
X-178031087Y20086960D01*
X-177996762Y20117079D01*
X-177959238Y20152072D01*
X-177921078Y20189411D01*
X-177884845Y20226567D01*
X-177853102Y20261014D01*
X-177828411Y20290224D01*
X-177821983Y20298641D01*
X-177806967Y20318832D01*
X-177795008Y20334453D01*
X-177788418Y20342493D01*
X-177788066Y20342833D01*
X-177782645Y20349749D01*
X-177771847Y20365003D01*
X-177757790Y20385588D01*
X-177754544Y20390424D01*
X-177740034Y20411768D01*
X-177728289Y20428425D01*
X-177721440Y20437385D01*
X-177720814Y20438015D01*
X-177715651Y20444779D01*
X-177704639Y20460707D01*
X-177689281Y20483521D01*
X-177671075Y20510944D01*
X-177651522Y20540698D01*
X-177632122Y20570507D01*
X-177614376Y20598092D01*
X-177599783Y20621177D01*
X-177594180Y20630251D01*
X-177525909Y20743060D01*
X-177462994Y20848990D01*
X-177403900Y20950796D01*
X-177347090Y21051233D01*
X-177291026Y21153054D01*
X-177234174Y21259014D01*
X-177174996Y21371866D01*
X-177111955Y21494365D01*
X-177110449Y21497316D01*
X-176998320Y21716976D01*
X-177010908Y21759067D01*
X-177016407Y21786150D01*
X-177019809Y21818010D01*
X-176441378Y21818010D01*
X-176441256Y21808259D01*
X-176440560Y21807257D01*
X-176428810Y21802491D01*
X-176405607Y21798851D01*
X-176373052Y21796349D01*
X-176333243Y21794999D01*
X-176288281Y21794813D01*
X-176240264Y21795806D01*
X-176191292Y21797990D01*
X-176143465Y21801379D01*
X-176105855Y21805150D01*
X-176074860Y21809171D01*
X-176045861Y21813645D01*
X-176023813Y21817787D01*
X-176018940Y21818938D01*
X-175993213Y21825602D01*
X-176006508Y21843974D01*
X-176039550Y21883548D01*
X-176080554Y21923231D01*
X-176126498Y21960763D01*
X-176174358Y21993883D01*
X-176221111Y22020333D01*
X-176263736Y22037851D01*
X-176267245Y22038907D01*
X-176292749Y22045949D01*
X-176312041Y22049164D01*
X-176327070Y22047158D01*
X-176339783Y22038538D01*
X-176352129Y22021912D01*
X-176366056Y21995885D01*
X-176383514Y21959064D01*
X-176385811Y21954128D01*
X-176408672Y21904025D01*
X-176425366Y21865139D01*
X-176436175Y21836719D01*
X-176441378Y21818010D01*
X-177019809Y21818010D01*
X-177020368Y21823247D01*
X-177022753Y21866860D01*
X-177023524Y21913489D01*
X-177022641Y21959632D01*
X-177020066Y22001792D01*
X-177015759Y22036467D01*
X-177014092Y22045031D01*
X-176992813Y22113805D01*
X-176959675Y22178657D01*
X-176914309Y22240059D01*
X-176856346Y22298483D01*
X-176785417Y22354399D01*
X-176756304Y22374224D01*
X-176729489Y22391469D01*
X-176705886Y22405988D01*
X-176688368Y22416054D01*
X-176680611Y22419757D01*
X-176676682Y22422759D01*
X-176671260Y22430155D01*
X-176664029Y22442656D01*
X-176654675Y22460976D01*
X-176642882Y22485825D01*
X-176636577Y22499734D01*
X-176136204Y22499734D01*
X-176134528Y22487135D01*
X-176126212Y22478060D01*
X-176110887Y22470247D01*
X-176088187Y22461433D01*
X-176085459Y22460395D01*
X-176043787Y22442832D01*
X-175999157Y22421184D01*
X-175954499Y22397130D01*
X-175912741Y22372355D01*
X-175876810Y22348540D01*
X-175849635Y22327367D01*
X-175842885Y22321043D01*
X-175832933Y22312048D01*
X-175815607Y22297296D01*
X-175794144Y22279529D01*
X-175787314Y22273965D01*
X-175766865Y22256927D01*
X-175751237Y22243057D01*
X-175742882Y22234565D01*
X-175742124Y22233204D01*
X-175737751Y22226676D01*
X-175726184Y22213141D01*
X-175709751Y22195298D01*
X-175706431Y22191811D01*
X-175684641Y22168217D01*
X-175662859Y22143300D01*
X-175647040Y22124008D01*
X-175632736Y22105818D01*
X-175621133Y22091458D01*
X-175616446Y22085949D01*
X-175608296Y22076311D01*
X-175595605Y22060613D01*
X-175589180Y22052500D01*
X-175568810Y22026606D01*
X-175564080Y22053255D01*
X-175563293Y22063936D01*
X-175562384Y22087186D01*
X-175561373Y22121974D01*
X-175560280Y22167273D01*
X-175559123Y22222055D01*
X-175557923Y22285289D01*
X-175556700Y22355949D01*
X-175555473Y22433004D01*
X-175554262Y22515427D01*
X-175553086Y22602188D01*
X-175552134Y22678192D01*
X-175550208Y22831074D01*
X-175548173Y22979654D01*
X-175546048Y23123016D01*
X-175543850Y23260241D01*
X-175541595Y23390413D01*
X-175539301Y23512615D01*
X-175536986Y23625928D01*
X-175534666Y23729437D01*
X-175532360Y23822222D01*
X-175530084Y23903368D01*
X-175527856Y23971957D01*
X-175527562Y23980146D01*
X-175526401Y24021771D01*
X-175526332Y24052092D01*
X-175527334Y24070420D01*
X-175529390Y24076064D01*
X-175530122Y24075328D01*
X-175534285Y24065909D01*
X-175542034Y24045823D01*
X-175552556Y24017270D01*
X-175565042Y23982451D01*
X-175578680Y23943567D01*
X-175578963Y23942753D01*
X-175616893Y23834467D01*
X-175656375Y23723740D01*
X-175696446Y23613187D01*
X-175736143Y23505425D01*
X-175774503Y23403072D01*
X-175810562Y23308744D01*
X-175839795Y23234028D01*
X-175852122Y23202853D01*
X-175867300Y23164339D01*
X-175883232Y23123815D01*
X-175895352Y23092913D01*
X-175911203Y23052819D01*
X-175930456Y23004725D01*
X-175952218Y22950807D01*
X-175975597Y22893245D01*
X-175999701Y22834216D01*
X-176023636Y22775897D01*
X-176046511Y22720466D01*
X-176067432Y22670102D01*
X-176085507Y22626981D01*
X-176099843Y22593281D01*
X-176105043Y22581300D01*
X-176121095Y22544554D01*
X-176131603Y22518120D01*
X-176136204Y22499734D01*
X-176636577Y22499734D01*
X-176628335Y22517918D01*
X-176610717Y22557967D01*
X-176589714Y22606683D01*
X-176565011Y22664779D01*
X-176536292Y22732969D01*
X-176503241Y22811963D01*
X-176465544Y22902475D01*
X-176444328Y22953540D01*
X-176309152Y23287970D01*
X-176178935Y23627883D01*
X-176054274Y23971431D01*
X-175935766Y24316768D01*
X-175824005Y24662048D01*
X-175719588Y25005425D01*
X-175623112Y25345052D01*
X-175535171Y25679083D01*
X-175456363Y26005672D01*
X-175450030Y26033358D01*
X-175435971Y26095559D01*
X-175423870Y26150515D01*
X-175413425Y26200182D01*
X-175404334Y26246519D01*
X-175396296Y26291483D01*
X-175389007Y26337031D01*
X-175382166Y26385120D01*
X-175375471Y26437709D01*
X-175368620Y26496754D01*
X-175361310Y26564214D01*
X-175353240Y26642045D01*
X-175347736Y26696232D01*
X-175341182Y26760507D01*
X-175333780Y26832132D01*
X-175325997Y26906659D01*
X-175318299Y26979636D01*
X-175311153Y27046615D01*
X-175306771Y27087158D01*
X-175302088Y27130062D01*
X-175297547Y27171361D01*
X-175292986Y27212475D01*
X-175288243Y27254822D01*
X-175283155Y27299821D01*
X-175277561Y27348891D01*
X-175271299Y27403452D01*
X-175264205Y27464921D01*
X-175256119Y27534719D01*
X-175246878Y27614263D01*
X-175236319Y27704973D01*
X-175228692Y27770429D01*
X-175224638Y27805947D01*
X-175219400Y27853000D01*
X-175213192Y27909602D01*
X-175206228Y27973764D01*
X-175198725Y28043496D01*
X-175190896Y28116811D01*
X-175182956Y28191720D01*
X-175175121Y28266234D01*
X-175174357Y28273534D01*
X-175157162Y28436192D01*
X-175140896Y28586151D01*
X-175125410Y28724264D01*
X-175110553Y28851386D01*
X-175096178Y28968373D01*
X-175082133Y29076079D01*
X-175068269Y29175358D01*
X-175054438Y29267066D01*
X-175040488Y29352057D01*
X-175026271Y29431185D01*
X-175011637Y29505305D01*
X-174996436Y29575273D01*
X-174980519Y29641942D01*
X-174963736Y29706168D01*
X-174945938Y29768805D01*
X-174926975Y29830708D01*
X-174906697Y29892731D01*
X-174884955Y29955730D01*
X-174875090Y29983411D01*
X-174857602Y30030375D01*
X-174838867Y30077749D01*
X-174819751Y30123608D01*
X-174801120Y30166028D01*
X-174783840Y30203082D01*
X-174768777Y30232847D01*
X-174756795Y30253398D01*
X-174749712Y30262158D01*
X-174743511Y30269475D01*
X-174733130Y30283680D01*
X-174729199Y30289353D01*
X-174710844Y30312334D01*
X-174684800Y30339789D01*
X-174654439Y30368280D01*
X-174638061Y30382366D01*
X-174614327Y30397252D01*
X-174581811Y30411223D01*
X-174545303Y30422532D01*
X-174509593Y30429433D01*
X-174508667Y30429544D01*
X-174481617Y30430713D01*
X-174453693Y30427024D01*
G37*
%TD*%
D16*
%TO.C,REF\u002A\u002A*%
X-218082771Y115093726D03*
%TD*%
D17*
%TO.C,REF\u002A\u002A*%
X-232965596Y115093726D03*
%TD*%
%TO.C,REF\u002A\u002A*%
X-123428004Y115093726D03*
%TD*%
%TO.C,REF\u002A\u002A*%
X23018994Y115093726D03*
%TD*%
D18*
%TO.C,REF\u002A\u002A*%
X121840952Y115093726D03*
%TD*%
D17*
%TO.C,REF\u002A\u002A*%
X136723777Y115093726D03*
%TD*%
D19*
%TO.C,REF\u002A\u002A*%
X-265112498Y19843646D03*
%TD*%
D20*
%TO.C,MX_1.7*%
X32227530Y134143750D03*
D21*
X37307530Y134143750D03*
D20*
X42387530Y134143750D03*
%TD*%
%TO.C,MX_0.0*%
X-263048742Y134143742D03*
D21*
X-257968742Y134143742D03*
D20*
X-252888742Y134143742D03*
%TD*%
D19*
%TO.C,REF\u002A\u002A*%
X91479989Y48418670D03*
%TD*%
%TO.C,REF\u002A\u002A*%
X-188317121Y48418670D03*
%TD*%
D22*
%TO.C,L1*%
X105858127Y129976551D03*
D23*
X108398127Y129976551D03*
%TD*%
D24*
%TO.C,L1-1*%
X105251562Y90963710D03*
D25*
X102711562Y90963710D03*
%TD*%
D24*
%TO.C,L2-1*%
X-249554986Y52863678D03*
D25*
X-252094986Y52863678D03*
%TD*%
D24*
%TO.C,L2-2*%
X-254317490Y52863678D03*
D25*
X-256857490Y52863678D03*
%TD*%
D24*
%TO.C,L3-1*%
X57627610Y129063710D03*
D25*
X55087610Y129063710D03*
%TD*%
D22*
%TO.C,L3*%
X157055045Y129976551D03*
D23*
X159595045Y129976551D03*
%TD*%
D20*
%TO.C,MX_0.10*%
X137002970Y134143750D03*
D21*
X142082970Y134143750D03*
D20*
X147162970Y134143750D03*
%TD*%
%TO.C,MX_0.9*%
X98901250Y134143750D03*
D21*
X103981250Y134143750D03*
D20*
X109061250Y134143750D03*
%TD*%
%TO.C,MX_10.10*%
X137001250Y19843750D03*
D21*
X142081250Y19843750D03*
D20*
X147161250Y19843750D03*
%TD*%
%TO.C,MX_1.9*%
X117952890Y134143710D03*
D21*
X123032890Y134143710D03*
D20*
X128112890Y134143710D03*
%TD*%
D22*
%TO.C,L2*%
X131456586Y129976551D03*
D23*
X133996586Y129976551D03*
%TD*%
D26*
%TO.C,MX_9.10_1*%
X154146250Y41306750D03*
X154146250Y17430750D03*
D20*
X156051250Y29368750D03*
D21*
X161131250Y29368750D03*
D20*
X166211250Y29368750D03*
D21*
X169386250Y41306750D03*
X169386250Y17430750D03*
%TD*%
D20*
%TO.C,MX_8.10*%
X137001250Y38893750D03*
D21*
X142081250Y38893750D03*
D20*
X147161250Y38893750D03*
%TD*%
%TO.C,MX_9.9*%
X117951250Y38893750D03*
D21*
X123031250Y38893750D03*
D20*
X128111250Y38893750D03*
%TD*%
%TO.C,MX_9.10*%
X156051250Y38893750D03*
D21*
X161131250Y38893750D03*
D20*
X166211250Y38893750D03*
%TD*%
%TO.C,MX_11.9*%
X117951250Y19843750D03*
D21*
X123031250Y19843750D03*
D20*
X128111250Y19843750D03*
%TD*%
%TO.C,MX_8.8*%
X51276250Y38893750D03*
D21*
X56356250Y38893750D03*
D20*
X61436250Y38893750D03*
%TD*%
%TO.C,MX_11.8*%
X70326250Y19843750D03*
D21*
X75406250Y19843750D03*
D20*
X80486250Y19843750D03*
%TD*%
%TO.C,MX_10.8*%
X51276250Y19843750D03*
D21*
X56356250Y19843750D03*
D20*
X61436250Y19843750D03*
%TD*%
%TO.C,MX_11.7*%
X32226250Y19843750D03*
D21*
X37306250Y19843750D03*
D20*
X42386250Y19843750D03*
%TD*%
%TO.C,MX_11.6_1*%
X-24923750Y19843750D03*
D21*
X-19843750Y19843750D03*
D20*
X-14763750Y19843750D03*
%TD*%
%TO.C,MX_10.1_1*%
X-234473750Y19843750D03*
D21*
X-229393750Y19843750D03*
D20*
X-224313750Y19843750D03*
%TD*%
%TO.C,MX_8.7*%
X3651250Y38893750D03*
D21*
X8731250Y38893750D03*
D20*
X13811250Y38893750D03*
%TD*%
%TO.C,MX_8.9*%
X98901250Y38893750D03*
D21*
X103981250Y38893750D03*
D20*
X109061250Y38893750D03*
%TD*%
D26*
%TO.C,MX_9.6_1*%
X-19843750Y45878750D03*
D21*
X-19843750Y30638750D03*
D20*
X-13017500Y38893750D03*
D21*
X-7937500Y38893750D03*
D20*
X-2857500Y38893750D03*
D26*
X3968750Y45878750D03*
D21*
X3968750Y30638750D03*
%TD*%
D20*
%TO.C,MX_8.6*%
X-48736250Y38893750D03*
D21*
X-43656250Y38893750D03*
D20*
X-38576250Y38893750D03*
%TD*%
%TO.C,MX_8.5*%
X-86836250Y38893750D03*
D21*
X-81756250Y38893750D03*
D20*
X-76676250Y38893750D03*
%TD*%
%TO.C,MX_9.4*%
X-105886250Y38893750D03*
D21*
X-100806250Y38893750D03*
D20*
X-95726250Y38893750D03*
%TD*%
%TO.C,MX_9.1*%
X-220186250Y38893750D03*
D21*
X-215106250Y38893750D03*
D20*
X-210026250Y38893750D03*
%TD*%
%TO.C,MX_8.1*%
X-239236250Y38893750D03*
D21*
X-234156250Y38893750D03*
D20*
X-229076250Y38893750D03*
%TD*%
D26*
%TO.C,MX_5.10_1*%
X154146250Y79406750D03*
X154146250Y55530750D03*
D20*
X156051250Y67468750D03*
D21*
X161131250Y67468750D03*
D20*
X166211250Y67468750D03*
D21*
X169386250Y79406750D03*
X169386250Y55530750D03*
%TD*%
D20*
%TO.C,MX_7.1*%
X-210661250Y57943750D03*
D21*
X-205581250Y57943750D03*
D20*
X-200501250Y57943750D03*
%TD*%
%TO.C,MX_4.6*%
X-43973750Y76993750D03*
D21*
X-38893750Y76993750D03*
D20*
X-33813750Y76993750D03*
%TD*%
%TO.C,MX_6.6*%
X-39211250Y57943750D03*
D21*
X-34131250Y57943750D03*
D20*
X-29051250Y57943750D03*
%TD*%
%TO.C,MX_7.3*%
X-134461250Y57943750D03*
D21*
X-129381250Y57943750D03*
D20*
X-124301250Y57943750D03*
%TD*%
%TO.C,MX_5.10*%
X156051250Y76993750D03*
D21*
X161131250Y76993750D03*
D20*
X166211250Y76993750D03*
%TD*%
%TO.C,MX_4.10*%
X137001250Y76993750D03*
D21*
X142081250Y76993750D03*
D20*
X147161250Y76993750D03*
%TD*%
%TO.C,MX_4.9*%
X98901250Y76993750D03*
D21*
X103981250Y76993750D03*
D20*
X109061250Y76993750D03*
%TD*%
%TO.C,MX_4.8*%
X51276250Y76993750D03*
D21*
X56356250Y76993750D03*
D20*
X61436250Y76993750D03*
%TD*%
%TO.C,MX_5.7*%
X32226250Y76993750D03*
D21*
X37306250Y76993750D03*
D20*
X42386250Y76993750D03*
%TD*%
%TO.C,MX_8.3*%
X-163036250Y38893750D03*
D21*
X-157956250Y38893750D03*
D20*
X-152876250Y38893750D03*
%TD*%
%TO.C,MX_9.2*%
X-182086250Y38893750D03*
D21*
X-177006250Y38893750D03*
D20*
X-171926250Y38893750D03*
%TD*%
%TO.C,MX_7.9*%
X117951250Y57943750D03*
D21*
X123031250Y57943750D03*
D20*
X128111250Y57943750D03*
%TD*%
%TO.C,MX_6.5*%
X-77311250Y57943750D03*
D21*
X-72231250Y57943750D03*
D20*
X-67151250Y57943750D03*
%TD*%
%TO.C,MX_8.4*%
X-124936250Y38893750D03*
D21*
X-119856250Y38893750D03*
D20*
X-114776250Y38893750D03*
%TD*%
%TO.C,MX_5.8*%
X70326250Y76993750D03*
D21*
X75406250Y76993750D03*
D20*
X80486250Y76993750D03*
%TD*%
%TO.C,MX_7.4*%
X-96361250Y57943750D03*
D21*
X-91281250Y57943750D03*
D20*
X-86201250Y57943750D03*
%TD*%
%TO.C,MX_6.3*%
X-153511250Y57943750D03*
D21*
X-148431250Y57943750D03*
D20*
X-143351250Y57943750D03*
%TD*%
%TO.C,MX_6.2*%
X-191611250Y57943750D03*
D21*
X-186531250Y57943750D03*
D20*
X-181451250Y57943750D03*
%TD*%
%TO.C,MX_5.6*%
X-24923750Y76993750D03*
D21*
X-19843750Y76993750D03*
D20*
X-14763750Y76993750D03*
%TD*%
%TO.C,MX_5.9*%
X117951250Y76993750D03*
D21*
X123031250Y76993750D03*
D20*
X128111250Y76993750D03*
%TD*%
D26*
%TO.C,MX_8.0_1*%
X-257968750Y45878750D03*
D21*
X-257968750Y30638750D03*
D20*
X-251142500Y38893750D03*
D21*
X-246062500Y38893750D03*
D20*
X-240982500Y38893750D03*
D26*
X-234156250Y45878750D03*
D21*
X-234156250Y30638750D03*
%TD*%
D20*
%TO.C,MX_4.5*%
X-82073750Y76993750D03*
D21*
X-76993750Y76993750D03*
D20*
X-71913750Y76993750D03*
%TD*%
%TO.C,MX_6.10*%
X137001250Y57943750D03*
D21*
X142081250Y57943750D03*
D20*
X147161250Y57943750D03*
%TD*%
D26*
%TO.C,MX_6.7*%
X-15081250Y64928750D03*
D21*
X-15081250Y49688750D03*
D20*
X-8255000Y57943750D03*
D21*
X-3175000Y57943750D03*
D20*
X1905000Y57943750D03*
D26*
X8731250Y64928750D03*
D21*
X8731250Y49688750D03*
%TD*%
D20*
%TO.C,MX_4.7*%
X-1111250Y76993750D03*
D21*
X3968750Y76993750D03*
D20*
X9048750Y76993750D03*
%TD*%
%TO.C,MX_7.2*%
X-172561250Y57943750D03*
D21*
X-167481250Y57943750D03*
D20*
X-162401250Y57943750D03*
%TD*%
%TO.C,MX_9.3*%
X-143986250Y38893750D03*
D21*
X-138906250Y38893750D03*
D20*
X-133826250Y38893750D03*
%TD*%
%TO.C,MX_8.2*%
X-201136250Y38893750D03*
D21*
X-196056250Y38893750D03*
D20*
X-190976250Y38893750D03*
%TD*%
%TO.C,MX_9.5*%
X-67786250Y38893750D03*
D21*
X-62706250Y38893750D03*
D20*
X-57626250Y38893750D03*
%TD*%
%TO.C,MX_7.5*%
X-58261250Y57943750D03*
D21*
X-53181250Y57943750D03*
D20*
X-48101250Y57943750D03*
%TD*%
%TO.C,MX_6.4*%
X-115411250Y57943750D03*
D21*
X-110331250Y57943750D03*
D20*
X-105251250Y57943750D03*
%TD*%
%TO.C,MX_6.1*%
X-229711250Y57943750D03*
D21*
X-224631250Y57943750D03*
D20*
X-219551250Y57943750D03*
%TD*%
%TO.C,MX_5.5*%
X-63023750Y76993750D03*
D21*
X-57943750Y76993750D03*
D20*
X-52863750Y76993750D03*
%TD*%
%TO.C,MX_4.4*%
X-120173750Y76993750D03*
D21*
X-115093750Y76993750D03*
D20*
X-110013750Y76993750D03*
%TD*%
%TO.C,MX_4.2*%
X-196373750Y76993750D03*
D21*
X-191293750Y76993750D03*
D20*
X-186213750Y76993750D03*
%TD*%
%TO.C,MX_5.3*%
X-139223750Y76993750D03*
D21*
X-134143750Y76993750D03*
D20*
X-129063750Y76993750D03*
%TD*%
%TO.C,MX_4.3*%
X-158273750Y76993750D03*
D21*
X-153193750Y76993750D03*
D20*
X-148113750Y76993750D03*
%TD*%
%TO.C,MX_5.2*%
X-177323750Y76993750D03*
D21*
X-172243750Y76993750D03*
D20*
X-167163750Y76993750D03*
%TD*%
%TO.C,MX_5.1*%
X-215423750Y76993750D03*
D21*
X-210343750Y76993750D03*
D20*
X-205263750Y76993750D03*
%TD*%
%TO.C,MX_4.0*%
X-258286250Y76993750D03*
D21*
X-253206250Y76993750D03*
D20*
X-248126250Y76993750D03*
%TD*%
%TO.C,MX_3.9*%
X117951250Y96043750D03*
D21*
X123031250Y96043750D03*
D20*
X128111250Y96043750D03*
%TD*%
%TO.C,MX_3.6*%
X-15397670Y96043550D03*
D21*
X-10317670Y96043550D03*
D20*
X-5237670Y96043550D03*
%TD*%
%TO.C,MX_4.1*%
X-234473750Y76993750D03*
D21*
X-229393750Y76993750D03*
D20*
X-224313750Y76993750D03*
%TD*%
%TO.C,MX_3.10*%
X156051250Y96043750D03*
D21*
X161131250Y96043750D03*
D20*
X166211250Y96043750D03*
%TD*%
%TO.C,MX_2.9*%
X98901250Y96043750D03*
D21*
X103981250Y96043750D03*
D20*
X109061250Y96043750D03*
%TD*%
%TO.C,MX_2.10*%
X137001250Y96043750D03*
D21*
X142081250Y96043750D03*
D20*
X147161250Y96043750D03*
%TD*%
%TO.C,MX_2.8*%
X51276250Y96043750D03*
D21*
X56356250Y96043750D03*
D20*
X61436250Y96043750D03*
%TD*%
%TO.C,MX_3.5*%
X-53497830Y96043550D03*
D21*
X-48417830Y96043550D03*
D20*
X-43337830Y96043550D03*
%TD*%
%TO.C,MX_2.5*%
X-72547910Y96043550D03*
D21*
X-67467910Y96043550D03*
D20*
X-62387910Y96043550D03*
%TD*%
%TO.C,MX_3.4*%
X-91598750Y96043550D03*
D21*
X-86518750Y96043550D03*
D20*
X-81438750Y96043550D03*
%TD*%
%TO.C,MX_2.4*%
X-110648070Y96043550D03*
D21*
X-105568070Y96043550D03*
D20*
X-100488070Y96043550D03*
%TD*%
%TO.C,MX_3.3*%
X-129698750Y96043750D03*
D21*
X-124618750Y96043750D03*
D20*
X-119538750Y96043750D03*
%TD*%
%TO.C,MX_2.3*%
X-148748230Y96043550D03*
D21*
X-143668230Y96043550D03*
D20*
X-138588230Y96043550D03*
%TD*%
%TO.C,MX_3.2*%
X-167798310Y96043550D03*
D21*
X-162718310Y96043550D03*
D20*
X-157638310Y96043550D03*
%TD*%
%TO.C,MX_2.2*%
X-186848390Y96043550D03*
D21*
X-181768390Y96043550D03*
D20*
X-176688390Y96043550D03*
%TD*%
%TO.C,MX_3.1*%
X-205898470Y96043550D03*
D21*
X-200818470Y96043550D03*
D20*
X-195738470Y96043550D03*
%TD*%
%TO.C,MX_2.1*%
X-224948550Y96043550D03*
D21*
X-219868550Y96043550D03*
D20*
X-214788550Y96043550D03*
%TD*%
%TO.C,MX_2.0*%
X-263048710Y96043750D03*
D21*
X-257968710Y96043750D03*
D20*
X-252888710Y96043750D03*
%TD*%
%TO.C,MX_0.8*%
X51277610Y134143710D03*
D21*
X56357610Y134143710D03*
D20*
X61437610Y134143710D03*
%TD*%
%TO.C,MX_0.7*%
X3651250Y134143750D03*
D21*
X8731250Y134143750D03*
D20*
X13811250Y134143750D03*
%TD*%
%TO.C,MX_1.4*%
X-82073750Y134143750D03*
D21*
X-76993750Y134143750D03*
D20*
X-71913750Y134143750D03*
%TD*%
%TO.C,MX_1.6*%
X-15398750Y134143750D03*
D21*
X-10318750Y134143750D03*
D20*
X-5238750Y134143750D03*
%TD*%
%TO.C,MX_0.3*%
X-139223750Y134143750D03*
D21*
X-134143750Y134143750D03*
D20*
X-129063750Y134143750D03*
%TD*%
%TO.C,MX_0.4*%
X-101123750Y134143750D03*
D21*
X-96043750Y134143750D03*
D20*
X-90963750Y134143750D03*
%TD*%
%TO.C,MX_0.2*%
X-186848390Y134143750D03*
D21*
X-181768390Y134143750D03*
D20*
X-176688390Y134143750D03*
%TD*%
%TO.C,MX_0.1*%
X-224948550Y134143750D03*
D21*
X-219868550Y134143750D03*
D20*
X-214788550Y134143750D03*
%TD*%
%TO.C,MX_2.6*%
X-34447750Y96043750D03*
D21*
X-29367750Y96043750D03*
D20*
X-24287750Y96043750D03*
%TD*%
%TO.C,MX_1.2*%
X-167798310Y134143750D03*
D21*
X-162718310Y134143750D03*
D20*
X-157638310Y134143750D03*
%TD*%
%TO.C,MX_0.6*%
X-34448750Y134143750D03*
D21*
X-29368750Y134143750D03*
D20*
X-24288750Y134143750D03*
%TD*%
%TO.C,MX_1.8*%
X70326250Y134143750D03*
D21*
X75406250Y134143750D03*
D20*
X80486250Y134143750D03*
%TD*%
%TO.C,MX_1.3*%
X-120173750Y134143750D03*
D21*
X-115093750Y134143750D03*
D20*
X-110013750Y134143750D03*
%TD*%
%TO.C,MX_0.5*%
X-53498750Y134143750D03*
D21*
X-48418750Y134143750D03*
D20*
X-43338750Y134143750D03*
%TD*%
%TO.C,MX_3.0*%
X-243998750Y96043750D03*
D21*
X-238918750Y96043750D03*
D20*
X-233838750Y96043750D03*
%TD*%
%TO.C,MX_3.7*%
X32226250Y96043750D03*
D21*
X37306250Y96043750D03*
D20*
X42386250Y96043750D03*
%TD*%
%TO.C,MX_1.1*%
X-205898750Y134143750D03*
D21*
X-200818750Y134143750D03*
D20*
X-195738750Y134143750D03*
%TD*%
%TO.C,MX_3.8*%
X70326250Y96043750D03*
D21*
X75406250Y96043750D03*
D20*
X80486250Y96043750D03*
%TD*%
%TO.C,MX_5.4*%
X-101123750Y76993750D03*
D21*
X-96043750Y76993750D03*
D20*
X-90963750Y76993750D03*
%TD*%
D26*
%TO.C,MX_3.6_1*%
X-12700000Y103028750D03*
D21*
X-12700000Y87788750D03*
D20*
X-5873750Y96043750D03*
D21*
X-793750Y96043750D03*
D20*
X4286250Y96043750D03*
D26*
X11112500Y103028750D03*
D21*
X11112500Y87788750D03*
%TD*%
D20*
%TO.C,MX_6.0*%
X-255905000Y57943750D03*
D21*
X-250825000Y57943750D03*
D20*
X-245745000Y57943750D03*
%TD*%
%TO.C,MX_2.7*%
X3651250Y96043750D03*
D21*
X8731250Y96043750D03*
D20*
X13811250Y96043750D03*
%TD*%
%TO.C,MX_6.0_1*%
X-260667500Y57943750D03*
D21*
X-255587500Y57943750D03*
D20*
X-250507500Y57943750D03*
%TD*%
%TO.C,MX_6.9*%
X98901250Y57943750D03*
D21*
X103981250Y57943750D03*
D20*
X109061250Y57943750D03*
%TD*%
%TO.C,MX_7.6*%
X-20161250Y57943750D03*
D21*
X-15081250Y57943750D03*
D20*
X-10001250Y57943750D03*
%TD*%
%TO.C,MX_7.10*%
X156051250Y57943750D03*
D21*
X161131250Y57943750D03*
D20*
X166211250Y57943750D03*
%TD*%
%TO.C,MX_8.0*%
X-260667500Y38893750D03*
D21*
X-255587500Y38893750D03*
D20*
X-250507500Y38893750D03*
%TD*%
%TO.C,MX_9.6*%
X-22542500Y38893750D03*
D21*
X-17462500Y38893750D03*
D20*
X-12382500Y38893750D03*
%TD*%
%TO.C,MX_10.0_1*%
X-258286250Y19843750D03*
D21*
X-253206250Y19843750D03*
D20*
X-248126250Y19843750D03*
%TD*%
%TO.C,MX_11.1_1*%
X-210661250Y19843750D03*
D21*
X-205581250Y19843750D03*
D20*
X-200501250Y19843750D03*
%TD*%
D26*
%TO.C,MX_10.3_1*%
X-181768750Y26828750D03*
D21*
X-181768750Y11588750D03*
D20*
X-129698750Y19843750D03*
D21*
X-124618750Y19843750D03*
D20*
X-119538750Y19843750D03*
D26*
X-67468750Y26828750D03*
D21*
X-67468750Y11588750D03*
%TD*%
D20*
%TO.C,MX_10.7_1*%
X-1111250Y19843750D03*
D21*
X3968750Y19843750D03*
D20*
X9048750Y19843750D03*
%TD*%
%TO.C,MX_10.6_1*%
X-48736250Y19843750D03*
D21*
X-43656250Y19843750D03*
D20*
X-38576250Y19843750D03*
%TD*%
%TO.C,MX_11.10*%
X156051250Y19843750D03*
D21*
X161131250Y19843750D03*
D20*
X166211250Y19843750D03*
%TD*%
%TO.C,MX_10.0*%
X-260667490Y19843646D03*
D21*
X-255587490Y19843646D03*
D20*
X-250507490Y19843646D03*
%TD*%
%TO.C,MX_10.1*%
X-236855000Y19843750D03*
D21*
X-231775000Y19843750D03*
D20*
X-226695000Y19843750D03*
%TD*%
%TO.C,MX_11.1*%
X-213042500Y19843750D03*
D21*
X-207962500Y19843750D03*
D20*
X-202882500Y19843750D03*
%TD*%
%TO.C,MX_11.6*%
X-22542500Y19843750D03*
D21*
X-17462500Y19843750D03*
D20*
X-12382500Y19843750D03*
%TD*%
%TO.C,MX_10.7*%
X1270000Y19843750D03*
D21*
X6350000Y19843750D03*
D20*
X11430000Y19843750D03*
%TD*%
%TO.C,MX_10.6*%
X-46355000Y19843750D03*
D21*
X-41275000Y19843750D03*
D20*
X-36195000Y19843750D03*
%TD*%
D26*
%TO.C,MX_10.3*%
X-186524900Y26828750D03*
D21*
X-186524900Y11588750D03*
D20*
X-141605000Y19843750D03*
D21*
X-136525000Y19843750D03*
D20*
X-131445000Y19843750D03*
D26*
X-86525100Y26828750D03*
D21*
X-86525100Y11588750D03*
%TD*%
D20*
%TO.C,MX_10.5*%
X-70167500Y19843750D03*
D21*
X-65087500Y19843750D03*
D20*
X-60007500Y19843750D03*
%TD*%
D21*
%TO.C,MX_6.7_1*%
X-1905000Y79457549D03*
X-1905000Y55581549D03*
D20*
X1270000Y67519549D03*
D21*
X6350000Y67519549D03*
D20*
X11430000Y67519549D03*
D26*
X13335000Y79457549D03*
X13335000Y55581549D03*
%TD*%
%TO.C,MX_10.9_1*%
X101600000Y26828750D03*
D21*
X101600000Y11588750D03*
D20*
X108426250Y19843750D03*
D21*
X113506250Y19843750D03*
D20*
X118586250Y19843750D03*
D26*
X125412500Y26828750D03*
D21*
X125412500Y11588750D03*
%TD*%
D20*
%TO.C,MX_10.9*%
X98901250Y19843750D03*
D21*
X103981250Y19843750D03*
D20*
X109061250Y19843750D03*
%TD*%
%TO.C,MX_9.7*%
X32226250Y38893750D03*
D21*
X37306250Y38893750D03*
D20*
X42386250Y38893750D03*
%TD*%
D27*
%TO.C,J13*%
X114540000Y146720000D03*
%TD*%
D24*
%TO.C,L5*%
X-18590000Y14780000D03*
D25*
X-21130000Y14780000D03*
%TD*%
D27*
%TO.C,J14*%
X119190000Y146720000D03*
%TD*%
D24*
%TO.C,L4*%
X-228140000Y14770000D03*
D25*
X-230680000Y14770000D03*
%TD*%
D27*
%TO.C,J15*%
X123840000Y146720000D03*
%TD*%
D20*
%TO.C,MX_7.7*%
X32226250Y57943750D03*
D21*
X37306250Y57943750D03*
D20*
X42386250Y57943750D03*
%TD*%
D28*
%TO.C,J2*%
X-7470000Y128580000D03*
D29*
X-10010000Y128580000D03*
X-12550000Y128580000D03*
X-15090000Y128580000D03*
X-17630000Y128580000D03*
%TD*%
D20*
%TO.C,MX_9.8*%
X70326250Y38893750D03*
D21*
X75406250Y38893750D03*
D20*
X80486250Y38893750D03*
%TD*%
%TO.C,MX_6.8*%
X51276250Y57943750D03*
D21*
X56356250Y57943750D03*
D20*
X61436250Y57943750D03*
%TD*%
D27*
%TO.C,J55*%
X109890000Y146720000D03*
%TD*%
D20*
%TO.C,MX_7.8*%
X70326250Y57943750D03*
D21*
X75406250Y57943750D03*
D20*
X80486250Y57943750D03*
%TD*%
D27*
%TO.C,J6*%
X6250000Y111050000D03*
%TD*%
D30*
%TO.C,J4*%
X98830000Y144080036D03*
X98080000Y144080036D03*
X97340000Y144080036D03*
D31*
X97080000Y147980036D03*
D30*
X96590000Y144080036D03*
X95840000Y144080036D03*
X95090000Y144080036D03*
X93290000Y144080036D03*
X92540000Y144080036D03*
D31*
X91300000Y147980036D03*
D30*
X90950000Y144080036D03*
X90240000Y144080036D03*
X89540000Y144080036D03*
D32*
X97440000Y146535036D03*
X96640000Y146535036D03*
D33*
X95440000Y146535036D03*
X94440000Y146535036D03*
X93940000Y146535036D03*
X92940000Y146535036D03*
D32*
X91740000Y146535036D03*
X90940000Y146535036D03*
X90940000Y146535036D03*
X91740000Y146535036D03*
D33*
X92440000Y146535036D03*
X93440000Y146535036D03*
X94940000Y146535036D03*
X95940000Y146535036D03*
D32*
X96640000Y146535036D03*
X97440000Y146535036D03*
D34*
X98510000Y147450036D03*
D35*
X98510000Y151630036D03*
D34*
X89870000Y147450036D03*
D35*
X89870000Y151630036D03*
%TD*%
D27*
%TO.C,J1*%
X-3050000Y111050000D03*
%TD*%
%TO.C,J5*%
X1600000Y111050000D03*
%TD*%
D28*
%TO.C,SW1*%
X-19413750Y99913750D03*
D36*
X-21953750Y99913750D03*
%TD*%
%LPD*%
M02*
