%TF.GenerationSoftware,KiCad,Pcbnew,9.99.0-2510-g416e54f0d5*%
%TF.CreationDate,2026-02-07T10:38:21-05:00*%
%TF.ProjectId,gh80-3003,67683830-2d33-4303-9033-2e6b69636164,rev?*%
%TF.SameCoordinates,Original*%
%TF.FileFunction,Soldermask,Bot*%
%TF.FilePolarity,Negative*%
%FSLAX46Y46*%
G04 Gerber Fmt 4.6, Leading zero omitted, Abs format (unit mm)*
G04 Created by KiCad (PCBNEW 9.99.0-2510-g416e54f0d5) date 2026-02-07 10:38:21*
%MOMM*%
%LPD*%
G01*
G04 APERTURE LIST*
G04 Aperture macros list*
%AMRoundRect*
0 Rectangle with rounded corners*
0 $1 Rounding radius*
0 $2 $3 $4 $5 $6 $7 $8 $9 X,Y pos of 4 corners*
0 Add a 4 corners polygon primitive as box body*
4,1,4,$2,$3,$4,$5,$6,$7,$8,$9,$2,$3,0*
0 Add four circle primitives for the rounded corners*
1,1,$1+$1,$2,$3*
1,1,$1+$1,$4,$5*
1,1,$1+$1,$6,$7*
1,1,$1+$1,$8,$9*
0 Add four rect primitives between the rounded corners*
20,1,$1+$1,$2,$3,$4,$5,0*
20,1,$1+$1,$4,$5,$6,$7,0*
20,1,$1+$1,$6,$7,$8,$9,0*
20,1,$1+$1,$8,$9,$2,$3,0*%
G04 Aperture macros list end*
%ADD10C,6.500000*%
%ADD11C,3.600000*%
%ADD12C,6.200000*%
%ADD13C,4.000000*%
%ADD14C,1.750000*%
%ADD15C,3.987800*%
%ADD16C,2.250000*%
%ADD17R,1.800000X1.800000*%
%ADD18C,1.800000*%
%ADD19R,1.778000X1.778000*%
%ADD20C,1.778000*%
%ADD21C,3.048000*%
%ADD22C,1.905000*%
%ADD23R,1.905000X1.905000*%
%ADD24C,3.000000*%
%ADD25R,1.700000X1.700000*%
%ADD26C,1.700000*%
%ADD27C,0.500000*%
%ADD28C,0.650000*%
%ADD29O,1.000000X2.100000*%
%ADD30O,1.000000X1.600000*%
%ADD31RoundRect,0.250000X0.262500X0.450000X-0.262500X0.450000X-0.262500X-0.450000X0.262500X-0.450000X0*%
%ADD32RoundRect,0.225000X0.375000X-0.225000X0.375000X0.225000X-0.375000X0.225000X-0.375000X-0.225000X0*%
%ADD33RoundRect,0.140000X0.170000X-0.140000X0.170000X0.140000X-0.170000X0.140000X-0.170000X-0.140000X0*%
%ADD34RoundRect,0.140000X-0.170000X0.140000X-0.170000X-0.140000X0.170000X-0.140000X0.170000X0.140000X0*%
%ADD35RoundRect,0.135000X-0.185000X0.135000X-0.185000X-0.135000X0.185000X-0.135000X0.185000X0.135000X0*%
%ADD36RoundRect,0.140000X-0.140000X-0.170000X0.140000X-0.170000X0.140000X0.170000X-0.140000X0.170000X0*%
%ADD37RoundRect,0.200000X0.275000X-0.200000X0.275000X0.200000X-0.275000X0.200000X-0.275000X-0.200000X0*%
%ADD38O,1.700000X1.700000*%
%ADD39RoundRect,0.140000X0.140000X0.170000X-0.140000X0.170000X-0.140000X-0.170000X0.140000X-0.170000X0*%
%ADD40RoundRect,0.250000X-0.250000X-0.475000X0.250000X-0.475000X0.250000X0.475000X-0.250000X0.475000X0*%
%ADD41RoundRect,0.050000X-0.387500X-0.050000X0.387500X-0.050000X0.387500X0.050000X-0.387500X0.050000X0*%
%ADD42RoundRect,0.050000X-0.050000X-0.387500X0.050000X-0.387500X0.050000X0.387500X-0.050000X0.387500X0*%
%ADD43RoundRect,0.144000X-1.456000X-1.456000X1.456000X-1.456000X1.456000X1.456000X-1.456000X1.456000X0*%
%ADD44RoundRect,0.150000X-0.150000X-0.625000X0.150000X-0.625000X0.150000X0.625000X-0.150000X0.625000X0*%
%ADD45RoundRect,0.250000X-0.350000X-0.650000X0.350000X-0.650000X0.350000X0.650000X-0.350000X0.650000X0*%
%ADD46RoundRect,0.250000X-0.262500X-0.450000X0.262500X-0.450000X0.262500X0.450000X-0.262500X0.450000X0*%
%ADD47R,2.200000X2.200000*%
%ADD48RoundRect,0.135000X0.135000X0.185000X-0.135000X0.185000X-0.135000X-0.185000X0.135000X-0.185000X0*%
%ADD49RoundRect,0.150000X-0.150000X0.650000X-0.150000X-0.650000X0.150000X-0.650000X0.150000X0.650000X0*%
%ADD50RoundRect,0.150000X-0.587500X-0.150000X0.587500X-0.150000X0.587500X0.150000X-0.587500X0.150000X0*%
%ADD51RoundRect,0.150000X-0.475000X-0.150000X0.475000X-0.150000X0.475000X0.150000X-0.475000X0.150000X0*%
%ADD52RoundRect,0.135000X-0.135000X-0.185000X0.135000X-0.185000X0.135000X0.185000X-0.135000X0.185000X0*%
%ADD53RoundRect,0.250000X-0.625000X0.375000X-0.625000X-0.375000X0.625000X-0.375000X0.625000X0.375000X0*%
%ADD54RoundRect,0.250000X0.625000X-0.375000X0.625000X0.375000X-0.625000X0.375000X-0.625000X-0.375000X0*%
%ADD55R,1.200000X1.400000*%
G04 APERTURE END LIST*
D10*
%TO.C,REF\u002A\u002A*%
X-218082771Y115093726D03*
%TD*%
D11*
%TO.C,REF\u002A\u002A*%
X-232965596Y115093726D03*
%TD*%
%TO.C,REF\u002A\u002A*%
X-123428004Y115093726D03*
%TD*%
%TO.C,REF\u002A\u002A*%
X23018994Y115093726D03*
%TD*%
D12*
%TO.C,REF\u002A\u002A*%
X121840952Y115093726D03*
%TD*%
D11*
%TO.C,REF\u002A\u002A*%
X136723777Y115093726D03*
%TD*%
D13*
%TO.C,REF\u002A\u002A*%
X-265112498Y19843646D03*
%TD*%
D14*
%TO.C,MX_1.7*%
X32227530Y134143750D03*
D15*
X37307530Y134143750D03*
D14*
X42387530Y134143750D03*
D16*
X33497530Y136683750D03*
X39847530Y139223750D03*
%TD*%
D14*
%TO.C,MX_0.0*%
X-263048742Y134143742D03*
D15*
X-257968742Y134143742D03*
D14*
X-252888742Y134143742D03*
D16*
X-261778742Y136683742D03*
X-255428742Y139223742D03*
%TD*%
D13*
%TO.C,REF\u002A\u002A*%
X91479989Y48418670D03*
%TD*%
%TO.C,REF\u002A\u002A*%
X-188317121Y48418670D03*
%TD*%
D17*
%TO.C,L1*%
X105858127Y129976551D03*
D18*
X108398127Y129976551D03*
%TD*%
D19*
%TO.C,L1-1*%
X105251562Y90963710D03*
D20*
X102711562Y90963710D03*
%TD*%
D19*
%TO.C,L2-1*%
X-249554986Y52863678D03*
D20*
X-252094986Y52863678D03*
%TD*%
D19*
%TO.C,L2-2*%
X-254317490Y52863678D03*
D20*
X-256857490Y52863678D03*
%TD*%
D19*
%TO.C,L3-1*%
X57627610Y129063710D03*
D20*
X55087610Y129063710D03*
%TD*%
D17*
%TO.C,L3*%
X157055045Y129976551D03*
D18*
X159595045Y129976551D03*
%TD*%
D14*
%TO.C,MX_0.10*%
X137002970Y134143750D03*
D15*
X142082970Y134143750D03*
D14*
X147162970Y134143750D03*
D16*
X138272970Y136683750D03*
X144622970Y139223750D03*
%TD*%
D14*
%TO.C,MX_0.9*%
X98901250Y134143750D03*
D15*
X103981250Y134143750D03*
D14*
X109061250Y134143750D03*
D16*
X100171250Y136683750D03*
X106521250Y139223750D03*
%TD*%
D14*
%TO.C,MX_10.10*%
X137001250Y19843750D03*
D15*
X142081250Y19843750D03*
D14*
X147161250Y19843750D03*
D16*
X138271250Y22383750D03*
X144621250Y24923750D03*
%TD*%
D14*
%TO.C,MX_1.9*%
X117952890Y134143710D03*
D15*
X123032890Y134143710D03*
D14*
X128112890Y134143710D03*
D16*
X119222890Y136683710D03*
X125572890Y139223710D03*
%TD*%
D17*
%TO.C,L2*%
X131456586Y129976551D03*
D18*
X133996586Y129976551D03*
%TD*%
D21*
%TO.C,MX_9.10_1*%
X154146250Y41306750D03*
X154146250Y17430750D03*
D14*
X156051250Y29368750D03*
D15*
X161131250Y29368750D03*
D14*
X166211250Y29368750D03*
D15*
X169386250Y41306750D03*
X169386250Y17430750D03*
D16*
X157321250Y31908750D03*
X163671250Y34448750D03*
%TD*%
D14*
%TO.C,MX_8.10*%
X137001250Y38893750D03*
D15*
X142081250Y38893750D03*
D14*
X147161250Y38893750D03*
D16*
X138271250Y41433750D03*
X144621250Y43973750D03*
%TD*%
D14*
%TO.C,MX_9.9*%
X117951250Y38893750D03*
D15*
X123031250Y38893750D03*
D14*
X128111250Y38893750D03*
D16*
X119221250Y41433750D03*
X125571250Y43973750D03*
%TD*%
D14*
%TO.C,MX_9.10*%
X156051250Y38893750D03*
D15*
X161131250Y38893750D03*
D14*
X166211250Y38893750D03*
D16*
X157321250Y41433750D03*
X163671250Y43973750D03*
%TD*%
D14*
%TO.C,MX_11.9*%
X117951250Y19843750D03*
D15*
X123031250Y19843750D03*
D14*
X128111250Y19843750D03*
D16*
X119221250Y22383750D03*
X125571250Y24923750D03*
%TD*%
D14*
%TO.C,MX_8.8*%
X51276250Y38893750D03*
D15*
X56356250Y38893750D03*
D14*
X61436250Y38893750D03*
D16*
X52546250Y41433750D03*
X58896250Y43973750D03*
%TD*%
D14*
%TO.C,MX_11.8*%
X70326250Y19843750D03*
D15*
X75406250Y19843750D03*
D14*
X80486250Y19843750D03*
D16*
X71596250Y22383750D03*
X77946250Y24923750D03*
%TD*%
D14*
%TO.C,MX_10.8*%
X51276250Y19843750D03*
D15*
X56356250Y19843750D03*
D14*
X61436250Y19843750D03*
D16*
X52546250Y22383750D03*
X58896250Y24923750D03*
%TD*%
D14*
%TO.C,MX_11.7*%
X32226250Y19843750D03*
D15*
X37306250Y19843750D03*
D14*
X42386250Y19843750D03*
D16*
X33496250Y22383750D03*
X39846250Y24923750D03*
%TD*%
D14*
%TO.C,MX_11.6_1*%
X-24923750Y19843750D03*
D15*
X-19843750Y19843750D03*
D14*
X-14763750Y19843750D03*
D16*
X-23653750Y22383750D03*
X-17303750Y24923750D03*
D22*
X-21113750Y14763750D03*
D23*
X-18573750Y14763750D03*
%TD*%
D14*
%TO.C,MX_10.1_1*%
X-234473750Y19843750D03*
D15*
X-229393750Y19843750D03*
D14*
X-224313750Y19843750D03*
D16*
X-233203750Y22383750D03*
X-226853750Y24923750D03*
D22*
X-230663750Y14763750D03*
D23*
X-228123750Y14763750D03*
%TD*%
D14*
%TO.C,MX_8.7*%
X3651250Y38893750D03*
D15*
X8731250Y38893750D03*
D14*
X13811250Y38893750D03*
D16*
X4921250Y41433750D03*
X11271250Y43973750D03*
%TD*%
D14*
%TO.C,MX_8.9*%
X98901250Y38893750D03*
D15*
X103981250Y38893750D03*
D14*
X109061250Y38893750D03*
D16*
X100171250Y41433750D03*
X106521250Y43973750D03*
%TD*%
D21*
%TO.C,MX_9.6_1*%
X-19843750Y45878750D03*
D15*
X-19843750Y30638750D03*
D14*
X-13017500Y38893750D03*
D15*
X-7937500Y38893750D03*
D14*
X-2857500Y38893750D03*
D21*
X3968750Y45878750D03*
D15*
X3968750Y30638750D03*
D16*
X-11747500Y41433750D03*
X-5397500Y43973750D03*
%TD*%
D14*
%TO.C,MX_8.6*%
X-48736250Y38893750D03*
D15*
X-43656250Y38893750D03*
D14*
X-38576250Y38893750D03*
D16*
X-47466250Y41433750D03*
X-41116250Y43973750D03*
%TD*%
D14*
%TO.C,MX_8.5*%
X-86836250Y38893750D03*
D15*
X-81756250Y38893750D03*
D14*
X-76676250Y38893750D03*
D16*
X-85566250Y41433750D03*
X-79216250Y43973750D03*
%TD*%
D14*
%TO.C,MX_9.4*%
X-105886250Y38893750D03*
D15*
X-100806250Y38893750D03*
D14*
X-95726250Y38893750D03*
D16*
X-104616250Y41433750D03*
X-98266250Y43973750D03*
%TD*%
D14*
%TO.C,MX_9.1*%
X-220186250Y38893750D03*
D15*
X-215106250Y38893750D03*
D14*
X-210026250Y38893750D03*
D16*
X-218916250Y41433750D03*
X-212566250Y43973750D03*
%TD*%
D14*
%TO.C,MX_8.1*%
X-239236250Y38893750D03*
D15*
X-234156250Y38893750D03*
D14*
X-229076250Y38893750D03*
D16*
X-237966250Y41433750D03*
X-231616250Y43973750D03*
%TD*%
D21*
%TO.C,MX_5.10_1*%
X154146250Y79406750D03*
X154146250Y55530750D03*
D14*
X156051250Y67468750D03*
D15*
X161131250Y67468750D03*
D14*
X166211250Y67468750D03*
D15*
X169386250Y79406750D03*
X169386250Y55530750D03*
D16*
X157321250Y70008750D03*
X163671250Y72548750D03*
%TD*%
D14*
%TO.C,MX_7.1*%
X-210661250Y57943750D03*
D15*
X-205581250Y57943750D03*
D14*
X-200501250Y57943750D03*
D16*
X-209391250Y60483750D03*
X-203041250Y63023750D03*
%TD*%
D14*
%TO.C,MX_4.6*%
X-43973750Y76993750D03*
D15*
X-38893750Y76993750D03*
D14*
X-33813750Y76993750D03*
D16*
X-42703750Y79533750D03*
X-36353750Y82073750D03*
%TD*%
D14*
%TO.C,MX_6.6*%
X-39211250Y57943750D03*
D15*
X-34131250Y57943750D03*
D14*
X-29051250Y57943750D03*
D16*
X-37941250Y60483750D03*
X-31591250Y63023750D03*
%TD*%
D14*
%TO.C,MX_7.3*%
X-134461250Y57943750D03*
D15*
X-129381250Y57943750D03*
D14*
X-124301250Y57943750D03*
D16*
X-133191250Y60483750D03*
X-126841250Y63023750D03*
%TD*%
D14*
%TO.C,MX_5.10*%
X156051250Y76993750D03*
D15*
X161131250Y76993750D03*
D14*
X166211250Y76993750D03*
D16*
X157321250Y79533750D03*
X163671250Y82073750D03*
%TD*%
D14*
%TO.C,MX_4.10*%
X137001250Y76993750D03*
D15*
X142081250Y76993750D03*
D14*
X147161250Y76993750D03*
D16*
X138271250Y79533750D03*
X144621250Y82073750D03*
%TD*%
D14*
%TO.C,MX_4.9*%
X98901250Y76993750D03*
D15*
X103981250Y76993750D03*
D14*
X109061250Y76993750D03*
D16*
X100171250Y79533750D03*
X106521250Y82073750D03*
%TD*%
D14*
%TO.C,MX_4.8*%
X51276250Y76993750D03*
D15*
X56356250Y76993750D03*
D14*
X61436250Y76993750D03*
D16*
X52546250Y79533750D03*
X58896250Y82073750D03*
%TD*%
D14*
%TO.C,MX_5.7*%
X32226250Y76993750D03*
D15*
X37306250Y76993750D03*
D14*
X42386250Y76993750D03*
D16*
X33496250Y79533750D03*
X39846250Y82073750D03*
%TD*%
D14*
%TO.C,MX_8.3*%
X-163036250Y38893750D03*
D15*
X-157956250Y38893750D03*
D14*
X-152876250Y38893750D03*
D16*
X-161766250Y41433750D03*
X-155416250Y43973750D03*
%TD*%
D14*
%TO.C,MX_9.2*%
X-182086250Y38893750D03*
D15*
X-177006250Y38893750D03*
D14*
X-171926250Y38893750D03*
D16*
X-180816250Y41433750D03*
X-174466250Y43973750D03*
%TD*%
D14*
%TO.C,MX_7.9*%
X117951250Y57943750D03*
D15*
X123031250Y57943750D03*
D14*
X128111250Y57943750D03*
D16*
X119221250Y60483750D03*
X125571250Y63023750D03*
%TD*%
D14*
%TO.C,MX_6.5*%
X-77311250Y57943750D03*
D15*
X-72231250Y57943750D03*
D14*
X-67151250Y57943750D03*
D16*
X-76041250Y60483750D03*
X-69691250Y63023750D03*
%TD*%
D14*
%TO.C,MX_8.4*%
X-124936250Y38893750D03*
D15*
X-119856250Y38893750D03*
D14*
X-114776250Y38893750D03*
D16*
X-123666250Y41433750D03*
X-117316250Y43973750D03*
%TD*%
D14*
%TO.C,MX_5.8*%
X70326250Y76993750D03*
D15*
X75406250Y76993750D03*
D14*
X80486250Y76993750D03*
D16*
X71596250Y79533750D03*
X77946250Y82073750D03*
%TD*%
D14*
%TO.C,MX_7.4*%
X-96361250Y57943750D03*
D15*
X-91281250Y57943750D03*
D14*
X-86201250Y57943750D03*
D16*
X-95091250Y60483750D03*
X-88741250Y63023750D03*
%TD*%
D14*
%TO.C,MX_6.3*%
X-153511250Y57943750D03*
D15*
X-148431250Y57943750D03*
D14*
X-143351250Y57943750D03*
D16*
X-152241250Y60483750D03*
X-145891250Y63023750D03*
%TD*%
D14*
%TO.C,MX_6.2*%
X-191611250Y57943750D03*
D15*
X-186531250Y57943750D03*
D14*
X-181451250Y57943750D03*
D16*
X-190341250Y60483750D03*
X-183991250Y63023750D03*
%TD*%
D14*
%TO.C,MX_5.6*%
X-24923750Y76993750D03*
D15*
X-19843750Y76993750D03*
D14*
X-14763750Y76993750D03*
D16*
X-23653750Y79533750D03*
X-17303750Y82073750D03*
%TD*%
D14*
%TO.C,MX_5.9*%
X117951250Y76993750D03*
D15*
X123031250Y76993750D03*
D14*
X128111250Y76993750D03*
D16*
X119221250Y79533750D03*
X125571250Y82073750D03*
%TD*%
D21*
%TO.C,MX_8.0_1*%
X-257968750Y45878750D03*
D15*
X-257968750Y30638750D03*
D14*
X-251142500Y38893750D03*
D15*
X-246062500Y38893750D03*
D14*
X-240982500Y38893750D03*
D21*
X-234156250Y45878750D03*
D15*
X-234156250Y30638750D03*
D16*
X-249872500Y41433750D03*
X-243522500Y43973750D03*
%TD*%
D14*
%TO.C,MX_4.5*%
X-82073750Y76993750D03*
D15*
X-76993750Y76993750D03*
D14*
X-71913750Y76993750D03*
D16*
X-80803750Y79533750D03*
X-74453750Y82073750D03*
%TD*%
D14*
%TO.C,MX_6.10*%
X137001250Y57943750D03*
D15*
X142081250Y57943750D03*
D14*
X147161250Y57943750D03*
D16*
X138271250Y60483750D03*
X144621250Y63023750D03*
%TD*%
D21*
%TO.C,MX_6.7*%
X-15081250Y64928750D03*
D15*
X-15081250Y49688750D03*
D14*
X-8255000Y57943750D03*
D15*
X-3175000Y57943750D03*
D14*
X1905000Y57943750D03*
D21*
X8731250Y64928750D03*
D15*
X8731250Y49688750D03*
D16*
X-6985000Y60483750D03*
X-635000Y63023750D03*
%TD*%
D14*
%TO.C,MX_4.7*%
X-1111250Y76993750D03*
D15*
X3968750Y76993750D03*
D14*
X9048750Y76993750D03*
D16*
X158750Y79533750D03*
X6508750Y82073750D03*
%TD*%
D14*
%TO.C,MX_7.2*%
X-172561250Y57943750D03*
D15*
X-167481250Y57943750D03*
D14*
X-162401250Y57943750D03*
D16*
X-171291250Y60483750D03*
X-164941250Y63023750D03*
%TD*%
D14*
%TO.C,MX_9.3*%
X-143986250Y38893750D03*
D15*
X-138906250Y38893750D03*
D14*
X-133826250Y38893750D03*
D16*
X-142716250Y41433750D03*
X-136366250Y43973750D03*
%TD*%
D14*
%TO.C,MX_8.2*%
X-201136250Y38893750D03*
D15*
X-196056250Y38893750D03*
D14*
X-190976250Y38893750D03*
D16*
X-199866250Y41433750D03*
X-193516250Y43973750D03*
%TD*%
D14*
%TO.C,MX_9.5*%
X-67786250Y38893750D03*
D15*
X-62706250Y38893750D03*
D14*
X-57626250Y38893750D03*
D16*
X-66516250Y41433750D03*
X-60166250Y43973750D03*
%TD*%
D14*
%TO.C,MX_7.5*%
X-58261250Y57943750D03*
D15*
X-53181250Y57943750D03*
D14*
X-48101250Y57943750D03*
D16*
X-56991250Y60483750D03*
X-50641250Y63023750D03*
%TD*%
D14*
%TO.C,MX_6.4*%
X-115411250Y57943750D03*
D15*
X-110331250Y57943750D03*
D14*
X-105251250Y57943750D03*
D16*
X-114141250Y60483750D03*
X-107791250Y63023750D03*
%TD*%
D14*
%TO.C,MX_6.1*%
X-229711250Y57943750D03*
D15*
X-224631250Y57943750D03*
D14*
X-219551250Y57943750D03*
D16*
X-228441250Y60483750D03*
X-222091250Y63023750D03*
%TD*%
D14*
%TO.C,MX_5.5*%
X-63023750Y76993750D03*
D15*
X-57943750Y76993750D03*
D14*
X-52863750Y76993750D03*
D16*
X-61753750Y79533750D03*
X-55403750Y82073750D03*
%TD*%
D14*
%TO.C,MX_4.4*%
X-120173750Y76993750D03*
D15*
X-115093750Y76993750D03*
D14*
X-110013750Y76993750D03*
D16*
X-118903750Y79533750D03*
X-112553750Y82073750D03*
%TD*%
D14*
%TO.C,MX_4.2*%
X-196373750Y76993750D03*
D15*
X-191293750Y76993750D03*
D14*
X-186213750Y76993750D03*
D16*
X-195103750Y79533750D03*
X-188753750Y82073750D03*
%TD*%
D14*
%TO.C,MX_5.3*%
X-139223750Y76993750D03*
D15*
X-134143750Y76993750D03*
D14*
X-129063750Y76993750D03*
D16*
X-137953750Y79533750D03*
X-131603750Y82073750D03*
%TD*%
D14*
%TO.C,MX_4.3*%
X-158273750Y76993750D03*
D15*
X-153193750Y76993750D03*
D14*
X-148113750Y76993750D03*
D16*
X-157003750Y79533750D03*
X-150653750Y82073750D03*
%TD*%
D14*
%TO.C,MX_5.2*%
X-177323750Y76993750D03*
D15*
X-172243750Y76993750D03*
D14*
X-167163750Y76993750D03*
D16*
X-176053750Y79533750D03*
X-169703750Y82073750D03*
%TD*%
D14*
%TO.C,MX_5.1*%
X-215423750Y76993750D03*
D15*
X-210343750Y76993750D03*
D14*
X-205263750Y76993750D03*
D16*
X-214153750Y79533750D03*
X-207803750Y82073750D03*
%TD*%
D14*
%TO.C,MX_4.0*%
X-258286250Y76993750D03*
D15*
X-253206250Y76993750D03*
D14*
X-248126250Y76993750D03*
D16*
X-257016250Y79533750D03*
X-250666250Y82073750D03*
%TD*%
D14*
%TO.C,MX_3.9*%
X117951250Y96043750D03*
D15*
X123031250Y96043750D03*
D14*
X128111250Y96043750D03*
D16*
X119221250Y98583750D03*
X125571250Y101123750D03*
%TD*%
D14*
%TO.C,MX_3.6*%
X-15397670Y96043550D03*
D15*
X-10317670Y96043550D03*
D14*
X-5237670Y96043550D03*
D16*
X-14127670Y98583550D03*
X-7777670Y101123550D03*
%TD*%
D14*
%TO.C,MX_4.1*%
X-234473750Y76993750D03*
D15*
X-229393750Y76993750D03*
D14*
X-224313750Y76993750D03*
D16*
X-233203750Y79533750D03*
X-226853750Y82073750D03*
%TD*%
D14*
%TO.C,MX_3.10*%
X156051250Y96043750D03*
D15*
X161131250Y96043750D03*
D14*
X166211250Y96043750D03*
D16*
X157321250Y98583750D03*
X163671250Y101123750D03*
%TD*%
D14*
%TO.C,MX_2.9*%
X98901250Y96043750D03*
D15*
X103981250Y96043750D03*
D14*
X109061250Y96043750D03*
D16*
X100171250Y98583750D03*
X106521250Y101123750D03*
D22*
X102711250Y90963750D03*
D23*
X105251250Y90963750D03*
%TD*%
D14*
%TO.C,MX_2.10*%
X137001250Y96043750D03*
D15*
X142081250Y96043750D03*
D14*
X147161250Y96043750D03*
D16*
X138271250Y98583750D03*
X144621250Y101123750D03*
%TD*%
D14*
%TO.C,MX_2.8*%
X51276250Y96043750D03*
D15*
X56356250Y96043750D03*
D14*
X61436250Y96043750D03*
D16*
X52546250Y98583750D03*
X58896250Y101123750D03*
%TD*%
D14*
%TO.C,MX_3.5*%
X-53497830Y96043550D03*
D15*
X-48417830Y96043550D03*
D14*
X-43337830Y96043550D03*
D16*
X-52227830Y98583550D03*
X-45877830Y101123550D03*
%TD*%
D14*
%TO.C,MX_2.5*%
X-72547910Y96043550D03*
D15*
X-67467910Y96043550D03*
D14*
X-62387910Y96043550D03*
D16*
X-71277910Y98583550D03*
X-64927910Y101123550D03*
%TD*%
D14*
%TO.C,MX_3.4*%
X-91598750Y96043550D03*
D15*
X-86518750Y96043550D03*
D14*
X-81438750Y96043550D03*
D16*
X-90328750Y98583550D03*
X-83978750Y101123550D03*
%TD*%
D14*
%TO.C,MX_2.4*%
X-110648070Y96043550D03*
D15*
X-105568070Y96043550D03*
D14*
X-100488070Y96043550D03*
D16*
X-109378070Y98583550D03*
X-103028070Y101123550D03*
%TD*%
D14*
%TO.C,MX_3.3*%
X-129698750Y96043750D03*
D15*
X-124618750Y96043750D03*
D14*
X-119538750Y96043750D03*
D16*
X-128428750Y98583750D03*
X-122078750Y101123750D03*
%TD*%
D14*
%TO.C,MX_2.3*%
X-148748230Y96043550D03*
D15*
X-143668230Y96043550D03*
D14*
X-138588230Y96043550D03*
D16*
X-147478230Y98583550D03*
X-141128230Y101123550D03*
%TD*%
D14*
%TO.C,MX_3.2*%
X-167798310Y96043550D03*
D15*
X-162718310Y96043550D03*
D14*
X-157638310Y96043550D03*
D16*
X-166528310Y98583550D03*
X-160178310Y101123550D03*
%TD*%
D14*
%TO.C,MX_2.2*%
X-186848390Y96043550D03*
D15*
X-181768390Y96043550D03*
D14*
X-176688390Y96043550D03*
D16*
X-185578390Y98583550D03*
X-179228390Y101123550D03*
%TD*%
D14*
%TO.C,MX_3.1*%
X-205898470Y96043550D03*
D15*
X-200818470Y96043550D03*
D14*
X-195738470Y96043550D03*
D16*
X-204628470Y98583550D03*
X-198278470Y101123550D03*
%TD*%
D14*
%TO.C,MX_2.1*%
X-224948550Y96043550D03*
D15*
X-219868550Y96043550D03*
D14*
X-214788550Y96043550D03*
D16*
X-223678550Y98583550D03*
X-217328550Y101123550D03*
%TD*%
D14*
%TO.C,MX_2.0*%
X-263048710Y96043750D03*
D15*
X-257968710Y96043750D03*
D14*
X-252888710Y96043750D03*
D16*
X-261778710Y98583750D03*
X-255428710Y101123750D03*
%TD*%
D14*
%TO.C,MX_0.8*%
X51277610Y134143710D03*
D15*
X56357610Y134143710D03*
D14*
X61437610Y134143710D03*
D16*
X52547610Y136683710D03*
X58897610Y139223710D03*
D22*
X55087610Y129063710D03*
D23*
X57627610Y129063710D03*
%TD*%
D14*
%TO.C,MX_0.7*%
X3651250Y134143750D03*
D15*
X8731250Y134143750D03*
D14*
X13811250Y134143750D03*
D16*
X4921250Y136683750D03*
X11271250Y139223750D03*
%TD*%
D14*
%TO.C,MX_1.4*%
X-82073750Y134143750D03*
D15*
X-76993750Y134143750D03*
D14*
X-71913750Y134143750D03*
D16*
X-80803750Y136683750D03*
X-74453750Y139223750D03*
%TD*%
D14*
%TO.C,MX_1.6*%
X-15398750Y134143750D03*
D15*
X-10318750Y134143750D03*
D14*
X-5238750Y134143750D03*
D16*
X-14128750Y136683750D03*
X-7778750Y139223750D03*
%TD*%
D14*
%TO.C,MX_0.3*%
X-139223750Y134143750D03*
D15*
X-134143750Y134143750D03*
D14*
X-129063750Y134143750D03*
D16*
X-137953750Y136683750D03*
X-131603750Y139223750D03*
%TD*%
D14*
%TO.C,MX_0.4*%
X-101123750Y134143750D03*
D15*
X-96043750Y134143750D03*
D14*
X-90963750Y134143750D03*
D16*
X-99853750Y136683750D03*
X-93503750Y139223750D03*
%TD*%
D14*
%TO.C,MX_0.2*%
X-186848390Y134143750D03*
D15*
X-181768390Y134143750D03*
D14*
X-176688390Y134143750D03*
D16*
X-185578390Y136683750D03*
X-179228390Y139223750D03*
%TD*%
D14*
%TO.C,MX_0.1*%
X-224948550Y134143750D03*
D15*
X-219868550Y134143750D03*
D14*
X-214788550Y134143750D03*
D16*
X-223678550Y136683750D03*
X-217328550Y139223750D03*
%TD*%
D14*
%TO.C,MX_2.6*%
X-34447750Y96043750D03*
D15*
X-29367750Y96043750D03*
D14*
X-24287750Y96043750D03*
D16*
X-33177750Y98583750D03*
X-26827750Y101123750D03*
%TD*%
D14*
%TO.C,MX_1.2*%
X-167798310Y134143750D03*
D15*
X-162718310Y134143750D03*
D14*
X-157638310Y134143750D03*
D16*
X-166528310Y136683750D03*
X-160178310Y139223750D03*
%TD*%
D14*
%TO.C,MX_0.6*%
X-34448750Y134143750D03*
D15*
X-29368750Y134143750D03*
D14*
X-24288750Y134143750D03*
D16*
X-33178750Y136683750D03*
X-26828750Y139223750D03*
%TD*%
D14*
%TO.C,MX_1.8*%
X70326250Y134143750D03*
D15*
X75406250Y134143750D03*
D14*
X80486250Y134143750D03*
D16*
X71596250Y136683750D03*
X77946250Y139223750D03*
%TD*%
D14*
%TO.C,MX_1.3*%
X-120173750Y134143750D03*
D15*
X-115093750Y134143750D03*
D14*
X-110013750Y134143750D03*
D16*
X-118903750Y136683750D03*
X-112553750Y139223750D03*
%TD*%
D14*
%TO.C,MX_0.5*%
X-53498750Y134143750D03*
D15*
X-48418750Y134143750D03*
D14*
X-43338750Y134143750D03*
D16*
X-52228750Y136683750D03*
X-45878750Y139223750D03*
%TD*%
D14*
%TO.C,MX_3.0*%
X-243998750Y96043750D03*
D15*
X-238918750Y96043750D03*
D14*
X-233838750Y96043750D03*
D16*
X-242728750Y98583750D03*
X-236378750Y101123750D03*
%TD*%
D14*
%TO.C,MX_3.7*%
X32226250Y96043750D03*
D15*
X37306250Y96043750D03*
D14*
X42386250Y96043750D03*
D16*
X33496250Y98583750D03*
X39846250Y101123750D03*
%TD*%
D14*
%TO.C,MX_1.1*%
X-205898750Y134143750D03*
D15*
X-200818750Y134143750D03*
D14*
X-195738750Y134143750D03*
D16*
X-204628750Y136683750D03*
X-198278750Y139223750D03*
%TD*%
D14*
%TO.C,MX_3.8*%
X70326250Y96043750D03*
D15*
X75406250Y96043750D03*
D14*
X80486250Y96043750D03*
D16*
X71596250Y98583750D03*
X77946250Y101123750D03*
%TD*%
D14*
%TO.C,MX_5.4*%
X-101123750Y76993750D03*
D15*
X-96043750Y76993750D03*
D14*
X-90963750Y76993750D03*
D16*
X-99853750Y79533750D03*
X-93503750Y82073750D03*
%TD*%
D21*
%TO.C,MX_3.6_1*%
X-12700000Y103028750D03*
D15*
X-12700000Y87788750D03*
D14*
X-5873750Y96043750D03*
D15*
X-793750Y96043750D03*
D14*
X4286250Y96043750D03*
D21*
X11112500Y103028750D03*
D15*
X11112500Y87788750D03*
D16*
X-4603750Y98583750D03*
X1746250Y101123750D03*
%TD*%
D14*
%TO.C,MX_6.0*%
X-255905000Y57943750D03*
D15*
X-250825000Y57943750D03*
D14*
X-245745000Y57943750D03*
D16*
X-254635000Y60483750D03*
X-248285000Y63023750D03*
D22*
X-252095000Y52863750D03*
D23*
X-249555000Y52863750D03*
%TD*%
D14*
%TO.C,MX_2.7*%
X3651250Y96043750D03*
D15*
X8731250Y96043750D03*
D14*
X13811250Y96043750D03*
D16*
X4921250Y98583750D03*
X11271250Y101123750D03*
%TD*%
D14*
%TO.C,MX_6.0_1*%
X-260667500Y57943750D03*
D15*
X-255587500Y57943750D03*
D14*
X-250507500Y57943750D03*
D16*
X-259397500Y60483750D03*
X-253047500Y63023750D03*
D22*
X-256857500Y52863750D03*
D23*
X-254317500Y52863750D03*
%TD*%
D14*
%TO.C,MX_6.9*%
X98901250Y57943750D03*
D15*
X103981250Y57943750D03*
D14*
X109061250Y57943750D03*
D16*
X100171250Y60483750D03*
X106521250Y63023750D03*
%TD*%
D14*
%TO.C,MX_7.6*%
X-20161250Y57943750D03*
D15*
X-15081250Y57943750D03*
D14*
X-10001250Y57943750D03*
D16*
X-18891250Y60483750D03*
X-12541250Y63023750D03*
%TD*%
D14*
%TO.C,MX_7.10*%
X156051250Y57943750D03*
D15*
X161131250Y57943750D03*
D14*
X166211250Y57943750D03*
D16*
X157321250Y60483750D03*
X163671250Y63023750D03*
%TD*%
D14*
%TO.C,MX_8.0*%
X-260667500Y38893750D03*
D15*
X-255587500Y38893750D03*
D14*
X-250507500Y38893750D03*
D16*
X-259397500Y41433750D03*
X-253047500Y43973750D03*
%TD*%
D14*
%TO.C,MX_9.6*%
X-22542500Y38893750D03*
D15*
X-17462500Y38893750D03*
D14*
X-12382500Y38893750D03*
D16*
X-21272500Y41433750D03*
X-14922500Y43973750D03*
%TD*%
D14*
%TO.C,MX_10.0_1*%
X-258286250Y19843750D03*
D15*
X-253206250Y19843750D03*
D14*
X-248126250Y19843750D03*
D16*
X-257016250Y22383750D03*
X-250666250Y24923750D03*
%TD*%
D14*
%TO.C,MX_11.1_1*%
X-210661250Y19843750D03*
D15*
X-205581250Y19843750D03*
D14*
X-200501250Y19843750D03*
D16*
X-209391250Y22383750D03*
X-203041250Y24923750D03*
%TD*%
D21*
%TO.C,MX_10.3_1*%
X-181768750Y26828750D03*
D15*
X-181768750Y11588750D03*
D14*
X-129698750Y19843750D03*
D15*
X-124618750Y19843750D03*
D14*
X-119538750Y19843750D03*
D21*
X-67468750Y26828750D03*
D15*
X-67468750Y11588750D03*
D16*
X-128428750Y22383750D03*
X-122078750Y24923750D03*
%TD*%
D14*
%TO.C,MX_10.7_1*%
X-1111250Y19843750D03*
D15*
X3968750Y19843750D03*
D14*
X9048750Y19843750D03*
D16*
X158750Y22383750D03*
X6508750Y24923750D03*
%TD*%
D14*
%TO.C,MX_10.6_1*%
X-48736250Y19843750D03*
D15*
X-43656250Y19843750D03*
D14*
X-38576250Y19843750D03*
D16*
X-47466250Y22383750D03*
X-41116250Y24923750D03*
%TD*%
D14*
%TO.C,MX_11.10*%
X156051250Y19843750D03*
D15*
X161131250Y19843750D03*
D14*
X166211250Y19843750D03*
D16*
X157321250Y22383750D03*
X163671250Y24923750D03*
%TD*%
D14*
%TO.C,MX_10.0*%
X-260667490Y19843646D03*
D15*
X-255587490Y19843646D03*
D14*
X-250507490Y19843646D03*
D16*
X-259397490Y22383646D03*
X-253047490Y24923646D03*
%TD*%
D14*
%TO.C,MX_10.1*%
X-236855000Y19843750D03*
D15*
X-231775000Y19843750D03*
D14*
X-226695000Y19843750D03*
D16*
X-235585000Y22383750D03*
X-229235000Y24923750D03*
%TD*%
D14*
%TO.C,MX_11.1*%
X-213042500Y19843750D03*
D15*
X-207962500Y19843750D03*
D14*
X-202882500Y19843750D03*
D16*
X-211772500Y22383750D03*
X-205422500Y24923750D03*
%TD*%
D14*
%TO.C,MX_11.6*%
X-22542500Y19843750D03*
D15*
X-17462500Y19843750D03*
D14*
X-12382500Y19843750D03*
D16*
X-21272500Y22383750D03*
X-14922500Y24923750D03*
%TD*%
D14*
%TO.C,MX_10.7*%
X1270000Y19843750D03*
D15*
X6350000Y19843750D03*
D14*
X11430000Y19843750D03*
D16*
X2540000Y22383750D03*
X8890000Y24923750D03*
%TD*%
D14*
%TO.C,MX_10.6*%
X-46355000Y19843750D03*
D15*
X-41275000Y19843750D03*
D14*
X-36195000Y19843750D03*
D16*
X-45085000Y22383750D03*
X-38735000Y24923750D03*
%TD*%
D21*
%TO.C,MX_10.3*%
X-186524900Y26828750D03*
D15*
X-186524900Y11588750D03*
D14*
X-141605000Y19843750D03*
D15*
X-136525000Y19843750D03*
D14*
X-131445000Y19843750D03*
D21*
X-86525100Y26828750D03*
D15*
X-86525100Y11588750D03*
D16*
X-140335000Y22383750D03*
X-133985000Y24923750D03*
%TD*%
D14*
%TO.C,MX_10.5*%
X-70167500Y19843750D03*
D15*
X-65087500Y19843750D03*
D14*
X-60007500Y19843750D03*
D16*
X-68897500Y22383750D03*
X-62547500Y24923750D03*
%TD*%
D15*
%TO.C,MX_6.7_1*%
X-1905000Y79457549D03*
X-1905000Y55581549D03*
D14*
X1270000Y67519549D03*
D15*
X6350000Y67519549D03*
D14*
X11430000Y67519549D03*
D21*
X13335000Y79457549D03*
X13335000Y55581549D03*
D16*
X2540000Y70059549D03*
X8890000Y72599549D03*
%TD*%
D21*
%TO.C,MX_10.9_1*%
X101600000Y26828750D03*
D15*
X101600000Y11588750D03*
D14*
X108426250Y19843750D03*
D15*
X113506250Y19843750D03*
D14*
X118586250Y19843750D03*
D21*
X125412500Y26828750D03*
D15*
X125412500Y11588750D03*
D16*
X109696250Y22383750D03*
X116046250Y24923750D03*
%TD*%
D14*
%TO.C,MX_10.9*%
X98901250Y19843750D03*
D15*
X103981250Y19843750D03*
D14*
X109061250Y19843750D03*
D16*
X100171250Y22383750D03*
X106521250Y24923750D03*
%TD*%
D14*
%TO.C,MX_9.7*%
X32226250Y38893750D03*
D15*
X37306250Y38893750D03*
D14*
X42386250Y38893750D03*
D16*
X33496250Y41433750D03*
X39846250Y43973750D03*
%TD*%
D24*
%TO.C,J13*%
X114540000Y146720000D03*
%TD*%
D19*
%TO.C,L5*%
X-18590000Y14780000D03*
D20*
X-21130000Y14780000D03*
%TD*%
D24*
%TO.C,J14*%
X119190000Y146720000D03*
%TD*%
D19*
%TO.C,L4*%
X-228140000Y14770000D03*
D20*
X-230680000Y14770000D03*
%TD*%
D24*
%TO.C,J15*%
X123840000Y146720000D03*
%TD*%
D14*
%TO.C,MX_7.7*%
X32226250Y57943750D03*
D15*
X37306250Y57943750D03*
D14*
X42386250Y57943750D03*
D16*
X33496250Y60483750D03*
X39846250Y63023750D03*
%TD*%
D25*
%TO.C,J2*%
X-7470000Y128580000D03*
D26*
X-10010000Y128580000D03*
X-12550000Y128580000D03*
X-15090000Y128580000D03*
X-17630000Y128580000D03*
%TD*%
D14*
%TO.C,MX_9.8*%
X70326250Y38893750D03*
D15*
X75406250Y38893750D03*
D14*
X80486250Y38893750D03*
D16*
X71596250Y41433750D03*
X77946250Y43973750D03*
%TD*%
D14*
%TO.C,MX_6.8*%
X51276250Y57943750D03*
D15*
X56356250Y57943750D03*
D14*
X61436250Y57943750D03*
D16*
X52546250Y60483750D03*
X58896250Y63023750D03*
%TD*%
D24*
%TO.C,J55*%
X109890000Y146720000D03*
%TD*%
D14*
%TO.C,MX_7.8*%
X70326250Y57943750D03*
D15*
X75406250Y57943750D03*
D14*
X80486250Y57943750D03*
D16*
X71596250Y60483750D03*
X77946250Y63023750D03*
%TD*%
D24*
%TO.C,J6*%
X6250000Y111050000D03*
%TD*%
D27*
%TO.C,J4*%
X98830000Y144080036D03*
X98080000Y144080036D03*
X97340000Y144080036D03*
D28*
X97080000Y147980036D03*
D27*
X96590000Y144080036D03*
X95840000Y144080036D03*
X95090000Y144080036D03*
X93290000Y144080036D03*
X92540000Y144080036D03*
D28*
X91300000Y147980036D03*
D27*
X90950000Y144080036D03*
X90240000Y144080036D03*
X89540000Y144080036D03*
D29*
X98510000Y147450036D03*
D30*
X98510000Y151630036D03*
D29*
X89870000Y147450036D03*
D30*
X89870000Y151630036D03*
%TD*%
D24*
%TO.C,J1*%
X-3050000Y111050000D03*
%TD*%
%TO.C,J5*%
X1600000Y111050000D03*
%TD*%
D31*
%TO.C,R107*%
X133469086Y125809360D03*
X131644086Y125809360D03*
%TD*%
%TO.C,R108*%
X159067545Y125809360D03*
X157242545Y125809360D03*
%TD*%
%TO.C,R106*%
X107870627Y125809360D03*
X106045627Y125809360D03*
%TD*%
D32*
%TO.C,D60*%
X-7937500Y14193750D03*
X-7937500Y17493750D03*
%TD*%
%TO.C,D96*%
X13493750Y71343750D03*
X13493750Y74643750D03*
%TD*%
%TO.C,D85*%
X-249237500Y33243750D03*
X-249237500Y36543750D03*
%TD*%
%TO.C,D53*%
X65881250Y90393750D03*
X65881250Y93693750D03*
%TD*%
%TO.C,D103*%
X-34131250Y33243750D03*
X-34131250Y36543750D03*
%TD*%
D33*
%TO.C,C9*%
X-17867500Y109415000D03*
X-17867500Y110375000D03*
%TD*%
D32*
%TO.C,D35*%
X170656250Y71343750D03*
X170656250Y74643750D03*
%TD*%
D33*
%TO.C,C5*%
X-25713750Y103506250D03*
X-25713750Y104466250D03*
%TD*%
D34*
%TO.C,C11*%
X-14388750Y112341250D03*
X-14388750Y111381250D03*
%TD*%
D35*
%TO.C,R4*%
X-17303750Y126819500D03*
X-17303750Y125799500D03*
%TD*%
D32*
%TO.C,D82*%
X132556250Y52293750D03*
X132556250Y55593750D03*
%TD*%
%TO.C,D51*%
X-21431250Y90393750D03*
X-21431250Y93693750D03*
%TD*%
%TO.C,D78*%
X84931250Y14193750D03*
X84931250Y17493750D03*
%TD*%
%TO.C,D8*%
X18256250Y128493750D03*
X18256250Y131793750D03*
%TD*%
%TO.C,D122*%
X-219868750Y14193750D03*
X-219868750Y17493750D03*
%TD*%
%TO.C,D24*%
X-191293750Y128493750D03*
X-191293750Y131793750D03*
%TD*%
D36*
%TO.C,C16*%
X-13435000Y113926250D03*
X-12475000Y113926250D03*
%TD*%
D32*
%TO.C,D104*%
X18256250Y33243750D03*
X18256250Y36543750D03*
%TD*%
%TO.C,D15*%
X-162718750Y71343750D03*
X-162718750Y74643750D03*
%TD*%
%TO.C,D58*%
X113506250Y52293750D03*
X113506250Y55593750D03*
%TD*%
%TO.C,D99*%
X151606250Y71343750D03*
X151606250Y74643750D03*
%TD*%
D36*
%TO.C,C4*%
X-11368750Y110038750D03*
X-10408750Y110038750D03*
%TD*%
D32*
%TO.C,D101*%
X-110331250Y33243750D03*
X-110331250Y36543750D03*
%TD*%
%TO.C,D26*%
X-105568750Y128493750D03*
X-105568750Y131793750D03*
%TD*%
D37*
%TO.C,R3*%
X-14988750Y108536250D03*
X-14988750Y110186250D03*
%TD*%
D32*
%TO.C,D114*%
X-53181250Y33243750D03*
X-53181250Y36543750D03*
%TD*%
%TO.C,D70*%
X-115093750Y90393750D03*
X-115093750Y93693750D03*
%TD*%
%TO.C,D113*%
X-91281250Y33243750D03*
X-91281250Y36543750D03*
%TD*%
%TO.C,D43*%
X-26193750Y52293750D03*
X-26193750Y55593750D03*
%TD*%
D25*
%TO.C,SW1*%
X-19413750Y99913750D03*
D38*
X-21953750Y99913750D03*
%TD*%
D39*
%TO.C,C12*%
X-23083750Y114316250D03*
X-24043750Y114316250D03*
%TD*%
D32*
%TO.C,D76*%
X132556250Y90393750D03*
X132556250Y93693750D03*
%TD*%
%TO.C,D38*%
X-215106250Y52293750D03*
X-215106250Y55593750D03*
%TD*%
%TO.C,D17*%
X-86518750Y71343750D03*
X-86518750Y74643750D03*
%TD*%
%TO.C,D106*%
X113506250Y33243750D03*
X113506250Y36543750D03*
%TD*%
D40*
%TO.C,C1*%
X88510000Y112450000D03*
X90410000Y112450000D03*
%TD*%
D32*
%TO.C,D80*%
X46831250Y52293750D03*
X46831250Y55593750D03*
%TD*%
D41*
%TO.C,U2*%
X-21720000Y114617500D03*
X-21720000Y115017500D03*
X-21720000Y115417500D03*
X-21720000Y115817500D03*
X-21720000Y116217500D03*
X-21720000Y116617500D03*
X-21720000Y117017500D03*
X-21720000Y117417500D03*
X-21720000Y117817500D03*
X-21720000Y118217500D03*
X-21720000Y118617500D03*
X-21720000Y119017500D03*
X-21720000Y119417500D03*
X-21720000Y119817500D03*
D42*
X-20882500Y120655000D03*
X-20482500Y120655000D03*
X-20082500Y120655000D03*
X-19682500Y120655000D03*
X-19282500Y120655000D03*
X-18882500Y120655000D03*
X-18482500Y120655000D03*
X-18082500Y120655000D03*
X-17682500Y120655000D03*
X-17282500Y120655000D03*
X-16882500Y120655000D03*
X-16482500Y120655000D03*
X-16082500Y120655000D03*
X-15682500Y120655000D03*
D41*
X-14845000Y119817500D03*
X-14845000Y119417500D03*
X-14845000Y119017500D03*
X-14845000Y118617500D03*
X-14845000Y118217500D03*
X-14845000Y117817500D03*
X-14845000Y117417500D03*
X-14845000Y117017500D03*
X-14845000Y116617500D03*
X-14845000Y116217500D03*
X-14845000Y115817500D03*
X-14845000Y115417500D03*
X-14845000Y115017500D03*
X-14845000Y114617500D03*
D42*
X-15682500Y113780000D03*
X-16082500Y113780000D03*
X-16482500Y113780000D03*
X-16882500Y113780000D03*
X-17282500Y113780000D03*
X-17682500Y113780000D03*
X-18082500Y113780000D03*
X-18482500Y113780000D03*
X-18882500Y113780000D03*
X-19282500Y113780000D03*
X-19682500Y113780000D03*
X-20082500Y113780000D03*
X-20482500Y113780000D03*
X-20882500Y113780000D03*
D43*
X-18282500Y117217500D03*
%TD*%
D32*
%TO.C,D128*%
X15875000Y14193750D03*
X15875000Y17493750D03*
%TD*%
%TO.C,D66*%
X-43656250Y52293750D03*
X-43656250Y55593750D03*
%TD*%
%TO.C,D118*%
X132556250Y33243750D03*
X132556250Y36543750D03*
%TD*%
%TO.C,D2*%
X-210343550Y128493750D03*
X-210343550Y131793750D03*
%TD*%
%TO.C,D65*%
X-81756250Y52293750D03*
X-81756250Y55593750D03*
%TD*%
D44*
%TO.C,J3*%
X92689954Y130886685D03*
X93689954Y130886685D03*
X94689954Y130886685D03*
X95689954Y130886685D03*
D45*
X91389954Y134761685D03*
X96989954Y134761685D03*
%TD*%
D33*
%TO.C,C18*%
X-11936685Y119392954D03*
X-11936685Y120352954D03*
%TD*%
D32*
%TO.C,D37*%
X-241299986Y52293678D03*
X-241299986Y55593678D03*
%TD*%
%TO.C,D55*%
X151606250Y90393750D03*
X151606250Y93693750D03*
%TD*%
%TO.C,D119*%
X153193750Y33243750D03*
X153193750Y36543750D03*
%TD*%
D46*
%TO.C,R100*%
X86707500Y109500000D03*
X88532500Y109500000D03*
%TD*%
D32*
%TO.C,D63*%
X-157956250Y52293750D03*
X-157956250Y55593750D03*
%TD*%
%TO.C,D6*%
X-38893750Y128493750D03*
X-38893750Y131793750D03*
%TD*%
%TO.C,D44*%
X4762500Y52293750D03*
X4762500Y55593750D03*
%TD*%
%TO.C,D88*%
X-148431250Y33243750D03*
X-148431250Y36543750D03*
%TD*%
%TO.C,D98*%
X113506250Y71343750D03*
X113506250Y74643750D03*
%TD*%
%TO.C,D93*%
X-105568750Y71343750D03*
X-105568750Y74643750D03*
%TD*%
%TO.C,D115*%
X-793750Y33243750D03*
X-793750Y36543750D03*
%TD*%
%TO.C,D21*%
X84931250Y71343750D03*
X84931250Y74643750D03*
%TD*%
%TO.C,D74*%
X46831250Y90393750D03*
X46831250Y93693750D03*
%TD*%
D46*
%TO.C,R5*%
X-230172500Y11740000D03*
X-228347500Y11740000D03*
%TD*%
D32*
%TO.C,D102*%
X-72231250Y33243750D03*
X-72231250Y36543750D03*
%TD*%
%TO.C,D39*%
X-177006250Y52293750D03*
X-177006250Y55593750D03*
%TD*%
%TO.C,D50*%
X-57942910Y90393550D03*
X-57942910Y93693550D03*
%TD*%
%TO.C,D94*%
X-67468750Y71343750D03*
X-67468750Y74643750D03*
%TD*%
%TO.C,D25*%
X-153193310Y128493750D03*
X-153193310Y131793750D03*
%TD*%
%TO.C,D59*%
X150812500Y52293750D03*
X150812500Y55593750D03*
%TD*%
%TO.C,D71*%
X-76993750Y90393550D03*
X-76993750Y93693550D03*
%TD*%
D46*
%TO.C,R6*%
X-20532500Y11620000D03*
X-18707500Y11620000D03*
%TD*%
D32*
%TO.C,D87*%
X-186531250Y33243750D03*
X-186531250Y36543750D03*
%TD*%
%TO.C,D105*%
X65881250Y33243750D03*
X65881250Y36543750D03*
%TD*%
%TO.C,D61*%
X46831250Y14193750D03*
X46831250Y17493750D03*
%TD*%
%TO.C,D40*%
X-138906250Y52293750D03*
X-138906250Y55593750D03*
%TD*%
%TO.C,D84*%
X132556250Y14193750D03*
X132556250Y17493750D03*
%TD*%
%TO.C,D121*%
X-243681250Y14193750D03*
X-243681250Y17493750D03*
%TD*%
D47*
%TO.C,BUZ1*%
X75160000Y115640000D03*
X88360000Y115640000D03*
%TD*%
D32*
%TO.C,D81*%
X84931250Y52293750D03*
X84931250Y55593750D03*
%TD*%
%TO.C,D30*%
X46832530Y128493750D03*
X46832530Y131793750D03*
%TD*%
D48*
%TO.C,R1*%
X-11020000Y126250000D03*
X-12040000Y126250000D03*
%TD*%
D32*
%TO.C,D19*%
X-10318750Y71343750D03*
X-10318750Y74643750D03*
%TD*%
%TO.C,D47*%
X-172243390Y90393550D03*
X-172243390Y93693550D03*
%TD*%
%TO.C,D52*%
X18256250Y90393750D03*
X18256250Y93693750D03*
%TD*%
%TO.C,D9*%
X65882610Y128493710D03*
X65882610Y131793710D03*
%TD*%
D49*
%TO.C,U4*%
X-23968750Y110161250D03*
X-22698750Y110161250D03*
X-21428750Y110161250D03*
X-20158750Y110161250D03*
X-20158750Y102961250D03*
X-21428750Y102961250D03*
X-22698750Y102961250D03*
X-23968750Y102961250D03*
%TD*%
D32*
%TO.C,D72*%
X-38892830Y90393550D03*
X-38892830Y93693550D03*
%TD*%
%TO.C,D129*%
X65881250Y14193750D03*
X65881250Y17493750D03*
%TD*%
%TO.C,D83*%
X165100000Y52293750D03*
X165100000Y55593750D03*
%TD*%
D33*
%TO.C,C15*%
X-17303750Y123929500D03*
X-17303750Y124889500D03*
%TD*%
D32*
%TO.C,D29*%
X-793750Y128493750D03*
X-793750Y131793750D03*
%TD*%
%TO.C,D95*%
X-29368750Y71343750D03*
X-29368750Y74643750D03*
%TD*%
D34*
%TO.C,C13*%
X-17763750Y112291250D03*
X-17763750Y111331250D03*
%TD*%
D32*
%TO.C,D116*%
X46831250Y33243750D03*
X46831250Y36543750D03*
%TD*%
D50*
%TO.C,U5*%
X-10963750Y111313750D03*
X-10963750Y113213750D03*
X-9088750Y112263750D03*
%TD*%
D32*
%TO.C,D32*%
X115093750Y128493750D03*
X115093750Y131793750D03*
%TD*%
%TO.C,D130*%
X107156250Y14193750D03*
X107156250Y17493750D03*
%TD*%
%TO.C,D112*%
X-129381250Y33243750D03*
X-129381250Y36543750D03*
%TD*%
D34*
%TO.C,C7*%
X-15388750Y112341250D03*
X-15388750Y111381250D03*
%TD*%
D32*
%TO.C,D20*%
X46831250Y71343750D03*
X46831250Y74643750D03*
%TD*%
%TO.C,D31*%
X84931250Y128493750D03*
X84931250Y131793750D03*
%TD*%
%TO.C,D4*%
X-124618750Y128493750D03*
X-124618750Y131793750D03*
%TD*%
%TO.C,D54*%
X113506562Y90393710D03*
X113506562Y93693710D03*
%TD*%
%TO.C,D68*%
X-191293470Y90393550D03*
X-191293470Y93693550D03*
%TD*%
D51*
%TO.C,U3*%
X-17462500Y105036250D03*
X-17462500Y105986250D03*
X-17537500Y106936250D03*
X-15112500Y106936250D03*
X-15112500Y105986250D03*
X-15112500Y105036250D03*
%TD*%
D32*
%TO.C,D22*%
X132556250Y71343750D03*
X132556250Y74643750D03*
%TD*%
%TO.C,D41*%
X-100806250Y52293750D03*
X-100806250Y55593750D03*
%TD*%
%TO.C,D11*%
X151607970Y128493750D03*
X151607970Y131793750D03*
%TD*%
%TO.C,D46*%
X-210343550Y90393550D03*
X-210343550Y93693550D03*
%TD*%
%TO.C,D7*%
X-25220000Y128493750D03*
X-25220000Y131793750D03*
%TD*%
%TO.C,D1*%
X-248443742Y128493742D03*
X-248443742Y131793742D03*
%TD*%
D52*
%TO.C,R7*%
X-24518750Y112396250D03*
X-23498750Y112396250D03*
%TD*%
D32*
%TO.C,D91*%
X-181768750Y71343750D03*
X-181768750Y74643750D03*
%TD*%
D39*
%TO.C,C14*%
X-24020000Y118850000D03*
X-24980000Y118850000D03*
%TD*%
D52*
%TO.C,R22*%
X96383704Y145487971D03*
X97403704Y145487971D03*
%TD*%
D32*
%TO.C,D79*%
X-23018750Y52293750D03*
X-23018750Y55593750D03*
%TD*%
%TO.C,D18*%
X-48418750Y71343750D03*
X-48418750Y74643750D03*
%TD*%
%TO.C,D13*%
X-196056250Y14193750D03*
X-196056250Y17493750D03*
%TD*%
%TO.C,D131*%
X148431250Y14193750D03*
X148431250Y17493750D03*
%TD*%
%TO.C,D14*%
X-200818750Y71343750D03*
X-200818750Y74643750D03*
%TD*%
%TO.C,D42*%
X-62706250Y52293750D03*
X-62706250Y55593750D03*
%TD*%
%TO.C,D73*%
X-18256250Y90393750D03*
X-18256250Y93693750D03*
%TD*%
%TO.C,D49*%
X-96043070Y90393550D03*
X-96043070Y93693550D03*
%TD*%
D53*
%TO.C,F2*%
X91090000Y141380000D03*
X91090000Y138580000D03*
%TD*%
D32*
%TO.C,D57*%
X65881250Y52293750D03*
X65881250Y55593750D03*
%TD*%
%TO.C,D90*%
X-219868750Y71343750D03*
X-219868750Y74643750D03*
%TD*%
%TO.C,D75*%
X84931250Y90393750D03*
X84931250Y93693750D03*
%TD*%
D54*
%TO.C,F1*%
X-12988750Y106763750D03*
X-12988750Y109563750D03*
%TD*%
D32*
%TO.C,D64*%
X-119856250Y52293750D03*
X-119856250Y55593750D03*
%TD*%
%TO.C,D100*%
X150812500Y14193750D03*
X150812500Y17493750D03*
%TD*%
%TO.C,D45*%
X-248443710Y90393750D03*
X-248443710Y93693750D03*
%TD*%
%TO.C,D117*%
X84931250Y33243750D03*
X84931250Y36543750D03*
%TD*%
%TO.C,D16*%
X-124618750Y71343750D03*
X-124618750Y74643750D03*
%TD*%
%TO.C,D62*%
X-196056250Y52293750D03*
X-196056250Y55593750D03*
%TD*%
%TO.C,D97*%
X65881250Y71343750D03*
X65881250Y74643750D03*
%TD*%
D48*
%TO.C,R8*%
X91524954Y145490036D03*
X90504954Y145490036D03*
%TD*%
D32*
%TO.C,D5*%
X-86518750Y128493750D03*
X-86518750Y131793750D03*
%TD*%
%TO.C,D111*%
X-167481250Y33243750D03*
X-167481250Y36543750D03*
%TD*%
D39*
%TO.C,C10*%
X-8195000Y114513750D03*
X-9155000Y114513750D03*
%TD*%
D32*
%TO.C,D92*%
X-143668750Y71343750D03*
X-143668750Y74643750D03*
%TD*%
%TO.C,D86*%
X-224631250Y33243750D03*
X-224631250Y36543750D03*
%TD*%
%TO.C,D3*%
X-172243390Y128493750D03*
X-172243390Y131793750D03*
%TD*%
D33*
%TO.C,C3*%
X-22153750Y125829500D03*
X-22153750Y126789500D03*
%TD*%
D32*
%TO.C,D126*%
X-55562500Y14193750D03*
X-55562500Y17493750D03*
%TD*%
D37*
%TO.C,R2*%
X-16538750Y108561250D03*
X-16538750Y110211250D03*
%TD*%
D32*
%TO.C,D124*%
X-115093750Y14193750D03*
X-115093750Y17493750D03*
%TD*%
%TO.C,D77*%
X170656250Y90393750D03*
X170656250Y93693750D03*
%TD*%
%TO.C,D89*%
X-243681250Y71343750D03*
X-243681250Y74643750D03*
%TD*%
%TO.C,D69*%
X-153193310Y90393550D03*
X-153193310Y93693550D03*
%TD*%
%TO.C,D127*%
X-31750000Y14193750D03*
X-31750000Y17493750D03*
%TD*%
D33*
%TO.C,C8*%
X-16168750Y124019500D03*
X-16168750Y124979500D03*
%TD*%
D32*
%TO.C,D110*%
X-205581250Y33243750D03*
X-205581250Y36543750D03*
%TD*%
D39*
%TO.C,C6*%
X-10095000Y114513750D03*
X-11055000Y114513750D03*
%TD*%
D34*
%TO.C,C2*%
X-22143750Y124889500D03*
X-22143750Y123929500D03*
%TD*%
D32*
%TO.C,D48*%
X-134143230Y90393550D03*
X-134143230Y93693550D03*
%TD*%
D36*
%TO.C,C17*%
X-13435000Y112926250D03*
X-12475000Y112926250D03*
%TD*%
D32*
%TO.C,D10*%
X111918750Y128493750D03*
X111918750Y131793750D03*
%TD*%
D55*
%TO.C,Y1*%
X-18878750Y126419500D03*
X-18878750Y124219500D03*
X-20578750Y124219500D03*
X-20578750Y126419500D03*
%TD*%
D32*
%TO.C,D27*%
X-67468750Y128493750D03*
X-67468750Y131793750D03*
%TD*%
%TO.C,D67*%
X-229393750Y90393750D03*
X-229393750Y93693750D03*
%TD*%
%TO.C,D107*%
X150018750Y33243750D03*
X150018750Y36543750D03*
%TD*%
M02*
