M48
; DRILL file {KiCad 9.99.0-2510-g416e54f0d5} date 2026-02-07T10:38:21-0500
; FORMAT={-:-/ absolute / inch / decimal}
; #@! TF.CreationDate,2026-02-07T10:38:21-05:00
; #@! TF.GenerationSoftware,Kicad,Pcbnew,9.99.0-2510-g416e54f0d5
; #@! TF.FileFunction,Plated,1,2,PTH
FMAT,2
INCH
; #@! TA.AperFunction,Plated,PTH,ViaDrill
T1C0.0118
; #@! TA.AperFunction,Plated,PTH,ComponentDrill
T2C0.0138
; #@! TA.AperFunction,Plated,PTH,ViaDrill
T3C0.0157
; #@! TA.AperFunction,Plated,PTH,ComponentDrill
T4C0.0236
; #@! TA.AperFunction,Plated,PTH,ComponentDrill
T5C0.0354
; #@! TA.AperFunction,Plated,PTH,ComponentDrill
T6C0.0390
; #@! TA.AperFunction,Plated,PTH,ComponentDrill
T7C0.0394
; #@! TA.AperFunction,Plated,PTH,ComponentDrill
T8C0.0409
; #@! TA.AperFunction,Plated,PTH,ComponentDrill
T9C0.0579
; #@! TA.AperFunction,Plated,PTH,ComponentDrill
T10C0.0787
%
G90
G05
T1
X3.639Y5.7263
X3.7576Y5.7255
T2
X-0.77Y4.6651
X-0.77Y4.6149
X-0.77Y4.5647
X-0.7198Y4.6651
X-0.7198Y4.6149
X-0.7198Y4.5647
X-0.6696Y4.6651
X-0.6696Y4.6149
X-0.6696Y4.5647
T3
X-10.3062Y4.8374
X-8.8236Y4.8587
X-7.3062Y4.8878
X-5.4312Y4.9169
X-3.9312Y4.948
X-2.4375Y4.9754
X-1.3062Y4.999
X-1.0017Y4.2676
X-0.9962Y4.2057
X-0.9953Y5.1441
X-0.9953Y5.0931
X-0.9843Y4.7085
X-0.982Y4.4589
X-0.9228Y4.1216
X-0.8814Y4.4598
X-0.8062Y4.7085
X-0.7897Y4.2656
X-0.7885Y4.5242
X-0.7125Y4.2648
X-0.7122Y4.7002
X-0.6999Y4.5132
X-0.6731Y4.3833
X-0.6423Y4.962
X-0.6179Y4.5084
X-0.5143Y4.405
X-0.4668Y4.7773
X-0.4106Y4.6634
X0.4077Y4.4644
X0.4085Y4.497
X0.4087Y4.5285
X0.4092Y4.56
X0.4096Y4.5915
X0.7188Y1.375
X0.7488Y1.25
X0.772Y0.6316
X0.7961Y0.5
X0.8232Y0.426
X1.4375Y4.9513
X1.9713Y4.9295
X2.0453Y4.2024
X3.5878Y5.5114
X3.598Y4.2033
X3.6096Y5.153
X3.6294Y4.201
X3.6609Y4.2018
X3.6732Y5.5839
X3.6892Y5.0982
X3.6924Y4.4272
X3.6924Y4.202
X3.7285Y5.0985
X3.7394Y5.5658
X3.7466Y5.2258
X3.7516Y4.2453
X3.7679Y5.0969
X3.8125Y4.904
X3.8161Y5.6396
X3.8438Y4.8804
X3.9776Y5.1478
T5
X4.1676Y5.1172
X4.2676Y5.1172
X5.1755Y5.1172
X5.2755Y5.1172
X6.1833Y5.1172
X6.2833Y5.1172
T6
X-10.1125Y2.0812
X-10.0125Y2.0812
X-9.925Y2.0812
X-9.825Y2.0812
X-9.0819Y0.5815
X-8.9819Y0.5815
X-0.8319Y0.5819
X-0.7319Y0.5819
X2.1688Y5.0812
X2.2688Y5.0812
X4.0438Y3.5812
X4.1438Y3.5812
T7
X-0.8643Y3.9336
X-0.7643Y3.9336
X-0.6941Y5.0622
X-0.5941Y5.0622
X-0.4941Y5.0622
X-0.3941Y5.0622
X-0.2941Y5.0622
T8
X-10.1125Y2.0812
X-10.0125Y2.0812
X-9.925Y2.0812
X-9.825Y2.0812
X-9.0812Y0.5812
X-8.9812Y0.5812
X-0.8312Y0.5812
X-0.7312Y0.5812
X2.1688Y5.0812
X2.2688Y5.0812
X4.0438Y3.5812
X4.1437Y3.5812
T9
X-10.3062Y5.3812
X-10.3062Y3.8813
X-10.2125Y2.3813
X-10.2125Y1.6312
X-10.2125Y0.8812
X-10.1188Y3.1313
X-10.1188Y0.8812
X-10.0562Y5.4812
X-10.0562Y3.9812
X-10.025Y2.3813
X-9.9625Y2.4812
X-9.9625Y1.7312
X-9.9625Y0.9812
X-9.8688Y3.2312
X-9.8688Y0.9812
X-9.8375Y1.6312
X-9.775Y2.4812
X-9.5875Y1.7312
X-9.5563Y3.8813
X-9.3688Y1.6312
X-9.3063Y3.9812
X-9.275Y0.8812
X-9.1813Y3.1313
X-9.1813Y0.8812
X-9.1188Y1.7312
X-9.025Y0.9812
X-8.9938Y2.3813
X-8.9313Y3.2312
X-8.9313Y0.9812
X-8.8062Y5.3812
X-8.8062Y3.8812
X-8.7438Y2.4812
X-8.6188Y1.6312
X-8.5562Y5.4813
X-8.5562Y3.9812
X-8.4313Y3.1313
X-8.3688Y1.7312
X-8.3375Y0.8812
X-8.2438Y2.3813
X-8.2438Y0.8812
X-8.1813Y3.2312
X-8.0875Y0.9812
X-8.0563Y5.3812
X-8.0562Y3.8812
X-7.9937Y2.4812
X-7.9937Y0.9812
X-7.8687Y1.6312
X-7.8062Y5.4813
X-7.8062Y3.9812
X-7.6812Y3.1313
X-7.6187Y1.7312
X-7.4937Y2.3813
X-7.4312Y3.2312
X-7.3062Y5.3812
X-7.3062Y3.8812
X-7.2437Y2.4812
X-7.1187Y1.6312
X-7.0562Y5.4813
X-7.0562Y3.9812
X-6.9312Y3.1313
X-6.8687Y1.7312
X-6.7437Y2.3813
X-6.6812Y3.2312
X-6.5562Y5.3812
X-6.5562Y3.8812
X-6.4937Y2.4812
X-6.3687Y1.6312
X-6.3062Y5.4813
X-6.3062Y3.9812
X-6.1812Y3.1313
X-6.1187Y1.7312
X-5.9937Y2.3813
X-5.9312Y3.2312
X-5.8062Y3.8812
X-5.7437Y2.4812
X-5.6187Y1.6312
X-5.5562Y3.9812
X-5.525Y0.8812
X-5.4312Y5.3812
X-5.4312Y3.1313
X-5.3687Y1.7312
X-5.275Y0.9812
X-5.2437Y2.3813
X-5.1812Y5.4813
X-5.1812Y3.2312
X-5.0562Y3.8813
X-5.0562Y0.8812
X-4.9937Y2.4812
X-4.8687Y1.6312
X-4.8062Y3.9812
X-4.8062Y0.9812
X-4.6812Y5.3812
X-4.6812Y3.1313
X-4.6187Y1.7312
X-4.4937Y2.3813
X-4.4312Y5.4813
X-4.4312Y3.2312
X-4.3062Y3.8812
X-4.2437Y2.4812
X-4.1187Y1.6312
X-4.0562Y3.9812
X-3.9312Y5.3812
X-3.9312Y3.1313
X-3.8687Y1.7312
X-3.7437Y2.3813
X-3.6812Y5.4813
X-3.6812Y3.2312
X-3.5562Y3.8812
X-3.4937Y2.4812
X-3.3687Y1.6312
X-3.3062Y3.9812
X-3.1812Y5.3812
X-3.1812Y3.1313
X-3.1187Y1.7312
X-2.9937Y2.3813
X-2.9312Y5.4813
X-2.9312Y3.2312
X-2.8062Y3.8812
X-2.7437Y2.4812
X-2.7125Y0.8812
X-2.6187Y1.6312
X-2.5562Y3.9812
X-2.4625Y0.9812
X-2.4312Y3.1313
X-2.3687Y1.7312
X-2.2437Y2.3813
X-2.1812Y3.2312
X-2.0562Y5.3812
X-2.0562Y3.8812
X-1.9937Y2.4812
X-1.8687Y1.6312
X-1.8687Y0.8812
X-1.8062Y5.4813
X-1.8062Y3.9812
X-1.775Y0.8812
X-1.6812Y3.1313
X-1.6187Y1.7312
X-1.6187Y0.9812
X-1.525Y0.9812
X-1.4937Y2.3813
X-1.4312Y3.2312
X-1.3062Y5.3812
X-1.3062Y3.8813
X-1.2437Y2.4812
X-1.0562Y5.4813
X-1.0562Y3.9812
X-0.9313Y3.1313
X-0.9313Y0.8812
X-0.8375Y1.6312
X-0.8375Y0.8812
X-0.7438Y2.3813
X-0.6813Y3.2312
X-0.6813Y0.9812
X-0.5875Y1.7312
X-0.5875Y0.9812
X-0.5563Y5.3812
X-0.5562Y3.8812
X-0.4937Y2.4812
X-0.4625Y1.6312
X-0.3062Y5.4813
X-0.3062Y3.9812
X-0.275Y2.3813
X-0.2125Y1.7312
X-0.1812Y3.8813
X-0.025Y2.4812
X0.0062Y3.1313
X0.0062Y0.8812
X0.0687Y3.9812
X0.1Y2.7582
X0.1Y0.8812
X0.1938Y5.3812
X0.1938Y3.8813
X0.1938Y1.6312
X0.2562Y3.2312
X0.2562Y0.9812
X0.35Y2.8582
X0.35Y0.9812
X0.4437Y5.4813
X0.4437Y3.9812
X0.4437Y1.7312
X1.3187Y3.8813
X1.3187Y3.1313
X1.3187Y2.3813
X1.3187Y1.6312
X1.3187Y0.8812
X1.3188Y5.3812
X1.5687Y3.9812
X1.5687Y3.2312
X1.5687Y2.4812
X1.5687Y1.7312
X1.5687Y0.9812
X1.5688Y5.4813
X2.0688Y3.8813
X2.0688Y3.1313
X2.0688Y2.3813
X2.0688Y1.6312
X2.0688Y0.8812
X2.0688Y5.3812
X2.3188Y3.9812
X2.3188Y3.2312
X2.3188Y2.4812
X2.3188Y1.7312
X2.3188Y0.9812
X2.3188Y5.4812
X2.8188Y5.3812
X2.8188Y3.8813
X2.8188Y3.1313
X2.8188Y2.3813
X2.8188Y1.6312
X2.8188Y0.8812
X3.0688Y5.4813
X3.0688Y3.9812
X3.0688Y3.2312
X3.0688Y2.4812
X3.0688Y1.7312
X3.0688Y0.9812
X3.9438Y5.3812
X3.9438Y3.8813
X3.9438Y3.1313
X3.9438Y2.3813
X3.9438Y1.6312
X3.9438Y0.8812
X4.1937Y5.4813
X4.1937Y3.9812
X4.1937Y3.2312
X4.1937Y2.4812
X4.1937Y1.7312
X4.1937Y0.9812
X4.3187Y0.8812
X4.5687Y0.9812
X4.6937Y3.8813
X4.6937Y3.1313
X4.6937Y2.3813
X4.6937Y1.6312
X4.6937Y0.8812
X4.6938Y5.3812
X4.9437Y3.9812
X4.9437Y3.2312
X4.9437Y2.4812
X4.9437Y1.7312
X4.9437Y0.9812
X4.9438Y5.4812
X5.4437Y3.8813
X5.4437Y3.1313
X5.4437Y2.3813
X5.4437Y1.6312
X5.4437Y0.8812
X5.4438Y5.3812
X5.6937Y3.9812
X5.6937Y3.2312
X5.6937Y2.4812
X5.6937Y1.7312
X5.6937Y0.9812
X5.6938Y5.4813
X6.1937Y3.8813
X6.1937Y3.1313
X6.1937Y2.7563
X6.1937Y2.3813
X6.1937Y1.6312
X6.1937Y1.2562
X6.1937Y0.8812
X6.4437Y3.9812
X6.4437Y3.2312
X6.4437Y2.8562
X6.4437Y2.4812
X6.4437Y1.7312
X6.4437Y1.3562
X6.4437Y0.9812
T10
X-0.1201Y4.372
X0.063Y4.372
X0.2461Y4.372
X4.3264Y5.7764
X4.5094Y5.7764
X4.6925Y5.7764
X4.8756Y5.7764
T4
G00X3.5382Y5.9579
M15
G01X3.5382Y5.9815
M16
G05
G00X3.5382Y5.7835
M15
G01X3.5382Y5.8268
M16
G05
G00X3.8783Y5.9579
M15
G01X3.8783Y5.9815
M16
G05
G00X3.8783Y5.7835
M15
G01X3.8783Y5.8268
M16
G05
M30
