M48
; DRILL file {KiCad 9.99.0-2510-g416e54f0d5} date 2026-02-07T10:38:21-0500
; FORMAT={-:-/ absolute / inch / decimal}
; #@! TF.CreationDate,2026-02-07T10:38:21-05:00
; #@! TF.GenerationSoftware,Kicad,Pcbnew,9.99.0-2510-g416e54f0d5
; #@! TF.FileFunction,NonPlated,1,2,NPTH
FMAT,2
INCH
; #@! TA.AperFunction,NonPlated,NPTH,ComponentDrill
T1C0.0197
; #@! TA.AperFunction,NonPlated,NPTH,ComponentDrill
T2C0.0256
; #@! TA.AperFunction,NonPlated,NPTH,ComponentDrill
T3C0.0689
; #@! TA.AperFunction,NonPlated,NPTH,ComponentDrill
T4C0.0787
; #@! TA.AperFunction,NonPlated,NPTH,ComponentDrill
T5C0.1181
; #@! TA.AperFunction,NonPlated,NPTH,ComponentDrill
T6C0.1200
; #@! TA.AperFunction,NonPlated,NPTH,ComponentDrill
T7C0.1417
; #@! TA.AperFunction,NonPlated,NPTH,ComponentDrill
T8C0.1570
; #@! TA.AperFunction,NonPlated,NPTH,ComponentDrill
T9C0.1575
; #@! TA.AperFunction,NonPlated,NPTH,ComponentDrill
T10C0.2441
; #@! TA.AperFunction,NonPlated,NPTH,ComponentDrill
T11C0.2559
; #@! TA.AperFunction,NonPlated,NPTH,ComponentDrill
T12C0.2756
; #@! TA.AperFunction,NonPlated,NPTH,ComponentDrill
T13C0.5118
%
G90
G05
T1
X3.5252Y5.6724
X3.5528Y5.6724
X3.5807Y5.6724
X3.6433Y5.6724
X3.6728Y5.6724
X3.7437Y5.6724
X3.7732Y5.6724
X3.8028Y5.6724
X3.8323Y5.6724
X3.8614Y5.6724
X3.8909Y5.6724
T2
X3.5945Y5.826
X3.822Y5.826
T3
X-10.3562Y5.2812
X-10.3562Y3.7812
X-10.2625Y2.2812
X-10.2625Y1.5312
X-10.2625Y0.7812
X-10.1687Y3.0312
X-10.1687Y0.7812
X-10.075Y2.2812
X-9.9562Y5.2812
X-9.9562Y3.7812
X-9.8875Y1.5312
X-9.8625Y2.2812
X-9.8625Y1.5312
X-9.8625Y0.7812
X-9.7687Y3.0312
X-9.7687Y0.7812
X-9.675Y2.2812
X-9.6062Y3.7812
X-9.4875Y1.5312
X-9.4187Y1.5312
X-9.325Y0.7812
X-9.2312Y3.0312
X-9.2312Y0.7812
X-9.2062Y3.7812
X-9.0437Y2.2812
X-9.0187Y1.5312
X-8.925Y0.7812
X-8.8562Y5.2812
X-8.8562Y3.7812
X-8.8312Y3.0312
X-8.8312Y0.7812
X-8.6687Y1.5312
X-8.6437Y2.2812
X-8.4812Y3.0312
X-8.4562Y5.2812
X-8.4562Y3.7812
X-8.3875Y0.7812
X-8.2937Y2.2812
X-8.2937Y0.7812
X-8.2687Y1.5312
X-8.1062Y5.2812
X-8.1062Y3.7812
X-8.0812Y3.0312
X-7.9875Y0.7812
X-7.9188Y1.5312
X-7.8937Y2.2812
X-7.8937Y0.7812
X-7.7313Y3.0312
X-7.7062Y5.2812
X-7.7062Y3.7812
X-7.5438Y2.2812
X-7.5187Y1.5312
X-7.3562Y5.2812
X-7.3562Y3.7812
X-7.3312Y3.0312
X-7.1688Y1.5312
X-7.1437Y2.2812
X-6.9813Y3.0312
X-6.9562Y5.2812
X-6.9562Y3.7812
X-6.7938Y2.2812
X-6.7687Y1.5312
X-6.6062Y5.2812
X-6.6062Y3.7812
X-6.5812Y3.0312
X-6.4188Y1.5312
X-6.3937Y2.2812
X-6.2313Y3.0312
X-6.2062Y5.2812
X-6.2062Y3.7812
X-6.0438Y2.2812
X-6.0187Y1.5312
X-5.8562Y3.7812
X-5.8312Y3.0312
X-5.6688Y1.5312
X-5.6437Y2.2812
X-5.575Y0.7812
X-5.4813Y5.2812
X-5.4813Y3.0312
X-5.4562Y3.7812
X-5.2938Y2.2812
X-5.2687Y1.5312
X-5.175Y0.7812
X-5.1063Y3.7812
X-5.1063Y0.7812
X-5.0812Y5.2812
X-5.0812Y3.0312
X-4.9188Y1.5312
X-4.8937Y2.2812
X-4.7313Y5.2812
X-4.7313Y3.0312
X-4.7062Y3.7812
X-4.7062Y0.7812
X-4.5438Y2.2812
X-4.5187Y1.5312
X-4.3562Y3.7812
X-4.3312Y5.2812
X-4.3312Y3.0312
X-4.1688Y1.5312
X-4.1437Y2.2812
X-3.9812Y5.2812
X-3.9812Y3.0312
X-3.9562Y3.7812
X-3.7937Y2.2812
X-3.7687Y1.5312
X-3.6062Y3.7812
X-3.5812Y5.2812
X-3.5812Y3.0312
X-3.4187Y1.5312
X-3.3937Y2.2812
X-3.2312Y5.2812
X-3.2312Y3.0312
X-3.2062Y3.7812
X-3.0437Y2.2812
X-3.0187Y1.5312
X-2.8562Y3.7812
X-2.8312Y5.2812
X-2.8312Y3.0312
X-2.7625Y0.7812
X-2.6687Y1.5312
X-2.6437Y2.2812
X-2.4812Y3.0312
X-2.4562Y3.7812
X-2.3625Y0.7812
X-2.2937Y2.2812
X-2.2687Y1.5312
X-2.1062Y5.2812
X-2.1062Y3.7812
X-2.0812Y3.0312
X-1.9187Y1.5312
X-1.9187Y0.7812
X-1.8938Y2.2812
X-1.825Y0.7812
X-1.7312Y3.0312
X-1.7063Y5.2812
X-1.7062Y3.7812
X-1.5437Y2.2812
X-1.5188Y1.5312
X-1.5188Y0.7812
X-1.425Y0.7812
X-1.3562Y5.2812
X-1.3562Y3.7812
X-1.3313Y3.0312
X-1.1438Y2.2812
X-0.9812Y3.0312
X-0.9812Y0.7812
X-0.9562Y5.2812
X-0.9562Y3.7812
X-0.8875Y1.5312
X-0.8875Y0.7812
X-0.7937Y2.2812
X-0.6062Y5.2812
X-0.6062Y3.7812
X-0.5812Y3.0312
X-0.5812Y0.7812
X-0.5125Y1.5312
X-0.4875Y1.5312
X-0.4875Y0.7812
X-0.3937Y2.2812
X-0.325Y2.2812
X-0.2312Y3.7812
X-0.2062Y5.2812
X-0.2062Y3.7812
X-0.1125Y1.5312
X-0.0437Y3.0312
X-0.0437Y0.7812
X0.05Y2.6582
X0.05Y0.7812
X0.075Y2.2812
X0.1437Y5.2812
X0.1437Y3.7812
X0.1437Y1.5312
X0.1687Y3.7812
X0.3563Y3.0312
X0.3563Y0.7812
X0.45Y2.6582
X0.45Y0.7812
X0.5437Y5.2812
X0.5437Y3.7812
X0.5437Y1.5312
X1.2688Y3.7812
X1.2688Y3.0312
X1.2688Y2.2812
X1.2688Y1.5312
X1.2688Y0.7812
X1.2688Y5.2812
X1.6687Y3.7812
X1.6687Y3.0312
X1.6687Y2.2812
X1.6687Y1.5312
X1.6687Y0.7812
X1.6688Y5.2812
X2.0187Y3.7812
X2.0187Y3.0312
X2.0187Y2.2812
X2.0187Y1.5312
X2.0187Y0.7812
X2.0188Y5.2812
X2.4187Y3.7812
X2.4187Y3.0312
X2.4187Y2.2812
X2.4187Y1.5312
X2.4187Y0.7812
X2.4188Y5.2812
X2.7687Y5.2812
X2.7687Y3.7812
X2.7687Y3.0312
X2.7687Y2.2812
X2.7687Y1.5312
X2.7687Y0.7812
X3.1687Y5.2812
X3.1687Y3.7812
X3.1687Y3.0312
X3.1687Y2.2812
X3.1687Y1.5312
X3.1687Y0.7812
X3.8937Y5.2812
X3.8937Y3.7812
X3.8937Y3.0312
X3.8937Y2.2812
X3.8937Y1.5312
X3.8937Y0.7812
X4.2687Y0.7812
X4.2938Y5.2812
X4.2938Y3.7812
X4.2938Y3.0312
X4.2938Y2.2812
X4.2938Y1.5312
X4.2938Y0.7812
X4.6437Y3.7812
X4.6437Y3.0312
X4.6437Y2.2812
X4.6437Y1.5312
X4.6437Y0.7812
X4.6438Y5.2812
X4.6688Y0.7812
X5.0438Y3.7812
X5.0438Y3.0312
X5.0438Y2.2812
X5.0438Y1.5312
X5.0438Y0.7812
X5.0438Y5.2812
X5.3937Y3.7812
X5.3937Y3.0312
X5.3937Y2.2812
X5.3937Y1.5312
X5.3937Y0.7812
X5.3938Y5.2812
X5.7938Y3.7812
X5.7938Y3.0312
X5.7938Y2.2812
X5.7938Y1.5312
X5.7938Y0.7812
X5.7938Y5.2812
X6.1437Y3.7812
X6.1437Y3.0312
X6.1437Y2.6562
X6.1437Y2.2812
X6.1437Y1.5312
X6.1437Y1.1562
X6.1437Y0.7812
X6.5438Y3.7812
X6.5438Y3.0312
X6.5438Y2.6562
X6.5438Y2.2812
X6.5438Y1.5312
X6.5438Y1.1562
X6.5438Y0.7812
T5
X5.9289Y5.6329
X6.1516Y5.4101
T6
X-10.1562Y1.8062
X-9.2188Y1.8062
X-7.3435Y1.0562
X-7.1562Y1.0562
X-3.4065Y1.0562
X-2.6562Y1.0562
X-0.7812Y1.8062
X-0.5938Y2.5562
X-0.5Y4.0562
X0.1562Y1.8062
X0.3438Y2.5562
X0.4375Y4.0562
X0.525Y3.1282
X0.525Y2.1882
X4.0Y1.0562
X4.9375Y1.0562
X6.0687Y3.1262
X6.0687Y2.1862
X6.0687Y1.6262
X6.0687Y0.6863
T7
X-10.4843Y1.5314
X-10.1562Y4.719
X-9.5738Y4.5314
X-9.1719Y4.5312
X-6.7342Y4.719
X-6.3928Y4.5314
X-4.8594Y4.5312
X-3.3592Y4.719
X-3.284Y4.5314
X0.0628Y4.719
X0.9063Y4.5312
X1.68Y4.719
X1.7056Y4.5314
X5.3828Y4.5312
X6.3442Y4.719
X6.3442Y4.719
X6.3442Y0.4532
X6.7568Y4.5314
X6.7568Y4.5314
T8
X-10.1562Y1.2063
X-10.1562Y5.2812
X-10.1562Y3.7812
X-10.0625Y2.2812
X-10.0625Y1.5312
X-10.0625Y0.7812
X-9.9688Y3.0312
X-9.9688Y0.7812
X-9.875Y2.2812
X-9.6875Y1.5312
X-9.4062Y3.7812
X-9.2188Y1.5312
X-9.2188Y1.2063
X-9.125Y0.7812
X-9.0312Y3.0312
X-9.0312Y0.7812
X-8.8438Y2.2812
X-8.6562Y5.2812
X-8.6562Y3.7812
X-8.4688Y1.5312
X-8.2812Y3.0312
X-8.1875Y0.7812
X-8.0938Y2.2812
X-8.0938Y0.7812
X-7.9062Y5.2812
X-7.9062Y3.7812
X-7.7188Y1.5312
X-7.5312Y3.0312
X-7.3438Y2.2812
X-7.3435Y0.4562
X-7.1562Y0.4562
X-7.1562Y5.2812
X-7.1562Y3.7812
X-6.9688Y1.5312
X-6.7812Y3.0312
X-6.5938Y2.2812
X-6.4062Y5.2812
X-6.4062Y3.7812
X-6.2188Y1.5312
X-6.0312Y3.0312
X-5.8438Y2.2812
X-5.6562Y3.7812
X-5.4688Y1.5312
X-5.375Y0.7812
X-5.2812Y5.2812
X-5.2812Y3.0312
X-5.0938Y2.2812
X-4.9062Y3.7812
X-4.9062Y0.7812
X-4.7188Y1.5312
X-4.5312Y5.2812
X-4.5312Y3.0312
X-4.3438Y2.2812
X-4.1562Y3.7812
X-3.9688Y1.5312
X-3.7812Y5.2812
X-3.7812Y3.0312
X-3.5938Y2.2812
X-3.4065Y0.4562
X-3.4062Y3.7812
X-3.2188Y1.5312
X-3.0312Y5.2812
X-3.0312Y3.0312
X-2.8438Y2.2812
X-2.6562Y0.4562
X-2.6562Y3.7812
X-2.5625Y0.7812
X-2.4688Y1.5312
X-2.2812Y3.0312
X-2.0938Y2.2812
X-1.9062Y5.2812
X-1.9062Y3.7812
X-1.7188Y1.5312
X-1.7188Y0.7812
X-1.625Y0.7812
X-1.5312Y3.0312
X-1.3438Y2.2812
X-1.1562Y5.2812
X-1.1562Y3.7812
X-0.7812Y3.0312
X-0.7812Y1.2063
X-0.7812Y0.7812
X-0.6875Y1.5312
X-0.6875Y0.7812
X-0.5938Y2.2812
X-0.5938Y1.9563
X-0.5Y3.4562
X-0.4062Y5.2812
X-0.4062Y3.7812
X-0.3125Y1.5312
X-0.125Y2.2812
X-0.075Y3.1282
X-0.075Y2.1882
X-0.0312Y3.7812
X0.1562Y3.0312
X0.1562Y1.2063
X0.1562Y0.7812
X0.25Y2.6582
X0.25Y0.7812
X0.3438Y5.2812
X0.3438Y3.7812
X0.3438Y1.9563
X0.3438Y1.5312
X0.4375Y3.4562
X1.4688Y3.7812
X1.4688Y3.0312
X1.4688Y2.2812
X1.4688Y1.5312
X1.4688Y0.7812
X1.4688Y5.2812
X2.2188Y3.7812
X2.2188Y3.0312
X2.2188Y2.2812
X2.2188Y1.5312
X2.2188Y0.7812
X2.2188Y5.2812
X2.9688Y5.2812
X2.9688Y3.7812
X2.9688Y3.0312
X2.9688Y2.2812
X2.9688Y1.5312
X2.9688Y0.7812
X4.0Y0.4562
X4.0938Y5.2812
X4.0938Y3.7812
X4.0938Y3.0312
X4.0938Y2.2812
X4.0938Y1.5312
X4.0938Y0.7812
X4.4688Y0.7812
X4.8438Y3.7812
X4.8438Y3.0312
X4.8438Y2.2812
X4.8438Y1.5312
X4.8438Y0.7812
X4.8438Y5.2812
X4.9375Y0.4562
X5.5938Y3.7812
X5.5938Y3.0312
X5.5938Y2.2812
X5.5938Y1.5312
X5.5938Y0.7812
X5.5938Y5.2812
X6.3438Y3.7812
X6.3438Y3.0312
X6.3438Y2.6562
X6.3438Y2.2812
X6.3438Y1.5312
X6.3438Y1.1562
X6.3438Y0.7812
X6.6688Y3.1262
X6.6688Y2.1862
X6.6688Y1.6262
X6.6688Y0.6863
T9
X-10.4609Y0.7817
X-10.4375Y0.7812
X-7.4141Y1.9062
X3.6016Y1.9062
X4.268Y5.2815
T10
X4.7969Y4.5312
T11
X-8.5859Y4.5312
T12
X-9.1835Y4.5314
X-8.5976Y4.5314
X-4.8592Y4.5314
X0.9065Y4.5314
X2.43Y4.5314
X4.268Y4.6082
X4.268Y4.6082
X4.789Y4.5314
X4.789Y4.5314
X5.3832Y4.5314
X5.3832Y4.5314
X6.2759Y4.6082
X6.2759Y4.6082
T13
X-1.906Y4.5314
T4
G00X4.0318Y5.282
M15
G01X4.3074Y5.282
M16
G05
G00X4.268Y5.2815
M15
G01X4.268Y5.4783
M16
G05
M30
